%TF.GenerationSoftware,KiCad,Pcbnew,7.0.5*%
%TF.CreationDate,2024-08-01T11:48:32+09:00*%
%TF.ProjectId,Arduini-Sheild_L6470-rs485-canfd,41726475-696e-4692-9d53-6865696c645f,rev?*%
%TF.SameCoordinates,Original*%
%TF.FileFunction,Paste,Top*%
%TF.FilePolarity,Positive*%
%FSLAX46Y46*%
G04 Gerber Fmt 4.6, Leading zero omitted, Abs format (unit mm)*
G04 Created by KiCad (PCBNEW 7.0.5) date 2024-08-01 11:48:32*
%MOMM*%
%LPD*%
G01*
G04 APERTURE LIST*
G04 Aperture macros list*
%AMRoundRect*
0 Rectangle with rounded corners*
0 $1 Rounding radius*
0 $2 $3 $4 $5 $6 $7 $8 $9 X,Y pos of 4 corners*
0 Add a 4 corners polygon primitive as box body*
4,1,4,$2,$3,$4,$5,$6,$7,$8,$9,$2,$3,0*
0 Add four circle primitives for the rounded corners*
1,1,$1+$1,$2,$3*
1,1,$1+$1,$4,$5*
1,1,$1+$1,$6,$7*
1,1,$1+$1,$8,$9*
0 Add four rect primitives between the rounded corners*
20,1,$1+$1,$2,$3,$4,$5,0*
20,1,$1+$1,$4,$5,$6,$7,0*
20,1,$1+$1,$6,$7,$8,$9,0*
20,1,$1+$1,$8,$9,$2,$3,0*%
G04 Aperture macros list end*
%ADD10R,0.914400X0.914400*%
%ADD11RoundRect,0.237500X0.237500X-0.250000X0.237500X0.250000X-0.237500X0.250000X-0.237500X-0.250000X0*%
%ADD12RoundRect,0.237500X0.237500X-0.300000X0.237500X0.300000X-0.237500X0.300000X-0.237500X-0.300000X0*%
%ADD13RoundRect,0.237500X-0.237500X0.300000X-0.237500X-0.300000X0.237500X-0.300000X0.237500X0.300000X0*%
%ADD14RoundRect,0.237500X-0.300000X-0.237500X0.300000X-0.237500X0.300000X0.237500X-0.300000X0.237500X0*%
%ADD15RoundRect,0.237500X-0.237500X0.250000X-0.237500X-0.250000X0.237500X-0.250000X0.237500X0.250000X0*%
%ADD16RoundRect,0.237500X-0.250000X-0.237500X0.250000X-0.237500X0.250000X0.237500X-0.250000X0.237500X0*%
%ADD17RoundRect,0.250000X-2.050000X-0.300000X2.050000X-0.300000X2.050000X0.300000X-2.050000X0.300000X0*%
%ADD18RoundRect,0.250000X-2.025000X-2.375000X2.025000X-2.375000X2.025000X2.375000X-2.025000X2.375000X0*%
%ADD19RoundRect,0.150000X-0.512500X-0.150000X0.512500X-0.150000X0.512500X0.150000X-0.512500X0.150000X0*%
%ADD20RoundRect,0.150000X0.150000X-0.825000X0.150000X0.825000X-0.150000X0.825000X-0.150000X-0.825000X0*%
%ADD21RoundRect,0.237500X0.300000X0.237500X-0.300000X0.237500X-0.300000X-0.237500X0.300000X-0.237500X0*%
%ADD22RoundRect,0.250000X1.950000X1.000000X-1.950000X1.000000X-1.950000X-1.000000X1.950000X-1.000000X0*%
%ADD23RoundRect,0.250000X-0.250000X-0.250000X0.250000X-0.250000X0.250000X0.250000X-0.250000X0.250000X0*%
%ADD24R,1.400000X1.600000*%
%ADD25R,1.100000X0.400000*%
%ADD26RoundRect,0.150000X0.650000X0.150000X-0.650000X0.150000X-0.650000X-0.150000X0.650000X-0.150000X0*%
%ADD27RoundRect,0.250000X0.250000X0.250000X-0.250000X0.250000X-0.250000X-0.250000X0.250000X-0.250000X0*%
%ADD28RoundRect,0.237500X0.250000X0.237500X-0.250000X0.237500X-0.250000X-0.237500X0.250000X-0.237500X0*%
G04 APERTURE END LIST*
D10*
%TO.C,Q3*%
X156261000Y-67488000D03*
X154483000Y-67488000D03*
X155372000Y-69520000D03*
%TD*%
D11*
%TO.C,R18*%
X130988000Y-88720500D03*
X130988000Y-86895500D03*
%TD*%
D12*
%TO.C,C18*%
X140132000Y-75462500D03*
X140132000Y-73737500D03*
%TD*%
D13*
%TO.C,C21*%
X145720000Y-77293500D03*
X145720000Y-79018500D03*
%TD*%
D14*
%TO.C,C1*%
X113869500Y-78664000D03*
X115594500Y-78664000D03*
%TD*%
D15*
%TO.C,R13*%
X153848000Y-73791000D03*
X153848000Y-75616000D03*
%TD*%
D14*
%TO.C,C6*%
X135713500Y-70536000D03*
X137438500Y-70536000D03*
%TD*%
D13*
%TO.C,C16*%
X113208000Y-89485500D03*
X113208000Y-91210500D03*
%TD*%
D16*
%TO.C,R1*%
X126519500Y-70536000D03*
X128344500Y-70536000D03*
%TD*%
%TO.C,R3*%
X113819500Y-76543639D03*
X115644500Y-76543639D03*
%TD*%
D17*
%TO.C,U5*%
X114156675Y-80428966D03*
D18*
X120881675Y-80193966D03*
X120881675Y-85743966D03*
X125731675Y-80193966D03*
X125731675Y-85743966D03*
D17*
X114156675Y-85508966D03*
%TD*%
D16*
%TO.C,R4*%
X122092769Y-76506876D03*
X123917769Y-76506876D03*
%TD*%
%TO.C,R2*%
X118495000Y-69012000D03*
X120320000Y-69012000D03*
%TD*%
D10*
%TO.C,Q2*%
X160833000Y-67488000D03*
X159055000Y-67488000D03*
X159944000Y-69520000D03*
%TD*%
D16*
%TO.C,R11*%
X156999500Y-64948000D03*
X158824500Y-64948000D03*
%TD*%
D15*
%TO.C,R9*%
X146228000Y-58955500D03*
X146228000Y-60780500D03*
%TD*%
D16*
%TO.C,R6*%
X131599500Y-68667620D03*
X133424500Y-68667620D03*
%TD*%
D19*
%TO.C,D2*%
X148646500Y-66538000D03*
X148646500Y-68438000D03*
X150921500Y-67488000D03*
%TD*%
D20*
%TO.C,U3*%
X114859000Y-58722000D03*
X116129000Y-58722000D03*
X117399000Y-58722000D03*
X118669000Y-58722000D03*
X118669000Y-53772000D03*
X117399000Y-53772000D03*
X116129000Y-53772000D03*
X114859000Y-53772000D03*
%TD*%
D12*
%TO.C,C19*%
X150292000Y-75462500D03*
X150292000Y-73737500D03*
%TD*%
D14*
%TO.C,C20*%
X145001974Y-85097479D03*
X146726974Y-85097479D03*
%TD*%
D21*
%TO.C,C9*%
X154710500Y-64948000D03*
X152985500Y-64948000D03*
%TD*%
D22*
%TO.C,C11*%
X160080000Y-56820000D03*
X151680000Y-56820000D03*
%TD*%
D15*
%TO.C,R15*%
X147244000Y-73687500D03*
X147244000Y-75512500D03*
%TD*%
D21*
%TO.C,C8*%
X148106500Y-62916000D03*
X146381500Y-62916000D03*
%TD*%
D13*
%TO.C,C10*%
X149276000Y-70181500D03*
X149276000Y-71906500D03*
%TD*%
D20*
%TO.C,U2*%
X121590000Y-58787000D03*
X122860000Y-58787000D03*
X124130000Y-58787000D03*
X125400000Y-58787000D03*
X126670000Y-58787000D03*
X127940000Y-58787000D03*
X129210000Y-58787000D03*
X129210000Y-53837000D03*
X127940000Y-53837000D03*
X126670000Y-53837000D03*
X125400000Y-53837000D03*
X124130000Y-53837000D03*
X122860000Y-53837000D03*
X121590000Y-53837000D03*
%TD*%
D21*
%TO.C,C5*%
X149202057Y-64664663D03*
X147477057Y-64664663D03*
%TD*%
D12*
%TO.C,C26*%
X130988000Y-84098500D03*
X130988000Y-82373500D03*
%TD*%
D23*
%TO.C,D1*%
X131974637Y-74787833D03*
X134474637Y-74787833D03*
%TD*%
D14*
%TO.C,C4*%
X131649500Y-71552000D03*
X133374500Y-71552000D03*
%TD*%
D24*
%TO.C,U6*%
X141148000Y-86020000D03*
X141148000Y-84120000D03*
X141148000Y-82220000D03*
X141148000Y-80320000D03*
X141148000Y-78420000D03*
X139448000Y-86020000D03*
X139448000Y-84120000D03*
X139448000Y-82220000D03*
X139448000Y-80320000D03*
X139448000Y-78420000D03*
D25*
X143148000Y-86445000D03*
X143148000Y-85795000D03*
X143148000Y-85145000D03*
X143148000Y-84495000D03*
X143148000Y-83845000D03*
X143148000Y-83195000D03*
X143148000Y-82545000D03*
X143148000Y-81895000D03*
X143148000Y-81245000D03*
X143148000Y-80595000D03*
X143148000Y-79945000D03*
X143148000Y-79295000D03*
X143148000Y-78645000D03*
X143148000Y-77995000D03*
X137448000Y-77995000D03*
X137448000Y-78645000D03*
X137448000Y-79295000D03*
X137448000Y-79945000D03*
X137448000Y-80595000D03*
X137448000Y-81245000D03*
X137448000Y-81895000D03*
X137448000Y-82545000D03*
X137448000Y-83195000D03*
X137448000Y-83845000D03*
X137448000Y-84495000D03*
X137448000Y-85145000D03*
X137448000Y-85795000D03*
X137448000Y-86445000D03*
%TD*%
D15*
%TO.C,R10*%
X148933474Y-52428541D03*
X148933474Y-54253541D03*
%TD*%
D24*
%TO.C,U4*%
X139480000Y-59888000D03*
X139480000Y-61788000D03*
X139480000Y-63688000D03*
X139480000Y-65588000D03*
X139480000Y-67488000D03*
X141180000Y-59888000D03*
X141180000Y-61788000D03*
X141180000Y-63688000D03*
X141180000Y-65588000D03*
X141180000Y-67488000D03*
D25*
X137480000Y-59463000D03*
X137480000Y-60113000D03*
X137480000Y-60763000D03*
X137480000Y-61413000D03*
X137480000Y-62063000D03*
X137480000Y-62713000D03*
X137480000Y-63363000D03*
X137480000Y-64013000D03*
X137480000Y-64663000D03*
X137480000Y-65313000D03*
X137480000Y-65963000D03*
X137480000Y-66613000D03*
X137480000Y-67263000D03*
X137480000Y-67913000D03*
X143180000Y-67913000D03*
X143180000Y-67263000D03*
X143180000Y-66613000D03*
X143180000Y-65963000D03*
X143180000Y-65313000D03*
X143180000Y-64663000D03*
X143180000Y-64013000D03*
X143180000Y-63363000D03*
X143180000Y-62713000D03*
X143180000Y-62063000D03*
X143180000Y-61413000D03*
X143180000Y-60763000D03*
X143180000Y-60113000D03*
X143180000Y-59463000D03*
%TD*%
D16*
%TO.C,R16*%
X144911000Y-82220000D03*
X146736000Y-82220000D03*
%TD*%
D13*
%TO.C,C22*%
X145720000Y-88977500D03*
X145720000Y-90702500D03*
%TD*%
D19*
%TO.C,D4*%
X142550500Y-73650000D03*
X142550500Y-75550000D03*
X144825500Y-74600000D03*
%TD*%
D26*
%TO.C,U1*%
X122904000Y-74473000D03*
X122904000Y-73203000D03*
X122904000Y-71933000D03*
X122904000Y-70663000D03*
X115704000Y-70663000D03*
X115704000Y-71933000D03*
X115704000Y-73203000D03*
X115704000Y-74473000D03*
%TD*%
D13*
%TO.C,C12*%
X146736000Y-70181500D03*
X146736000Y-71906500D03*
%TD*%
D12*
%TO.C,C14*%
X146228000Y-54183026D03*
X146228000Y-52458026D03*
%TD*%
D27*
%TO.C,D3*%
X150982296Y-87227686D03*
X148482296Y-87227686D03*
%TD*%
D15*
%TO.C,R17*%
X133528000Y-82427000D03*
X133528000Y-84252000D03*
%TD*%
D16*
%TO.C,R12*%
X152935500Y-71552000D03*
X154760500Y-71552000D03*
%TD*%
D14*
%TO.C,C15*%
X117872073Y-76506876D03*
X119597073Y-76506876D03*
%TD*%
%TO.C,C3*%
X120800696Y-66980000D03*
X122525696Y-66980000D03*
%TD*%
D16*
%TO.C,R5*%
X125099000Y-67996000D03*
X126924000Y-67996000D03*
%TD*%
D28*
%TO.C,R7*%
X137488500Y-73076000D03*
X135663500Y-73076000D03*
%TD*%
D12*
%TO.C,C25*%
X130988000Y-80713347D03*
X130988000Y-78988347D03*
%TD*%
%TO.C,C23*%
X133528000Y-80696000D03*
X133528000Y-78971000D03*
%TD*%
D28*
%TO.C,R14*%
X150628000Y-90578000D03*
X148803000Y-90578000D03*
%TD*%
D13*
%TO.C,C27*%
X133528000Y-86945500D03*
X133528000Y-88670500D03*
%TD*%
D28*
%TO.C,R8*%
X135861000Y-63424000D03*
X134036000Y-63424000D03*
%TD*%
D21*
%TO.C,C7*%
X135764875Y-60884000D03*
X134039875Y-60884000D03*
%TD*%
D12*
%TO.C,C13*%
X148768000Y-60730500D03*
X148768000Y-59005500D03*
%TD*%
D21*
%TO.C,C17*%
X150493000Y-93396000D03*
X148768000Y-93396000D03*
%TD*%
%TO.C,C2*%
X118618098Y-66980000D03*
X116893098Y-66980000D03*
%TD*%
M02*
