%TF.GenerationSoftware,KiCad,Pcbnew,7.0.5*%
%TF.CreationDate,2024-08-01T11:48:32+09:00*%
%TF.ProjectId,Arduini-Sheild_L6470-rs485-canfd,41726475-696e-4692-9d53-6865696c645f,rev?*%
%TF.SameCoordinates,Original*%
%TF.FileFunction,Copper,L2,Bot*%
%TF.FilePolarity,Positive*%
%FSLAX46Y46*%
G04 Gerber Fmt 4.6, Leading zero omitted, Abs format (unit mm)*
G04 Created by KiCad (PCBNEW 7.0.5) date 2024-08-01 11:48:32*
%MOMM*%
%LPD*%
G01*
G04 APERTURE LIST*
G04 Aperture macros list*
%AMRoundRect*
0 Rectangle with rounded corners*
0 $1 Rounding radius*
0 $2 $3 $4 $5 $6 $7 $8 $9 X,Y pos of 4 corners*
0 Add a 4 corners polygon primitive as box body*
4,1,4,$2,$3,$4,$5,$6,$7,$8,$9,$2,$3,0*
0 Add four circle primitives for the rounded corners*
1,1,$1+$1,$2,$3*
1,1,$1+$1,$4,$5*
1,1,$1+$1,$6,$7*
1,1,$1+$1,$8,$9*
0 Add four rect primitives between the rounded corners*
20,1,$1+$1,$2,$3,$4,$5,0*
20,1,$1+$1,$4,$5,$6,$7,0*
20,1,$1+$1,$6,$7,$8,$9,0*
20,1,$1+$1,$8,$9,$2,$3,0*%
G04 Aperture macros list end*
%TA.AperFunction,ComponentPad*%
%ADD10R,1.700000X1.700000*%
%TD*%
%TA.AperFunction,ComponentPad*%
%ADD11O,1.700000X1.700000*%
%TD*%
%TA.AperFunction,ComponentPad*%
%ADD12RoundRect,0.250000X0.600000X0.725000X-0.600000X0.725000X-0.600000X-0.725000X0.600000X-0.725000X0*%
%TD*%
%TA.AperFunction,ComponentPad*%
%ADD13O,1.700000X1.950000*%
%TD*%
%TA.AperFunction,ComponentPad*%
%ADD14RoundRect,0.250000X-0.725000X0.600000X-0.725000X-0.600000X0.725000X-0.600000X0.725000X0.600000X0*%
%TD*%
%TA.AperFunction,ComponentPad*%
%ADD15O,1.950000X1.700000*%
%TD*%
%TA.AperFunction,ComponentPad*%
%ADD16RoundRect,0.250000X0.750000X-0.600000X0.750000X0.600000X-0.750000X0.600000X-0.750000X-0.600000X0*%
%TD*%
%TA.AperFunction,ComponentPad*%
%ADD17O,2.000000X1.700000*%
%TD*%
%TA.AperFunction,ComponentPad*%
%ADD18RoundRect,0.250000X-0.600000X-0.725000X0.600000X-0.725000X0.600000X0.725000X-0.600000X0.725000X0*%
%TD*%
%TA.AperFunction,ComponentPad*%
%ADD19R,2.000000X4.600000*%
%TD*%
%TA.AperFunction,ComponentPad*%
%ADD20O,2.000000X4.200000*%
%TD*%
%TA.AperFunction,ComponentPad*%
%ADD21O,4.200000X2.000000*%
%TD*%
%TA.AperFunction,ComponentPad*%
%ADD22C,1.397000*%
%TD*%
%TA.AperFunction,ComponentPad*%
%ADD23RoundRect,0.250000X-0.350000X-0.625000X0.350000X-0.625000X0.350000X0.625000X-0.350000X0.625000X0*%
%TD*%
%TA.AperFunction,ComponentPad*%
%ADD24O,1.200000X1.750000*%
%TD*%
%TA.AperFunction,ComponentPad*%
%ADD25C,1.500000*%
%TD*%
%TA.AperFunction,ComponentPad*%
%ADD26RoundRect,0.250000X-0.600000X-0.675000X0.600000X-0.675000X0.600000X0.675000X-0.600000X0.675000X0*%
%TD*%
%TA.AperFunction,ComponentPad*%
%ADD27O,1.700000X1.850000*%
%TD*%
%TA.AperFunction,ComponentPad*%
%ADD28R,1.500000X1.050000*%
%TD*%
%TA.AperFunction,ComponentPad*%
%ADD29O,1.500000X1.050000*%
%TD*%
%TA.AperFunction,ViaPad*%
%ADD30C,0.600000*%
%TD*%
%TA.AperFunction,ViaPad*%
%ADD31C,1.500000*%
%TD*%
%TA.AperFunction,ViaPad*%
%ADD32C,1.000000*%
%TD*%
%TA.AperFunction,Conductor*%
%ADD33C,0.200000*%
%TD*%
%TA.AperFunction,Conductor*%
%ADD34C,1.200000*%
%TD*%
%TA.AperFunction,Conductor*%
%ADD35C,0.400000*%
%TD*%
%TA.AperFunction,Conductor*%
%ADD36C,0.250000*%
%TD*%
%TA.AperFunction,Conductor*%
%ADD37C,0.600000*%
%TD*%
G04 APERTURE END LIST*
D10*
%TO.P,J1,1,Pin_1*%
%TO.N,unconnected-(J1-Pin_1-Pad1)*%
X127940000Y-97460000D03*
D11*
%TO.P,J1,2,Pin_2*%
%TO.N,/IOREF*%
X130480000Y-97460000D03*
%TO.P,J1,3,Pin_3*%
%TO.N,/~{RESET}*%
X133020000Y-97460000D03*
%TO.P,J1,4,Pin_4*%
%TO.N,+3V3*%
X135560000Y-97460000D03*
%TO.P,J1,5,Pin_5*%
%TO.N,+5V*%
X138100000Y-97460000D03*
%TO.P,J1,6,Pin_6*%
%TO.N,GND*%
X140640000Y-97460000D03*
%TO.P,J1,7,Pin_7*%
X143180000Y-97460000D03*
%TO.P,J1,8,Pin_8*%
%TO.N,VCC*%
X145720000Y-97460000D03*
%TD*%
D10*
%TO.P,J2,1,Pin_1*%
%TO.N,/A0*%
X150800000Y-97460000D03*
D11*
%TO.P,J2,2,Pin_2*%
%TO.N,/A1*%
X153340000Y-97460000D03*
%TO.P,J2,3,Pin_3*%
%TO.N,/A2*%
X155880000Y-97460000D03*
%TO.P,J2,4,Pin_4*%
%TO.N,/A3*%
X158420000Y-97460000D03*
%TO.P,J2,5,Pin_5*%
%TO.N,/SDA{slash}A4*%
X160960000Y-97460000D03*
%TO.P,J2,6,Pin_6*%
%TO.N,/SCL{slash}A5*%
X163500000Y-97460000D03*
%TD*%
D10*
%TO.P,J3,1,Pin_1*%
%TO.N,/SCL{slash}A5*%
X118796000Y-49200000D03*
D11*
%TO.P,J3,2,Pin_2*%
%TO.N,/SDA{slash}A4*%
X121336000Y-49200000D03*
%TO.P,J3,3,Pin_3*%
%TO.N,/AREF*%
X123876000Y-49200000D03*
%TO.P,J3,4,Pin_4*%
%TO.N,GND*%
X126416000Y-49200000D03*
%TO.P,J3,5,Pin_5*%
%TO.N,/13*%
X128956000Y-49200000D03*
%TO.P,J3,6,Pin_6*%
%TO.N,/12*%
X131496000Y-49200000D03*
%TO.P,J3,7,Pin_7*%
%TO.N,/\u002A11*%
X134036000Y-49200000D03*
%TO.P,J3,8,Pin_8*%
%TO.N,/\u002A10*%
X136576000Y-49200000D03*
%TO.P,J3,9,Pin_9*%
%TO.N,/\u002A9*%
X139116000Y-49200000D03*
%TO.P,J3,10,Pin_10*%
%TO.N,/8*%
X141656000Y-49200000D03*
%TD*%
D10*
%TO.P,J4,1,Pin_1*%
%TO.N,/7*%
X145720000Y-49200000D03*
D11*
%TO.P,J4,2,Pin_2*%
%TO.N,/\u002A6*%
X148260000Y-49200000D03*
%TO.P,J4,3,Pin_3*%
%TO.N,/\u002A5*%
X150800000Y-49200000D03*
%TO.P,J4,4,Pin_4*%
%TO.N,/4*%
X153340000Y-49200000D03*
%TO.P,J4,5,Pin_5*%
%TO.N,/\u002A3*%
X155880000Y-49200000D03*
%TO.P,J4,6,Pin_6*%
%TO.N,/\u002ABUSY2*%
X158420000Y-49200000D03*
%TO.P,J4,7,Pin_7*%
%TO.N,/TX{slash}1*%
X160960000Y-49200000D03*
%TO.P,J4,8,Pin_8*%
%TO.N,/RX{slash}0*%
X163500000Y-49200000D03*
%TD*%
D12*
%TO.P,J11,1,Pin_1*%
%TO.N,/2OUT1A*%
X141148000Y-92888000D03*
D13*
%TO.P,J11,2,Pin_2*%
%TO.N,/2OUT2A*%
X138648000Y-92888000D03*
%TO.P,J11,3,Pin_3*%
%TO.N,/2OUT2B*%
X136148000Y-92888000D03*
%TO.P,J11,4,Pin_4*%
%TO.N,/2OUT1B*%
X133648000Y-92888000D03*
%TD*%
D14*
%TO.P,J12,1,Pin_1*%
%TO.N,+5V*%
X110054000Y-59166000D03*
D15*
%TO.P,J12,2,Pin_2*%
%TO.N,GND*%
X110054000Y-61666000D03*
%TO.P,J12,3,Pin_3*%
%TO.N,/SDA{slash}A4*%
X110054000Y-64166000D03*
%TO.P,J12,4,Pin_4*%
%TO.N,/SCL{slash}A5*%
X110054000Y-66666000D03*
%TD*%
D16*
%TO.P,J9,1,Pin_1*%
%TO.N,Net-(J9-Pin_1)*%
X159034000Y-84994000D03*
D17*
%TO.P,J9,2,Pin_2*%
%TO.N,Net-(J9-Pin_2)*%
X159034000Y-82494000D03*
%TD*%
D10*
%TO.P,J17,1,Pin_1*%
%TO.N,+5V*%
X153340000Y-89762000D03*
D11*
%TO.P,J17,2,Pin_2*%
%TO.N,+3V3*%
X155880000Y-89762000D03*
%TO.P,J17,3,Pin_3*%
%TO.N,/A1*%
X158420000Y-89762000D03*
%TO.P,J17,4,Pin_4*%
%TO.N,GND*%
X160960000Y-89762000D03*
%TD*%
D18*
%TO.P,J7,1,Pin_1*%
%TO.N,/OUT1A*%
X133334000Y-53755000D03*
D13*
%TO.P,J7,2,Pin_2*%
%TO.N,/OUT2A*%
X135834000Y-53755000D03*
%TO.P,J7,3,Pin_3*%
%TO.N,/OUT2B*%
X138334000Y-53755000D03*
%TO.P,J7,4,Pin_4*%
%TO.N,/OUT1B*%
X140834000Y-53755000D03*
%TD*%
D19*
%TO.P,J6,1*%
%TO.N,VS*%
X110772926Y-92332567D03*
D20*
%TO.P,J6,2*%
%TO.N,GND*%
X104472926Y-92332567D03*
D21*
%TO.P,J6,3*%
%TO.N,N/C*%
X107872926Y-97132567D03*
%TD*%
D22*
%TO.P,RV2,1,1*%
%TO.N,Net-(R13-Pad2)*%
X153848000Y-80696000D03*
%TO.P,RV2,2,2*%
%TO.N,Net-(D3-K)*%
X151308000Y-83236000D03*
%TO.P,RV2,3,3*%
X148768000Y-80696000D03*
%TD*%
D16*
%TO.P,J10,1,Pin_1*%
%TO.N,Net-(J10-Pin_1)*%
X159034000Y-75850000D03*
D17*
%TO.P,J10,2,Pin_2*%
%TO.N,Net-(J10-Pin_2)*%
X159034000Y-73350000D03*
%TD*%
D23*
%TO.P,J8,1,Pin_1*%
%TO.N,+5V*%
X103080000Y-50724000D03*
D24*
%TO.P,J8,2,Pin_2*%
%TO.N,Net-(J8-Pin_2)*%
X105080000Y-50724000D03*
%TO.P,J8,3,Pin_3*%
%TO.N,Net-(J8-Pin_3)*%
X107080000Y-50724000D03*
%TO.P,J8,4,Pin_4*%
%TO.N,GND*%
X109080000Y-50724000D03*
%TD*%
D22*
%TO.P,RV1,1,1*%
%TO.N,Net-(R5-Pad2)*%
X127432000Y-63932000D03*
%TO.P,RV1,2,2*%
%TO.N,Net-(D1-K)*%
X129972000Y-61392000D03*
%TO.P,RV1,3,3*%
X132512000Y-63932000D03*
%TD*%
D25*
%TO.P,Y1,1,1*%
%TO.N,Net-(U2-OSC1)*%
X122152000Y-63424000D03*
%TO.P,Y1,2,2*%
%TO.N,Net-(U2-OSC2)*%
X117272000Y-63424000D03*
%TD*%
D26*
%TO.P,J5,1,Pin_1*%
%TO.N,+6V*%
X117312000Y-92014000D03*
D27*
%TO.P,J5,2,Pin_2*%
%TO.N,Net-(J5-Pin_2)*%
X119812000Y-92014000D03*
%TO.P,J5,3,Pin_3*%
%TO.N,GND*%
X122312000Y-92014000D03*
%TD*%
D28*
%TO.P,Q1,1,E*%
%TO.N,+5V*%
X128300000Y-75870000D03*
D29*
%TO.P,Q1,2,C*%
%TO.N,Net-(Q1-C)*%
X128300000Y-74600000D03*
%TO.P,Q1,3,B*%
%TO.N,Net-(Q1-B)*%
X128300000Y-73330000D03*
%TD*%
D10*
%TO.P,J16,1,Pin_1*%
%TO.N,+5V*%
X153340000Y-93396000D03*
D11*
%TO.P,J16,2,Pin_2*%
%TO.N,+3V3*%
X155880000Y-93396000D03*
%TO.P,J16,3,Pin_3*%
%TO.N,/A0*%
X158420000Y-93396000D03*
%TO.P,J16,4,Pin_4*%
%TO.N,GND*%
X160960000Y-93396000D03*
%TD*%
D14*
%TO.P,J13,1,Pin_1*%
%TO.N,+5V*%
X110054000Y-73898000D03*
D15*
%TO.P,J13,2,Pin_2*%
%TO.N,GND*%
X110054000Y-76398000D03*
%TO.P,J13,3,Pin_3*%
%TO.N,/SDA{slash}A4*%
X110054000Y-78898000D03*
%TO.P,J13,4,Pin_4*%
%TO.N,/SCL{slash}A5*%
X110054000Y-81398000D03*
%TD*%
D30*
%TO.N,GND*%
X121336000Y-83236000D03*
X129972000Y-82728000D03*
X160960000Y-87808000D03*
X152324000Y-87808000D03*
X141656000Y-86284000D03*
X165024000Y-51232000D03*
X130988000Y-77923000D03*
X125400000Y-75108000D03*
X117832834Y-75127954D03*
X148768000Y-76632000D03*
X104572000Y-97968000D03*
X101016000Y-47676000D03*
X167564000Y-68504000D03*
X109144000Y-54280000D03*
X157912000Y-87808000D03*
X147244000Y-92380000D03*
X129972000Y-66472000D03*
X105588000Y-84760000D03*
X141656000Y-62916000D03*
X133528000Y-73076000D03*
X101016000Y-80696000D03*
X111176000Y-52756000D03*
X151816000Y-51740000D03*
X131496000Y-59868000D03*
X139116000Y-86284000D03*
X125400000Y-83236000D03*
X101016000Y-66980000D03*
X101016000Y-98476000D03*
X101016000Y-92380000D03*
X101016000Y-59868000D03*
X143688000Y-51232000D03*
X148260000Y-85268000D03*
X127940000Y-61900000D03*
X141656000Y-89332000D03*
X123368000Y-96444000D03*
X165024000Y-55296000D03*
X104572000Y-88316000D03*
X104572000Y-96444000D03*
X167564000Y-88824000D03*
X139116000Y-89332000D03*
X108128000Y-84760000D03*
X147244000Y-95936000D03*
X167564000Y-82220000D03*
X130480000Y-74092000D03*
X112700000Y-54280000D03*
X167564000Y-75616000D03*
X139116000Y-78156000D03*
X105588000Y-76632000D03*
X101016000Y-53772000D03*
X123368000Y-81204000D03*
X131496000Y-55804000D03*
X144196000Y-91364000D03*
X139116000Y-81712000D03*
X105588000Y-80696000D03*
X143180000Y-56312000D03*
X114732000Y-92888000D03*
X114732000Y-86792000D03*
X154864000Y-85268000D03*
X120320000Y-52248000D03*
X125400000Y-85268000D03*
X121336000Y-97460000D03*
X121336000Y-85268000D03*
X101016000Y-86792000D03*
X125908000Y-65964000D03*
X139116000Y-62916000D03*
X129464000Y-89332000D03*
X151816000Y-76632000D03*
X151816000Y-54280000D03*
X139116000Y-67488000D03*
X152832000Y-61900000D03*
X107620000Y-52756000D03*
X139116000Y-59360000D03*
X115240000Y-65456000D03*
X135560000Y-74584536D03*
X124384000Y-65964000D03*
X120320000Y-55296000D03*
X141656000Y-81712000D03*
X121336000Y-81204000D03*
X123368000Y-83236000D03*
X141656000Y-59360000D03*
X141656000Y-67488000D03*
X101016000Y-74092000D03*
X165024000Y-59868000D03*
X154356000Y-51740000D03*
X152832000Y-67488000D03*
X154864000Y-87808000D03*
X137592000Y-72151500D03*
X113716000Y-67488000D03*
X140640000Y-56312000D03*
X155880000Y-76632000D03*
X123368000Y-85268000D03*
X119359073Y-75108000D03*
X119304000Y-96444000D03*
X147244000Y-93904000D03*
X154356000Y-54280000D03*
X116256000Y-57419500D03*
X152832000Y-69012000D03*
X141656000Y-78156000D03*
X144196000Y-95936000D03*
%TO.N,+5V*%
X129464000Y-81204000D03*
X105588000Y-74092000D03*
X113716000Y-75108000D03*
%TO.N,/SCL{slash}A5*%
X106096000Y-82728000D03*
%TO.N,/13*%
X106512500Y-75108000D03*
X130988000Y-76723500D03*
X145212000Y-65363500D03*
X119304000Y-61300500D03*
X145212000Y-67212500D03*
X126924000Y-52339500D03*
%TO.N,/12*%
X146186080Y-66072160D03*
X146103839Y-67780339D03*
X114224000Y-62916000D03*
X125800000Y-51340000D03*
X131606265Y-77230404D03*
X107112000Y-77564500D03*
%TO.N,/7*%
X145720000Y-56820000D03*
%TO.N,/\u002A11*%
X144629500Y-67904500D03*
X129464000Y-80188000D03*
X125908000Y-52248000D03*
X145704536Y-64455464D03*
X132220500Y-81712000D03*
%TO.N,/\u002A10*%
X150800000Y-63021560D03*
%TO.N,/\u002A9*%
X149277942Y-62421560D03*
%TO.N,/4*%
X132004000Y-85776000D03*
%TO.N,/TX{slash}1*%
X162575500Y-68495134D03*
X124384000Y-71044000D03*
%TO.N,/RX{slash}0*%
X124384000Y-74600000D03*
X162699661Y-69903839D03*
%TO.N,+3V3*%
X161468000Y-63424000D03*
X153848000Y-70028000D03*
X157912000Y-63424000D03*
%TO.N,VS*%
X136068000Y-59868000D03*
X124892000Y-69520000D03*
X134266239Y-77587318D03*
X135341550Y-69316228D03*
X144200902Y-61046407D03*
X144704000Y-87300000D03*
X143688000Y-69520000D03*
X141656000Y-74092000D03*
X144345500Y-78664000D03*
X148006000Y-65202000D03*
X135560000Y-85268000D03*
D31*
X154864000Y-60376000D03*
D30*
X151308000Y-70028000D03*
%TO.N,+3V0*%
X135843664Y-82045500D03*
X144704000Y-81204000D03*
X136302336Y-79556156D03*
X151308000Y-61392000D03*
X136177849Y-63320500D03*
X147752000Y-57836000D03*
X145196536Y-62931464D03*
X148291846Y-63899753D03*
%TO.N,/OUT2B*%
X136068000Y-68420500D03*
%TO.N,Net-(D2-K)*%
X147617988Y-67082439D03*
X136068000Y-65964000D03*
%TO.N,/OUT1B*%
X136431739Y-67498188D03*
%TO.N,Net-(U6-SW)*%
X144093665Y-84444500D03*
X147244000Y-76632000D03*
%TO.N,/\u002ABUSY2*%
X129972000Y-84252000D03*
%TO.N,/2OUT2B*%
X137084000Y-77155817D03*
D32*
%TO.N,/2OUT1B*%
X135560000Y-88824000D03*
D30*
X142164000Y-76632000D03*
%TO.N,Net-(U4-SW)*%
X135578349Y-61918349D03*
X135560000Y-64440000D03*
%TO.N,Net-(U4-CP)*%
X136125334Y-65005334D03*
X144704000Y-63932000D03*
%TO.N,Net-(J5-Pin_2)*%
X118288000Y-74092000D03*
X117272000Y-72060000D03*
X117780000Y-80696000D03*
%TD*%
D33*
%TO.N,GND*%
X120320000Y-52248000D02*
X119979471Y-52248000D01*
X130988000Y-77923000D02*
X131762198Y-77923000D01*
X135560000Y-74584536D02*
X135560000Y-74183500D01*
X125400000Y-74600000D02*
X125400000Y-75108000D01*
X141656000Y-89332000D02*
X143688000Y-91364000D01*
X131496000Y-73076000D02*
X130988000Y-72568000D01*
X130480000Y-72060000D02*
X127940000Y-72060000D01*
X127940000Y-72060000D02*
X125400000Y-74600000D01*
X130988000Y-83744000D02*
X130988000Y-87808000D01*
X117832834Y-75127954D02*
X119339119Y-75127954D01*
X135560000Y-74183500D02*
X137592000Y-72151500D01*
X131762198Y-77923000D02*
X132512000Y-77173198D01*
X130988000Y-77923000D02*
X131087411Y-77923000D01*
X130988000Y-87808000D02*
X129464000Y-89332000D01*
X120320000Y-52248000D02*
X120320000Y-55296000D01*
X133528000Y-73076000D02*
X131496000Y-73076000D01*
X130988000Y-72568000D02*
X130480000Y-72060000D01*
X119339119Y-75127954D02*
X119359073Y-75108000D01*
X119979471Y-52248000D02*
X116256000Y-55971471D01*
X143688000Y-91364000D02*
X144196000Y-91364000D01*
X129972000Y-82728000D02*
X130988000Y-83744000D01*
X132512000Y-77173198D02*
X132512000Y-76124000D01*
X116256000Y-55971471D02*
X116256000Y-57419500D01*
X132512000Y-76124000D02*
X130480000Y-74092000D01*
%TO.N,+5V*%
X127940000Y-92888000D02*
X124892000Y-95936000D01*
X112700000Y-74092000D02*
X110248000Y-74092000D01*
X114478000Y-75870000D02*
X128300000Y-75870000D01*
X149784000Y-94920000D02*
X151308000Y-94920000D01*
X113716000Y-75108000D02*
X112700000Y-74092000D01*
X148260000Y-97968000D02*
X148260000Y-96444000D01*
X124892000Y-95936000D02*
X124892000Y-98476000D01*
X124892000Y-98476000D02*
X125400000Y-98984000D01*
X152832000Y-93396000D02*
X153340000Y-93396000D01*
X127940000Y-82728000D02*
X127940000Y-92888000D01*
X151308000Y-94920000D02*
X152832000Y-93396000D01*
X129464000Y-81204000D02*
X127940000Y-82728000D01*
X138100000Y-97460000D02*
X139624000Y-98984000D01*
X136576000Y-98984000D02*
X138100000Y-97460000D01*
X147244000Y-98984000D02*
X148260000Y-97968000D01*
X110248000Y-74092000D02*
X110054000Y-73898000D01*
X105588000Y-74092000D02*
X109860000Y-74092000D01*
X125400000Y-98984000D02*
X136576000Y-98984000D01*
X139624000Y-98984000D02*
X147244000Y-98984000D01*
X153340000Y-93396000D02*
X153340000Y-89762000D01*
X148260000Y-96444000D02*
X149784000Y-94920000D01*
X109860000Y-74092000D02*
X110054000Y-73898000D01*
X113716000Y-75108000D02*
X114478000Y-75870000D01*
%TO.N,/SDA{slash}A4*%
X121336000Y-49200000D02*
X113208000Y-57328000D01*
X111450000Y-64166000D02*
X110054000Y-64166000D01*
X113208000Y-62408000D02*
X111450000Y-64166000D01*
X113208000Y-57328000D02*
X113208000Y-62408000D01*
%TO.N,/SCL{slash}A5*%
X108830000Y-66666000D02*
X110054000Y-66666000D01*
X107112000Y-58344000D02*
X107112000Y-64948000D01*
X118796000Y-50724000D02*
X112700000Y-56820000D01*
X106096000Y-82728000D02*
X107426000Y-81398000D01*
X107426000Y-81398000D02*
X110054000Y-81398000D01*
X107112000Y-64948000D02*
X108830000Y-66666000D01*
X112700000Y-56820000D02*
X108636000Y-56820000D01*
X118796000Y-49200000D02*
X118796000Y-50724000D01*
X108636000Y-56820000D02*
X107112000Y-58344000D01*
%TO.N,/13*%
X128956000Y-49200000D02*
X126924000Y-51232000D01*
X145212000Y-67212500D02*
X145212000Y-65363500D01*
X112700000Y-76632000D02*
X111176000Y-75108000D01*
X126924000Y-51232000D02*
X126924000Y-52339500D01*
X119304000Y-61300500D02*
X119903500Y-61300500D01*
X126924000Y-54280000D02*
X126924000Y-52339500D01*
X119903500Y-61300500D02*
X126924000Y-54280000D01*
X111176000Y-75108000D02*
X106512500Y-75108000D01*
X127250000Y-76632000D02*
X112700000Y-76632000D01*
X127313000Y-76695000D02*
X127250000Y-76632000D01*
X130988000Y-76723500D02*
X130959500Y-76695000D01*
X130959500Y-76695000D02*
X127313000Y-76695000D01*
%TO.N,/12*%
X146186080Y-66072160D02*
X146103839Y-66154401D01*
X146103839Y-66154401D02*
X146103839Y-67780339D01*
X107128500Y-77548000D02*
X107112000Y-77564500D01*
X125800000Y-51442346D02*
X125800000Y-51340000D01*
X114224000Y-62916000D02*
X114326346Y-62916000D01*
X130480000Y-77140000D02*
X111063346Y-77140000D01*
X114326346Y-62916000D02*
X125800000Y-51442346D01*
X110655346Y-77548000D02*
X107128500Y-77548000D01*
X131606265Y-77230404D02*
X131513169Y-77323500D01*
X130663500Y-77323500D02*
X130480000Y-77140000D01*
X111063346Y-77140000D02*
X110655346Y-77548000D01*
X131513169Y-77323500D02*
X130663500Y-77323500D01*
%TO.N,/7*%
X145720000Y-50704792D02*
X145720000Y-56820000D01*
X145720000Y-49200000D02*
X145720000Y-50704792D01*
%TO.N,/\u002A11*%
X129464000Y-80188000D02*
X130988000Y-81712000D01*
X104076567Y-94932567D02*
X102540000Y-93396000D01*
X145704536Y-64455464D02*
X145196536Y-64455464D01*
X144196000Y-67471000D02*
X144629500Y-67904500D01*
X102540000Y-93396000D02*
X102540000Y-73835208D01*
X124384000Y-82728000D02*
X124384000Y-93396000D01*
X122847433Y-94932567D02*
X104076567Y-94932567D01*
X107871208Y-68504000D02*
X110160000Y-68504000D01*
X124384000Y-93396000D02*
X122847433Y-94932567D01*
X144196000Y-65456000D02*
X144196000Y-67471000D01*
X129464000Y-80188000D02*
X126924000Y-80188000D01*
X102540000Y-73835208D02*
X107871208Y-68504000D01*
X126924000Y-80188000D02*
X124384000Y-82728000D01*
X110160000Y-68504000D02*
X125908000Y-52756000D01*
X145196536Y-64455464D02*
X144196000Y-65456000D01*
X130988000Y-81712000D02*
X132220500Y-81712000D01*
X125908000Y-52756000D02*
X125908000Y-52248000D01*
%TO.N,/\u002A10*%
X140640000Y-51740000D02*
X139116000Y-51740000D01*
X148873560Y-63021560D02*
X144170000Y-58318000D01*
X150800000Y-63021560D02*
X148873560Y-63021560D01*
X144170000Y-55270000D02*
X140640000Y-51740000D01*
X144170000Y-58318000D02*
X144170000Y-55270000D01*
X139116000Y-51740000D02*
X136576000Y-49200000D01*
%TO.N,/\u002A9*%
X144570000Y-57702000D02*
X144570000Y-54654000D01*
X149277942Y-62409942D02*
X144570000Y-57702000D01*
X149277942Y-62421560D02*
X149277942Y-62409942D01*
X144570000Y-54654000D02*
X139116000Y-49200000D01*
%TO.N,/4*%
X163500000Y-67488000D02*
X157404000Y-61392000D01*
X131496000Y-86284000D02*
X131496000Y-90298051D01*
X131496000Y-93396000D02*
X133528000Y-95428000D01*
X157404000Y-61392000D02*
X157404000Y-53264000D01*
X163500000Y-73511817D02*
X163500000Y-67488000D01*
X141583817Y-95428000D02*
X163500000Y-73511817D01*
X132004000Y-85776000D02*
X131496000Y-86284000D01*
X131496000Y-90298051D02*
X131496000Y-93396000D01*
X133528000Y-95428000D02*
X141583817Y-95428000D01*
X157404000Y-53264000D02*
X153340000Y-49200000D01*
%TO.N,/TX{slash}1*%
X162575500Y-68495134D02*
X160877366Y-68495134D01*
X160877366Y-68495134D02*
X158328500Y-71044000D01*
X158328500Y-71044000D02*
X124384000Y-71044000D01*
%TO.N,/RX{slash}0*%
X162608161Y-69903839D02*
X160960000Y-71552000D01*
X160960000Y-71552000D02*
X127432000Y-71552000D01*
X127432000Y-71552000D02*
X124384000Y-74600000D01*
X162699661Y-69903839D02*
X162608161Y-69903839D01*
%TO.N,+3V3*%
X164516000Y-66472000D02*
X164516000Y-74600000D01*
X155880000Y-89762000D02*
X155880000Y-93396000D01*
X153848000Y-70028000D02*
X157912000Y-65964000D01*
X164516000Y-74600000D02*
X155880000Y-83236000D01*
X157912000Y-65964000D02*
X157912000Y-63424000D01*
X155880000Y-83236000D02*
X155880000Y-89762000D01*
X161468000Y-63424000D02*
X164516000Y-66472000D01*
%TO.N,VS*%
X150292000Y-69012000D02*
X151308000Y-70028000D01*
D34*
X148006000Y-65202000D02*
X147191846Y-64387846D01*
X141469665Y-83236000D02*
X137592000Y-83236000D01*
X146228000Y-82220000D02*
X145103500Y-83344500D01*
X154864000Y-61900000D02*
X147244000Y-69520000D01*
D35*
X142993665Y-85589665D02*
X142993665Y-85454335D01*
D34*
X148006000Y-68758000D02*
X150292000Y-66472000D01*
X142993665Y-84760000D02*
X141469665Y-83236000D01*
X149022000Y-65202000D02*
X148006000Y-65202000D01*
X154864000Y-60376000D02*
X154864000Y-61900000D01*
X146228000Y-79680000D02*
X146228000Y-82220000D01*
X124892000Y-69520000D02*
X108128000Y-69520000D01*
X143638030Y-83344500D02*
X142993665Y-83988865D01*
X143688000Y-76124000D02*
X143688000Y-77140000D01*
X150292000Y-66472000D02*
X149022000Y-65202000D01*
X137592000Y-83236000D02*
X135560000Y-85268000D01*
X134266239Y-77587318D02*
X137761557Y-74092000D01*
X142993665Y-83988865D02*
X142993665Y-85454335D01*
X137761557Y-74092000D02*
X141656000Y-74092000D01*
X147191846Y-64387846D02*
X147191846Y-63371846D01*
D35*
X144345500Y-77797500D02*
X143688000Y-77140000D01*
D34*
X133588682Y-77587318D02*
X132088000Y-79088000D01*
X144704000Y-60884000D02*
X137084000Y-60884000D01*
X115800365Y-79088000D02*
X110772926Y-84115439D01*
X147191846Y-63371846D02*
X144704000Y-60884000D01*
X108128000Y-69520000D02*
X104064000Y-73584000D01*
X104064000Y-73584000D02*
X104064000Y-85623641D01*
D35*
X144345500Y-78664000D02*
X144345500Y-77797500D01*
D34*
X132088000Y-79088000D02*
X115800365Y-79088000D01*
X134266239Y-77587318D02*
X133588682Y-77587318D01*
X147244000Y-69520000D02*
X124892000Y-69520000D01*
X141656000Y-74092000D02*
X143688000Y-76124000D01*
X145103500Y-83344500D02*
X143638030Y-83344500D01*
X104064000Y-85623641D02*
X110772926Y-92332567D01*
X143688000Y-77140000D02*
X146228000Y-79680000D01*
X110772926Y-84115439D02*
X110772926Y-92332567D01*
D33*
X150292000Y-66472000D02*
X150292000Y-69012000D01*
D34*
X137084000Y-60884000D02*
X136068000Y-59868000D01*
D35*
X144704000Y-87300000D02*
X142993665Y-85589665D01*
D33*
%TO.N,+3V0*%
X142164000Y-79680000D02*
X143688000Y-81204000D01*
X142672000Y-61900000D02*
X143703464Y-62931464D01*
X135843664Y-81552512D02*
X135843664Y-82045500D01*
D36*
X151340247Y-63899753D02*
X148291846Y-63899753D01*
D33*
X142040156Y-79556156D02*
X142164000Y-79680000D01*
D36*
X151308000Y-61392000D02*
X151816000Y-61900000D01*
D33*
X136302336Y-79556156D02*
X142040156Y-79556156D01*
X136177849Y-63320500D02*
X137598349Y-61900000D01*
X136302336Y-81093840D02*
X135843664Y-81552512D01*
X137598349Y-61900000D02*
X142672000Y-61900000D01*
D36*
X147752000Y-57836000D02*
X151308000Y-61392000D01*
X151816000Y-63424000D02*
X151340247Y-63899753D01*
D33*
X136302336Y-79556156D02*
X136302336Y-81093840D01*
X143688000Y-81204000D02*
X144704000Y-81204000D01*
X143703464Y-62931464D02*
X145196536Y-62931464D01*
D36*
X151816000Y-61900000D02*
X151816000Y-63424000D01*
D37*
%TO.N,/OUT2B*%
X133744000Y-58345000D02*
X138334000Y-53755000D01*
X136068000Y-68420500D02*
X133744000Y-66096500D01*
X133744000Y-66096500D02*
X133744000Y-58345000D01*
D33*
%TO.N,Net-(D2-K)*%
X147617988Y-67082439D02*
X147617988Y-67114012D01*
X147617988Y-67114012D02*
X146228000Y-68504000D01*
X146228000Y-68504000D02*
X138608000Y-68504000D01*
X138608000Y-68504000D02*
X136068000Y-65964000D01*
D37*
%TO.N,/OUT1B*%
X136753000Y-57836000D02*
X140834000Y-53755000D01*
X134544000Y-65610449D02*
X134544000Y-58852000D01*
X134544000Y-58852000D02*
X135560000Y-57836000D01*
X135560000Y-57836000D02*
X136753000Y-57836000D01*
X136431739Y-67498188D02*
X134544000Y-65610449D01*
D33*
%TO.N,Net-(U6-SW)*%
X145527500Y-84444500D02*
X147244000Y-82728000D01*
X147244000Y-82728000D02*
X147244000Y-76632000D01*
X144093665Y-84444500D02*
X145527500Y-84444500D01*
%TO.N,/\u002ABUSY2*%
X133122051Y-95936000D02*
X142164000Y-95936000D01*
X164008000Y-67430314D02*
X158420000Y-61842314D01*
X128448000Y-91261949D02*
X133122051Y-95936000D01*
X164008000Y-74092000D02*
X164008000Y-67430314D01*
X158420000Y-61842314D02*
X158420000Y-49200000D01*
X128448000Y-85776000D02*
X128448000Y-91261949D01*
X142164000Y-95936000D02*
X164008000Y-74092000D01*
X129972000Y-84252000D02*
X128448000Y-85776000D01*
D37*
%TO.N,/2OUT2B*%
X137084000Y-77155817D02*
X136253374Y-77155817D01*
X133020000Y-89760000D02*
X136148000Y-92888000D01*
X136253374Y-77155817D02*
X133020000Y-80389191D01*
X133020000Y-80389191D02*
X133020000Y-89760000D01*
%TO.N,/2OUT1B*%
X136615032Y-78756156D02*
X138739188Y-76632000D01*
X134036000Y-87300000D02*
X134036000Y-80691121D01*
X135560000Y-88824000D02*
X134036000Y-87300000D01*
X135970965Y-78756156D02*
X136615032Y-78756156D01*
X134036000Y-80691121D02*
X135970965Y-78756156D01*
X138739188Y-76632000D02*
X142164000Y-76632000D01*
D33*
%TO.N,Net-(U4-SW)*%
X135578349Y-64421651D02*
X135560000Y-64440000D01*
X135578349Y-61918349D02*
X135578349Y-64421651D01*
%TO.N,Net-(U4-CP)*%
X144704000Y-63932000D02*
X137198668Y-63932000D01*
X137198668Y-63932000D02*
X136125334Y-65005334D01*
%TO.N,Net-(J5-Pin_2)*%
X119812000Y-87808000D02*
X119812000Y-92888000D01*
X118288000Y-74092000D02*
X117272000Y-73076000D01*
X119812000Y-87808000D02*
X117780000Y-85776000D01*
X117780000Y-85776000D02*
X117780000Y-80696000D01*
X117272000Y-73076000D02*
X117272000Y-72060000D01*
%TD*%
%TA.AperFunction,Conductor*%
%TO.N,GND*%
G36*
X155190834Y-83872228D02*
G01*
X155246767Y-83914100D01*
X155271184Y-83979564D01*
X155271500Y-83988410D01*
X155271500Y-88472740D01*
X155251815Y-88539779D01*
X155206519Y-88581794D01*
X155134427Y-88620809D01*
X155134422Y-88620812D01*
X154956761Y-88759092D01*
X154893548Y-88827760D01*
X154833661Y-88863750D01*
X154763823Y-88861649D01*
X154706207Y-88822124D01*
X154686138Y-88787110D01*
X154640889Y-88665796D01*
X154640888Y-88665795D01*
X154553261Y-88548739D01*
X154436204Y-88461111D01*
X154383733Y-88441540D01*
X154299203Y-88410011D01*
X154238654Y-88403500D01*
X154238638Y-88403500D01*
X152441362Y-88403500D01*
X152441345Y-88403500D01*
X152380797Y-88410011D01*
X152380795Y-88410011D01*
X152243795Y-88461111D01*
X152126739Y-88548739D01*
X152039111Y-88665795D01*
X151988011Y-88802795D01*
X151988011Y-88802797D01*
X151981500Y-88863345D01*
X151981500Y-90660654D01*
X151988011Y-90721202D01*
X151988011Y-90721204D01*
X152033373Y-90842820D01*
X152039111Y-90858204D01*
X152126739Y-90975261D01*
X152243796Y-91062889D01*
X152380799Y-91113989D01*
X152408050Y-91116918D01*
X152441345Y-91120499D01*
X152441362Y-91120500D01*
X152607500Y-91120500D01*
X152674539Y-91140185D01*
X152720294Y-91192989D01*
X152731500Y-91244500D01*
X152731500Y-91913500D01*
X152711815Y-91980539D01*
X152659011Y-92026294D01*
X152607500Y-92037500D01*
X152441345Y-92037500D01*
X152380797Y-92044011D01*
X152380795Y-92044011D01*
X152243795Y-92095111D01*
X152126739Y-92182739D01*
X152039111Y-92299795D01*
X151988011Y-92436795D01*
X151988011Y-92436797D01*
X151981500Y-92497345D01*
X151981500Y-93334588D01*
X151961815Y-93401627D01*
X151945181Y-93422269D01*
X151092270Y-94275181D01*
X151030947Y-94308666D01*
X151004589Y-94311500D01*
X149827945Y-94311500D01*
X149819846Y-94310969D01*
X149784000Y-94306250D01*
X149783996Y-94306250D01*
X149747307Y-94311080D01*
X149747282Y-94311082D01*
X149625150Y-94327162D01*
X149625149Y-94327162D01*
X149477123Y-94388476D01*
X149456242Y-94404500D01*
X149383952Y-94459968D01*
X149383887Y-94460019D01*
X149381928Y-94461523D01*
X149381925Y-94461525D01*
X149362906Y-94476119D01*
X149350010Y-94486015D01*
X149327996Y-94514703D01*
X149322645Y-94520805D01*
X147860801Y-95982649D01*
X147854698Y-95988000D01*
X147826013Y-96010012D01*
X147801520Y-96041931D01*
X147728476Y-96137123D01*
X147728474Y-96137125D01*
X147672257Y-96272850D01*
X147667162Y-96285149D01*
X147667161Y-96285150D01*
X147650968Y-96408150D01*
X147650969Y-96408151D01*
X147646250Y-96444000D01*
X147650969Y-96479843D01*
X147651500Y-96487945D01*
X147651500Y-97664589D01*
X147631815Y-97731628D01*
X147615181Y-97752270D01*
X147119259Y-98248191D01*
X147057936Y-98281676D01*
X146988244Y-98276692D01*
X146932311Y-98234820D01*
X146907894Y-98169356D01*
X146918022Y-98110700D01*
X146918859Y-98108792D01*
X146918860Y-98108791D01*
X147009296Y-97902616D01*
X147064564Y-97684368D01*
X147065768Y-97669844D01*
X147083156Y-97460005D01*
X147083156Y-97459994D01*
X147064565Y-97235640D01*
X147064563Y-97235628D01*
X147009296Y-97017385D01*
X146979800Y-96950141D01*
X146918860Y-96811209D01*
X146902706Y-96786484D01*
X146795723Y-96622734D01*
X146795715Y-96622723D01*
X146643243Y-96457097D01*
X146643238Y-96457092D01*
X146523371Y-96363795D01*
X146465576Y-96318811D01*
X146465575Y-96318810D01*
X146465572Y-96318808D01*
X146267580Y-96211661D01*
X146267577Y-96211659D01*
X146267574Y-96211658D01*
X146267571Y-96211657D01*
X146267569Y-96211656D01*
X146054637Y-96138556D01*
X145832569Y-96101500D01*
X145607431Y-96101500D01*
X145385362Y-96138556D01*
X145172430Y-96211656D01*
X145172419Y-96211661D01*
X144974427Y-96318808D01*
X144974422Y-96318812D01*
X144796761Y-96457092D01*
X144796756Y-96457097D01*
X144644284Y-96622723D01*
X144644276Y-96622734D01*
X144550251Y-96766650D01*
X144497105Y-96812007D01*
X144427873Y-96821430D01*
X144364538Y-96791928D01*
X144344868Y-96769951D01*
X144218113Y-96588926D01*
X144218108Y-96588920D01*
X144051082Y-96421894D01*
X143857578Y-96286399D01*
X143643492Y-96186570D01*
X143643486Y-96186567D01*
X143430000Y-96129364D01*
X143430000Y-97024498D01*
X143322315Y-96975320D01*
X143215763Y-96960000D01*
X143144237Y-96960000D01*
X143037685Y-96975320D01*
X142930000Y-97024498D01*
X142930000Y-96081909D01*
X142949685Y-96014870D01*
X142966314Y-95994233D01*
X155059821Y-83900727D01*
X155121142Y-83867244D01*
X155190834Y-83872228D01*
G37*
%TD.AperFunction*%
%TA.AperFunction,Conductor*%
G36*
X142720507Y-97250156D02*
G01*
X142680000Y-97388111D01*
X142680000Y-97531889D01*
X142720507Y-97669844D01*
X142746314Y-97710000D01*
X141073686Y-97710000D01*
X141099493Y-97669844D01*
X141140000Y-97531889D01*
X141140000Y-97388111D01*
X141099493Y-97250156D01*
X141073686Y-97210000D01*
X142746314Y-97210000D01*
X142720507Y-97250156D01*
G37*
%TD.AperFunction*%
%TA.AperFunction,Conductor*%
G36*
X103353703Y-86481445D02*
G01*
X103360181Y-86487477D01*
X109228107Y-92355403D01*
X109261592Y-92416726D01*
X109264426Y-92443084D01*
X109264426Y-94200067D01*
X109244741Y-94267106D01*
X109191937Y-94312861D01*
X109140426Y-94324067D01*
X105909634Y-94324067D01*
X105842595Y-94304382D01*
X105796840Y-94251578D01*
X105786896Y-94182420D01*
X105796078Y-94150257D01*
X105896514Y-93921284D01*
X105957538Y-93680305D01*
X105957540Y-93680297D01*
X105972925Y-93494621D01*
X105972926Y-93494606D01*
X105972926Y-92582567D01*
X104972926Y-92582567D01*
X104972926Y-92082567D01*
X105972926Y-92082567D01*
X105972926Y-91170528D01*
X105972925Y-91170512D01*
X105957540Y-90984836D01*
X105957538Y-90984828D01*
X105896513Y-90743849D01*
X105796658Y-90516199D01*
X105660693Y-90308088D01*
X105492333Y-90125202D01*
X105492323Y-90125193D01*
X105296163Y-89972515D01*
X105296154Y-89972509D01*
X105077540Y-89854202D01*
X105077529Y-89854197D01*
X104842418Y-89773483D01*
X104722926Y-89753543D01*
X104722926Y-90798880D01*
X104682770Y-90773074D01*
X104544815Y-90732567D01*
X104401037Y-90732567D01*
X104263082Y-90773074D01*
X104222926Y-90798880D01*
X104222926Y-89753543D01*
X104222925Y-89753543D01*
X104103433Y-89773483D01*
X103868322Y-89854197D01*
X103868311Y-89854202D01*
X103649697Y-89972509D01*
X103649688Y-89972515D01*
X103453528Y-90125193D01*
X103453524Y-90125197D01*
X103363728Y-90222740D01*
X103303841Y-90258730D01*
X103234003Y-90256629D01*
X103176387Y-90217104D01*
X103149286Y-90152705D01*
X103148500Y-90138773D01*
X103148500Y-86575158D01*
X103168185Y-86508119D01*
X103220989Y-86462364D01*
X103290147Y-86452420D01*
X103353703Y-86481445D01*
G37*
%TD.AperFunction*%
%TA.AperFunction,Conductor*%
G36*
X116990491Y-80216185D02*
G01*
X117036246Y-80268989D01*
X117046190Y-80338147D01*
X117040494Y-80361454D01*
X116986783Y-80514950D01*
X116986781Y-80514958D01*
X116966384Y-80695996D01*
X116966384Y-80696003D01*
X116986781Y-80877041D01*
X116986782Y-80877046D01*
X117046958Y-81049017D01*
X117143886Y-81203277D01*
X117144445Y-81203977D01*
X117144664Y-81204515D01*
X117147594Y-81209177D01*
X117146777Y-81209690D01*
X117170855Y-81268663D01*
X117171500Y-81281293D01*
X117171499Y-85732054D01*
X117170968Y-85740153D01*
X117166250Y-85775999D01*
X117170970Y-85811860D01*
X117175993Y-85850012D01*
X117187161Y-85934849D01*
X117187163Y-85934854D01*
X117248473Y-86082871D01*
X117248473Y-86082872D01*
X117321525Y-86178074D01*
X117321526Y-86178075D01*
X117346012Y-86209986D01*
X117374698Y-86231998D01*
X117380794Y-86237343D01*
X118443448Y-87299996D01*
X119167181Y-88023729D01*
X119200666Y-88085052D01*
X119203500Y-88111410D01*
X119203500Y-90649032D01*
X119183815Y-90716071D01*
X119144514Y-90754622D01*
X119001270Y-90842820D01*
X118827679Y-90995599D01*
X118827674Y-90995604D01*
X118803757Y-91025224D01*
X118746326Y-91065015D01*
X118676498Y-91067440D01*
X118616444Y-91031728D01*
X118601747Y-91012423D01*
X118511030Y-90865348D01*
X118385652Y-90739970D01*
X118238219Y-90649032D01*
X118234740Y-90646886D01*
X118234735Y-90646884D01*
X118066427Y-90591113D01*
X117962545Y-90580500D01*
X116661462Y-90580500D01*
X116661446Y-90580501D01*
X116557572Y-90591113D01*
X116389264Y-90646884D01*
X116389259Y-90646886D01*
X116238346Y-90739971D01*
X116112971Y-90865346D01*
X116019886Y-91016259D01*
X116019884Y-91016264D01*
X115964113Y-91184572D01*
X115953500Y-91288447D01*
X115953500Y-92739537D01*
X115953501Y-92739553D01*
X115964113Y-92843427D01*
X116019884Y-93011735D01*
X116019886Y-93011740D01*
X116025544Y-93020913D01*
X116112970Y-93162652D01*
X116238348Y-93288030D01*
X116389262Y-93381115D01*
X116557574Y-93436887D01*
X116661455Y-93447500D01*
X117962544Y-93447499D01*
X118066426Y-93436887D01*
X118234738Y-93381115D01*
X118385652Y-93288030D01*
X118511030Y-93162652D01*
X118602417Y-93014489D01*
X118654363Y-92967768D01*
X118723326Y-92956545D01*
X118787408Y-92984389D01*
X118797468Y-92993780D01*
X118911228Y-93112476D01*
X119097153Y-93249985D01*
X119303643Y-93354095D01*
X119391873Y-93381115D01*
X119477898Y-93407460D01*
X119503586Y-93418637D01*
X119505122Y-93419524D01*
X119572664Y-93447500D01*
X119653150Y-93480838D01*
X119732574Y-93491294D01*
X119811999Y-93501751D01*
X119812000Y-93501751D01*
X119812001Y-93501751D01*
X119866272Y-93494606D01*
X119970850Y-93480838D01*
X120076957Y-93436887D01*
X120118864Y-93419529D01*
X120118866Y-93419527D01*
X120118875Y-93419524D01*
X120118882Y-93419518D01*
X120121266Y-93418142D01*
X120157153Y-93404305D01*
X120211238Y-93392649D01*
X120425813Y-93306426D01*
X120622730Y-93185179D01*
X120796324Y-93032398D01*
X120941600Y-92852476D01*
X120959199Y-92820971D01*
X121009079Y-92772044D01*
X121077492Y-92757851D01*
X121142718Y-92782898D01*
X121169029Y-92810321D01*
X121273886Y-92960073D01*
X121273891Y-92960079D01*
X121440917Y-93127105D01*
X121634421Y-93262600D01*
X121848507Y-93362429D01*
X121848516Y-93362433D01*
X122062000Y-93419634D01*
X122062000Y-92363607D01*
X122179031Y-92423238D01*
X122278549Y-92439000D01*
X122345451Y-92439000D01*
X122444969Y-92423238D01*
X122562000Y-92363607D01*
X122562000Y-93419633D01*
X122775483Y-93362433D01*
X122775492Y-93362429D01*
X122989577Y-93262600D01*
X122989579Y-93262599D01*
X123183073Y-93127113D01*
X123183079Y-93127108D01*
X123350108Y-92960079D01*
X123350113Y-92960073D01*
X123485599Y-92766579D01*
X123485602Y-92766573D01*
X123539118Y-92651809D01*
X123585290Y-92599369D01*
X123652483Y-92580217D01*
X123719365Y-92600433D01*
X123764699Y-92653598D01*
X123775500Y-92704213D01*
X123775500Y-93092588D01*
X123755815Y-93159627D01*
X123739181Y-93180269D01*
X122631703Y-94287748D01*
X122570380Y-94321233D01*
X122544022Y-94324067D01*
X112405426Y-94324067D01*
X112338387Y-94304382D01*
X112292632Y-94251578D01*
X112281426Y-94200067D01*
X112281426Y-89983929D01*
X112281425Y-89983912D01*
X112276816Y-89941047D01*
X112274915Y-89923366D01*
X112264574Y-89895642D01*
X112247960Y-89851097D01*
X112223815Y-89786363D01*
X112136187Y-89669306D01*
X112065847Y-89616650D01*
X112019132Y-89581679D01*
X112019130Y-89581678D01*
X111962089Y-89560402D01*
X111906157Y-89518532D01*
X111881741Y-89453067D01*
X111881425Y-89444249D01*
X111881425Y-84625955D01*
X111901110Y-84558917D01*
X111917744Y-84538275D01*
X112977696Y-83478324D01*
X115091621Y-81364399D01*
X116223202Y-80232819D01*
X116284525Y-80199334D01*
X116310883Y-80196500D01*
X116923452Y-80196500D01*
X116990491Y-80216185D01*
G37*
%TD.AperFunction*%
%TA.AperFunction,Conductor*%
G36*
X157920231Y-72180185D02*
G01*
X157965986Y-72232989D01*
X157975930Y-72302147D01*
X157946905Y-72365703D01*
X157938992Y-72374023D01*
X157860528Y-72449223D01*
X157860525Y-72449227D01*
X157860524Y-72449228D01*
X157847736Y-72466519D01*
X157723013Y-72635155D01*
X157618905Y-72841641D01*
X157551188Y-73062759D01*
X157521816Y-73292135D01*
X157531630Y-73523172D01*
X157531630Y-73523178D01*
X157580351Y-73749240D01*
X157666572Y-73963809D01*
X157666574Y-73963813D01*
X157787821Y-74160730D01*
X157940599Y-74334321D01*
X157940600Y-74334322D01*
X157970222Y-74358240D01*
X158010014Y-74415671D01*
X158012440Y-74485499D01*
X157976730Y-74545553D01*
X157957419Y-74560254D01*
X157810351Y-74650967D01*
X157810347Y-74650970D01*
X157684971Y-74776346D01*
X157591886Y-74927259D01*
X157591884Y-74927264D01*
X157536113Y-75095572D01*
X157525500Y-75199447D01*
X157525500Y-76500537D01*
X157525501Y-76500553D01*
X157536113Y-76604427D01*
X157591884Y-76772735D01*
X157591886Y-76772740D01*
X157598465Y-76783406D01*
X157684970Y-76923652D01*
X157810348Y-77049030D01*
X157961262Y-77142115D01*
X158129574Y-77197887D01*
X158233455Y-77208500D01*
X158643406Y-77208499D01*
X158710444Y-77228183D01*
X158756199Y-77280987D01*
X158766143Y-77350146D01*
X158737118Y-77413702D01*
X158731086Y-77420180D01*
X155262578Y-80888688D01*
X155201255Y-80922173D01*
X155131563Y-80917189D01*
X155075630Y-80875317D01*
X155051213Y-80809853D01*
X155051368Y-80790207D01*
X155059611Y-80696000D01*
X155041204Y-80485606D01*
X154986542Y-80281605D01*
X154897286Y-80090195D01*
X154836717Y-80003692D01*
X154776149Y-79917192D01*
X154741277Y-79882320D01*
X154626809Y-79767852D01*
X154626805Y-79767849D01*
X154626804Y-79767848D01*
X154453810Y-79646716D01*
X154453806Y-79646714D01*
X154408016Y-79625362D01*
X154262395Y-79557458D01*
X154262391Y-79557457D01*
X154262387Y-79557455D01*
X154058399Y-79502797D01*
X154058395Y-79502796D01*
X154058394Y-79502796D01*
X154058393Y-79502795D01*
X154058388Y-79502795D01*
X153848002Y-79484389D01*
X153847998Y-79484389D01*
X153637611Y-79502795D01*
X153637600Y-79502797D01*
X153433612Y-79557455D01*
X153433603Y-79557459D01*
X153242196Y-79646713D01*
X153242194Y-79646714D01*
X153069188Y-79767853D01*
X152919853Y-79917188D01*
X152798714Y-80090194D01*
X152798713Y-80090196D01*
X152709459Y-80281603D01*
X152709455Y-80281612D01*
X152654797Y-80485600D01*
X152654795Y-80485611D01*
X152636389Y-80695998D01*
X152636389Y-80696001D01*
X152654795Y-80906388D01*
X152654797Y-80906399D01*
X152709455Y-81110387D01*
X152709457Y-81110391D01*
X152709458Y-81110395D01*
X152775813Y-81252694D01*
X152798714Y-81301806D01*
X152798716Y-81301810D01*
X152919848Y-81474804D01*
X152919853Y-81474810D01*
X153069189Y-81624146D01*
X153069195Y-81624151D01*
X153242189Y-81745283D01*
X153242191Y-81745284D01*
X153242194Y-81745286D01*
X153433605Y-81834542D01*
X153433611Y-81834543D01*
X153433612Y-81834544D01*
X153454392Y-81840112D01*
X153637606Y-81889204D01*
X153787887Y-81902351D01*
X153847998Y-81907611D01*
X153848000Y-81907611D01*
X153848001Y-81907611D01*
X153858524Y-81906690D01*
X153942201Y-81899369D01*
X154010699Y-81913135D01*
X154060882Y-81961750D01*
X154076816Y-82029779D01*
X154053441Y-82095622D01*
X154040688Y-82110578D01*
X152722578Y-83428688D01*
X152661255Y-83462173D01*
X152591563Y-83457189D01*
X152535630Y-83415317D01*
X152511213Y-83349853D01*
X152511368Y-83330207D01*
X152519611Y-83236000D01*
X152517235Y-83208847D01*
X152506451Y-83085580D01*
X152501204Y-83025606D01*
X152456593Y-82859116D01*
X152446544Y-82821612D01*
X152446543Y-82821611D01*
X152446542Y-82821605D01*
X152357286Y-82630195D01*
X152274661Y-82512193D01*
X152236149Y-82457192D01*
X152166375Y-82387418D01*
X152086809Y-82307852D01*
X152086805Y-82307849D01*
X152086804Y-82307848D01*
X151913810Y-82186716D01*
X151913806Y-82186714D01*
X151913806Y-82186713D01*
X151722395Y-82097458D01*
X151722391Y-82097457D01*
X151722387Y-82097455D01*
X151518399Y-82042797D01*
X151518395Y-82042796D01*
X151518394Y-82042796D01*
X151518393Y-82042795D01*
X151518388Y-82042795D01*
X151308002Y-82024389D01*
X151307998Y-82024389D01*
X151097611Y-82042795D01*
X151097600Y-82042797D01*
X150893612Y-82097455D01*
X150893603Y-82097459D01*
X150702196Y-82186713D01*
X150702194Y-82186714D01*
X150529188Y-82307853D01*
X150379853Y-82457188D01*
X150258714Y-82630194D01*
X150258713Y-82630196D01*
X150169459Y-82821603D01*
X150169455Y-82821612D01*
X150114797Y-83025600D01*
X150114795Y-83025611D01*
X150096389Y-83235998D01*
X150096389Y-83236001D01*
X150114795Y-83446388D01*
X150114797Y-83446399D01*
X150169455Y-83650387D01*
X150169457Y-83650391D01*
X150169458Y-83650395D01*
X150236873Y-83794967D01*
X150258714Y-83841806D01*
X150258716Y-83841810D01*
X150379848Y-84014804D01*
X150379853Y-84014810D01*
X150529189Y-84164146D01*
X150529195Y-84164151D01*
X150702189Y-84285283D01*
X150702191Y-84285284D01*
X150702194Y-84285286D01*
X150893605Y-84374542D01*
X151097606Y-84429204D01*
X151247887Y-84442351D01*
X151307998Y-84447611D01*
X151308000Y-84447611D01*
X151308001Y-84447611D01*
X151318524Y-84446690D01*
X151402201Y-84439369D01*
X151470699Y-84453135D01*
X151520882Y-84501750D01*
X151536816Y-84569779D01*
X151513441Y-84635622D01*
X151500688Y-84650578D01*
X142718180Y-93433086D01*
X142656857Y-93466571D01*
X142587165Y-93461587D01*
X142531232Y-93419715D01*
X142506815Y-93354251D01*
X142506499Y-93345405D01*
X142506499Y-92112462D01*
X142506498Y-92112446D01*
X142505915Y-92106740D01*
X142495887Y-92008574D01*
X142440115Y-91840262D01*
X142347030Y-91689348D01*
X142221652Y-91563970D01*
X142114544Y-91497905D01*
X142070740Y-91470886D01*
X142070735Y-91470884D01*
X141902427Y-91415113D01*
X141798545Y-91404500D01*
X140497462Y-91404500D01*
X140497446Y-91404501D01*
X140393572Y-91415113D01*
X140225264Y-91470884D01*
X140225259Y-91470886D01*
X140074346Y-91563971D01*
X139948970Y-91689347D01*
X139948967Y-91689351D01*
X139857583Y-91837507D01*
X139805635Y-91884232D01*
X139736672Y-91895453D01*
X139672591Y-91867610D01*
X139662531Y-91858218D01*
X139548772Y-91739524D01*
X139362847Y-91602015D01*
X139362846Y-91602014D01*
X139362844Y-91602013D01*
X139156358Y-91497905D01*
X138964474Y-91439141D01*
X138935243Y-91430189D01*
X138935241Y-91430188D01*
X138935242Y-91430188D01*
X138705859Y-91400815D01*
X138474827Y-91410630D01*
X138474821Y-91410630D01*
X138248759Y-91459351D01*
X138034190Y-91545572D01*
X137837270Y-91666820D01*
X137663679Y-91819599D01*
X137663672Y-91819605D01*
X137518404Y-91999517D01*
X137518397Y-91999527D01*
X137504968Y-92023567D01*
X137455089Y-92072493D01*
X137386675Y-92086685D01*
X137321450Y-92061637D01*
X137293980Y-92032529D01*
X137208790Y-91906487D01*
X137208788Y-91906485D01*
X137208783Y-91906477D01*
X137048772Y-91739524D01*
X136862847Y-91602015D01*
X136862846Y-91602014D01*
X136862844Y-91602013D01*
X136656358Y-91497905D01*
X136464474Y-91439141D01*
X136435243Y-91430189D01*
X136435241Y-91430188D01*
X136435242Y-91430188D01*
X136205859Y-91400815D01*
X135974825Y-91410630D01*
X135974821Y-91410630D01*
X135908570Y-91424909D01*
X135838888Y-91419790D01*
X135794765Y-91391373D01*
X134833464Y-90430072D01*
X133864819Y-89461426D01*
X133831334Y-89400103D01*
X133828500Y-89373745D01*
X133828500Y-88535253D01*
X133848185Y-88468214D01*
X133900989Y-88422459D01*
X133970147Y-88412515D01*
X134033703Y-88441540D01*
X134040181Y-88447572D01*
X134529450Y-88936841D01*
X134562935Y-88998164D01*
X134565171Y-89012363D01*
X134566090Y-89021693D01*
X134566091Y-89021697D01*
X134566091Y-89021699D01*
X134566092Y-89021701D01*
X134585118Y-89084420D01*
X134623760Y-89211808D01*
X134717401Y-89386998D01*
X134717405Y-89387005D01*
X134843431Y-89540568D01*
X134996994Y-89666594D01*
X134997001Y-89666598D01*
X135172191Y-89760239D01*
X135172193Y-89760239D01*
X135172196Y-89760241D01*
X135362299Y-89817908D01*
X135362298Y-89817908D01*
X135380024Y-89819653D01*
X135560000Y-89837380D01*
X135757701Y-89817908D01*
X135947804Y-89760241D01*
X136123004Y-89666595D01*
X136276568Y-89540568D01*
X136402595Y-89387004D01*
X136496241Y-89211804D01*
X136553908Y-89021701D01*
X136573380Y-88824000D01*
X136553908Y-88626299D01*
X136496241Y-88436196D01*
X136496239Y-88436193D01*
X136496239Y-88436191D01*
X136402598Y-88261001D01*
X136402594Y-88260994D01*
X136276568Y-88107431D01*
X136123005Y-87981405D01*
X136122998Y-87981401D01*
X135947808Y-87887760D01*
X135803032Y-87843843D01*
X135757701Y-87830092D01*
X135757699Y-87830091D01*
X135757697Y-87830091D01*
X135757693Y-87830090D01*
X135748363Y-87829171D01*
X135683577Y-87803008D01*
X135672841Y-87793450D01*
X134880819Y-87001427D01*
X134847334Y-86940104D01*
X134844500Y-86913746D01*
X134844500Y-86350871D01*
X134864185Y-86283832D01*
X134916989Y-86238077D01*
X134986147Y-86228133D01*
X135033036Y-86244988D01*
X135073444Y-86269618D01*
X135271794Y-86343599D01*
X135480561Y-86378705D01*
X135692199Y-86373667D01*
X135838293Y-86341886D01*
X135899051Y-86328669D01*
X135899053Y-86328668D01*
X135899059Y-86328667D01*
X136093664Y-86245333D01*
X136268981Y-86126674D01*
X138014836Y-84380819D01*
X138076159Y-84347334D01*
X138102517Y-84344500D01*
X140959148Y-84344500D01*
X141026187Y-84364185D01*
X141046829Y-84380819D01*
X141848847Y-85182837D01*
X141882331Y-85244158D01*
X141885165Y-85270516D01*
X141885165Y-85507138D01*
X141900246Y-85665074D01*
X141959888Y-85868197D01*
X142056894Y-86056361D01*
X142152611Y-86178075D01*
X142187759Y-86222769D01*
X142347742Y-86361396D01*
X142347753Y-86361404D01*
X142469971Y-86431965D01*
X142531083Y-86467248D01*
X142731138Y-86536488D01*
X142932492Y-86565438D01*
X142996047Y-86594463D01*
X143002525Y-86600495D01*
X143905682Y-87503652D01*
X143935042Y-87550378D01*
X143970956Y-87653013D01*
X143970957Y-87653015D01*
X144067889Y-87807281D01*
X144196719Y-87936111D01*
X144350985Y-88033043D01*
X144499619Y-88085052D01*
X144522953Y-88093217D01*
X144522958Y-88093218D01*
X144703996Y-88113616D01*
X144704000Y-88113616D01*
X144704004Y-88113616D01*
X144885041Y-88093218D01*
X144885044Y-88093217D01*
X144885047Y-88093217D01*
X145057015Y-88033043D01*
X145211281Y-87936111D01*
X145340111Y-87807281D01*
X145437043Y-87653015D01*
X145497217Y-87481047D01*
X145509277Y-87374011D01*
X145517616Y-87300003D01*
X145517616Y-87299996D01*
X145497218Y-87118958D01*
X145497217Y-87118953D01*
X145497216Y-87118952D01*
X145437043Y-86946985D01*
X145340111Y-86792719D01*
X145211281Y-86663889D01*
X145057017Y-86566958D01*
X145057013Y-86566956D01*
X144954378Y-86531042D01*
X144907652Y-86501682D01*
X144126718Y-85720748D01*
X144093233Y-85659425D01*
X144092640Y-85609601D01*
X144102165Y-85560184D01*
X144102165Y-85367970D01*
X144121850Y-85300932D01*
X144174654Y-85255177D01*
X144212283Y-85244751D01*
X144274706Y-85237718D01*
X144274709Y-85237717D01*
X144274712Y-85237717D01*
X144446680Y-85177543D01*
X144600946Y-85080611D01*
X144600951Y-85080605D01*
X144601642Y-85080055D01*
X144602180Y-85079835D01*
X144606842Y-85076906D01*
X144607355Y-85077722D01*
X144666328Y-85053645D01*
X144678958Y-85053000D01*
X145483554Y-85053000D01*
X145491651Y-85053530D01*
X145516881Y-85056852D01*
X145527499Y-85058250D01*
X145527500Y-85058250D01*
X145527501Y-85058250D01*
X145563346Y-85053531D01*
X145565461Y-85053252D01*
X145565474Y-85053251D01*
X145567381Y-85053000D01*
X145567385Y-85053000D01*
X145666956Y-85039891D01*
X145666956Y-85039892D01*
X145666960Y-85039890D01*
X145686351Y-85037338D01*
X145834376Y-84976024D01*
X145929572Y-84902977D01*
X145929573Y-84902975D01*
X145937664Y-84896767D01*
X145937671Y-84896761D01*
X145961483Y-84878490D01*
X145961482Y-84878490D01*
X145961487Y-84878487D01*
X145983510Y-84849785D01*
X145988838Y-84843709D01*
X147643202Y-83189345D01*
X147649293Y-83184003D01*
X147677987Y-83161987D01*
X147697318Y-83136792D01*
X147697324Y-83136787D01*
X147702476Y-83130072D01*
X147702478Y-83130071D01*
X147775524Y-83034876D01*
X147836838Y-82886851D01*
X147853032Y-82763843D01*
X147857751Y-82728001D01*
X147857751Y-82727998D01*
X147853032Y-82692151D01*
X147853030Y-82692144D01*
X147852500Y-82684046D01*
X147852500Y-81766637D01*
X147872185Y-81699598D01*
X147924989Y-81653843D01*
X147994147Y-81643899D01*
X148047619Y-81665060D01*
X148162194Y-81745286D01*
X148353605Y-81834542D01*
X148353611Y-81834543D01*
X148353612Y-81834544D01*
X148374392Y-81840112D01*
X148557606Y-81889204D01*
X148707887Y-81902351D01*
X148767998Y-81907611D01*
X148768000Y-81907611D01*
X148768002Y-81907611D01*
X148820598Y-81903009D01*
X148978394Y-81889204D01*
X149182395Y-81834542D01*
X149373806Y-81745286D01*
X149546809Y-81624148D01*
X149696148Y-81474809D01*
X149817286Y-81301806D01*
X149906542Y-81110395D01*
X149961204Y-80906394D01*
X149979611Y-80696000D01*
X149961204Y-80485606D01*
X149906542Y-80281605D01*
X149817286Y-80090195D01*
X149756717Y-80003692D01*
X149696149Y-79917192D01*
X149661277Y-79882320D01*
X149546809Y-79767852D01*
X149546805Y-79767849D01*
X149546804Y-79767848D01*
X149373810Y-79646716D01*
X149373806Y-79646714D01*
X149328016Y-79625362D01*
X149182395Y-79557458D01*
X149182391Y-79557457D01*
X149182387Y-79557455D01*
X148978399Y-79502797D01*
X148978395Y-79502796D01*
X148978394Y-79502796D01*
X148978393Y-79502795D01*
X148978388Y-79502795D01*
X148768002Y-79484389D01*
X148767998Y-79484389D01*
X148557611Y-79502795D01*
X148557600Y-79502797D01*
X148353612Y-79557455D01*
X148353603Y-79557459D01*
X148162196Y-79646713D01*
X148162194Y-79646714D01*
X148047623Y-79726937D01*
X147981416Y-79749265D01*
X147913649Y-79732253D01*
X147865837Y-79681305D01*
X147852500Y-79625362D01*
X147852500Y-77217293D01*
X147872185Y-77150254D01*
X147879555Y-77139977D01*
X147880105Y-77139286D01*
X147880111Y-77139281D01*
X147977043Y-76985015D01*
X148037217Y-76813047D01*
X148040782Y-76781410D01*
X148057616Y-76632003D01*
X148057616Y-76631996D01*
X148037218Y-76450958D01*
X148037217Y-76450953D01*
X148027357Y-76422774D01*
X147977043Y-76278985D01*
X147880111Y-76124719D01*
X147751281Y-75995889D01*
X147646870Y-75930283D01*
X147597017Y-75898958D01*
X147597016Y-75898957D01*
X147597015Y-75898957D01*
X147542693Y-75879949D01*
X147425046Y-75838782D01*
X147425041Y-75838781D01*
X147244004Y-75818384D01*
X147243996Y-75818384D01*
X147062958Y-75838781D01*
X147062953Y-75838782D01*
X146890982Y-75898958D01*
X146736718Y-75995889D01*
X146607889Y-76124718D01*
X146510958Y-76278982D01*
X146450782Y-76450953D01*
X146450781Y-76450958D01*
X146430384Y-76631996D01*
X146430384Y-76632003D01*
X146450781Y-76813041D01*
X146450782Y-76813046D01*
X146471761Y-76873000D01*
X146509637Y-76981244D01*
X146510958Y-76985017D01*
X146607886Y-77139277D01*
X146608445Y-77139977D01*
X146608664Y-77140515D01*
X146611594Y-77145177D01*
X146610777Y-77145690D01*
X146634855Y-77204663D01*
X146635500Y-77217293D01*
X146635500Y-78220480D01*
X146615815Y-78287519D01*
X146563011Y-78333274D01*
X146493853Y-78343218D01*
X146430297Y-78314193D01*
X146423819Y-78308161D01*
X144832819Y-76717162D01*
X144799334Y-76655839D01*
X144796500Y-76629481D01*
X144796500Y-76226906D01*
X144798218Y-76206339D01*
X144798703Y-76203450D01*
X144798705Y-76203439D01*
X144796831Y-76124718D01*
X144796518Y-76111542D01*
X144796500Y-76110067D01*
X144796500Y-76071202D01*
X144796498Y-76071181D01*
X144795454Y-76060249D01*
X144795190Y-76055823D01*
X144794948Y-76045637D01*
X144793667Y-75991801D01*
X144785988Y-75956506D01*
X144784852Y-75949224D01*
X144781419Y-75913261D01*
X144763366Y-75851782D01*
X144762281Y-75847530D01*
X144748667Y-75784941D01*
X144734446Y-75751732D01*
X144731955Y-75744803D01*
X144721777Y-75710138D01*
X144692431Y-75653217D01*
X144690547Y-75649217D01*
X144673226Y-75608768D01*
X144665333Y-75590336D01*
X144657664Y-75579005D01*
X144645086Y-75560421D01*
X144641320Y-75554074D01*
X144624770Y-75521972D01*
X144585176Y-75471623D01*
X144582565Y-75468048D01*
X144577806Y-75461017D01*
X144557201Y-75430572D01*
X144546676Y-75415021D01*
X144546675Y-75415020D01*
X144546674Y-75415019D01*
X144521127Y-75389472D01*
X144516239Y-75383964D01*
X144493908Y-75355568D01*
X144483265Y-75346346D01*
X144445496Y-75313618D01*
X144442257Y-75310602D01*
X142512592Y-73380936D01*
X142499262Y-73365177D01*
X142497558Y-73362784D01*
X142497557Y-73362783D01*
X142431029Y-73299349D01*
X142429974Y-73298318D01*
X142402495Y-73270839D01*
X142402491Y-73270835D01*
X142394000Y-73263824D01*
X142390699Y-73260894D01*
X142344348Y-73216699D01*
X142344346Y-73216697D01*
X142339306Y-73213458D01*
X142313957Y-73197166D01*
X142307998Y-73192815D01*
X142280155Y-73169826D01*
X142280149Y-73169821D01*
X142223936Y-73139126D01*
X142220130Y-73136868D01*
X142166256Y-73102245D01*
X142132724Y-73088820D01*
X142126048Y-73085675D01*
X142094352Y-73068368D01*
X142094350Y-73068367D01*
X142094346Y-73068365D01*
X142074737Y-73062096D01*
X142033347Y-73048865D01*
X142029183Y-73047368D01*
X141969727Y-73023566D01*
X141969721Y-73023564D01*
X141934241Y-73016725D01*
X141927099Y-73014902D01*
X141892700Y-73003905D01*
X141829109Y-72996301D01*
X141824737Y-72995619D01*
X141776554Y-72986334D01*
X141761849Y-72983500D01*
X141761847Y-72983500D01*
X141725724Y-72983500D01*
X141718358Y-72983061D01*
X141682501Y-72978774D01*
X141682500Y-72978774D01*
X141618623Y-72983342D01*
X141614203Y-72983500D01*
X137864462Y-72983500D01*
X137843899Y-72981783D01*
X137842373Y-72981526D01*
X137840997Y-72981295D01*
X137840996Y-72981295D01*
X137837191Y-72981385D01*
X137749101Y-72983482D01*
X137747626Y-72983500D01*
X137708754Y-72983500D01*
X137707396Y-72983629D01*
X137697794Y-72984545D01*
X137693382Y-72984808D01*
X137629358Y-72986333D01*
X137629350Y-72986334D01*
X137610703Y-72990391D01*
X137594055Y-72994012D01*
X137586779Y-72995146D01*
X137564294Y-72997294D01*
X137550815Y-72998581D01*
X137496451Y-73014544D01*
X137491398Y-73016028D01*
X137489368Y-73016624D01*
X137485079Y-73017719D01*
X137422503Y-73031331D01*
X137422490Y-73031335D01*
X137389297Y-73045549D01*
X137382354Y-73048045D01*
X137347694Y-73058223D01*
X137290771Y-73087568D01*
X137286768Y-73089453D01*
X137227896Y-73114664D01*
X137227890Y-73114668D01*
X137197978Y-73134913D01*
X137191635Y-73138677D01*
X137159530Y-73155229D01*
X137159529Y-73155230D01*
X137109183Y-73194821D01*
X137105610Y-73197430D01*
X137052572Y-73233328D01*
X137027029Y-73258871D01*
X137021511Y-73263768D01*
X136993126Y-73286090D01*
X136951175Y-73334502D01*
X136948160Y-73337741D01*
X133843402Y-76442499D01*
X133782079Y-76475984D01*
X133755721Y-76478818D01*
X133691587Y-76478818D01*
X133671024Y-76477101D01*
X133669498Y-76476844D01*
X133668122Y-76476613D01*
X133668121Y-76476613D01*
X133664316Y-76476703D01*
X133576226Y-76478800D01*
X133574751Y-76478818D01*
X133535879Y-76478818D01*
X133534521Y-76478947D01*
X133524919Y-76479863D01*
X133520507Y-76480126D01*
X133456484Y-76481651D01*
X133456476Y-76481652D01*
X133435422Y-76486232D01*
X133421181Y-76489330D01*
X133413906Y-76490464D01*
X133377943Y-76493899D01*
X133374684Y-76494856D01*
X133316477Y-76511945D01*
X133312192Y-76513038D01*
X133249626Y-76526650D01*
X133249612Y-76526654D01*
X133216422Y-76540867D01*
X133209479Y-76543363D01*
X133174819Y-76553541D01*
X133117896Y-76582886D01*
X133113893Y-76584771D01*
X133055021Y-76609982D01*
X133025095Y-76630236D01*
X133018752Y-76633999D01*
X132986657Y-76650546D01*
X132936322Y-76690128D01*
X132932749Y-76692738D01*
X132879697Y-76728646D01*
X132854151Y-76754191D01*
X132848637Y-76759084D01*
X132820250Y-76781410D01*
X132820249Y-76781411D01*
X132778306Y-76829813D01*
X132775291Y-76833052D01*
X132580371Y-77027971D01*
X132519048Y-77061456D01*
X132449356Y-77056472D01*
X132393423Y-77014600D01*
X132375648Y-76981244D01*
X132361041Y-76939500D01*
X132339308Y-76877389D01*
X132242376Y-76723123D01*
X132113546Y-76594293D01*
X132032492Y-76543363D01*
X131959281Y-76497361D01*
X131794725Y-76439781D01*
X131737948Y-76399059D01*
X131723958Y-76376538D01*
X131721044Y-76370488D01*
X131721043Y-76370485D01*
X131624111Y-76216219D01*
X131495281Y-76087389D01*
X131401076Y-76028196D01*
X131341017Y-75990458D01*
X131341016Y-75990457D01*
X131341015Y-75990457D01*
X131280869Y-75969411D01*
X131169046Y-75930282D01*
X131169041Y-75930281D01*
X130988004Y-75909884D01*
X130987996Y-75909884D01*
X130806958Y-75930281D01*
X130806953Y-75930282D01*
X130634982Y-75990458D01*
X130574922Y-76028197D01*
X130513463Y-76066815D01*
X130512382Y-76067494D01*
X130446410Y-76086500D01*
X129682500Y-76086500D01*
X129615461Y-76066815D01*
X129569706Y-76014011D01*
X129558500Y-75962500D01*
X129558500Y-75296362D01*
X129558499Y-75296345D01*
X129553603Y-75250814D01*
X129551989Y-75235799D01*
X129546165Y-75220185D01*
X129500888Y-75098793D01*
X129496637Y-75091008D01*
X129499435Y-75089479D01*
X129480501Y-75038709D01*
X129485523Y-74993879D01*
X129543546Y-74802601D01*
X129563501Y-74600000D01*
X129543546Y-74397399D01*
X129484450Y-74202583D01*
X129388701Y-74023450D01*
X129374460Y-73955050D01*
X129388699Y-73906552D01*
X129484450Y-73727417D01*
X129543546Y-73532601D01*
X129563501Y-73330000D01*
X129543546Y-73127399D01*
X129484450Y-72932583D01*
X129445798Y-72860270D01*
X129388485Y-72753045D01*
X129388483Y-72753043D01*
X129388482Y-72753040D01*
X129344108Y-72698970D01*
X129259331Y-72595668D01*
X129101961Y-72466519D01*
X129101954Y-72466514D01*
X128966024Y-72393858D01*
X128916180Y-72344896D01*
X128900719Y-72276758D01*
X128924551Y-72211079D01*
X128980108Y-72168710D01*
X129024477Y-72160500D01*
X157853192Y-72160500D01*
X157920231Y-72180185D01*
G37*
%TD.AperFunction*%
%TA.AperFunction,Conductor*%
G36*
X130156754Y-81757150D02*
G01*
X130201102Y-81785651D01*
X130526655Y-82111204D01*
X130531996Y-82117294D01*
X130536201Y-82122774D01*
X130554012Y-82145987D01*
X130585923Y-82170474D01*
X130585924Y-82170474D01*
X130635781Y-82208730D01*
X130681123Y-82243523D01*
X130681129Y-82243526D01*
X130742936Y-82269127D01*
X130829150Y-82304838D01*
X130948115Y-82320500D01*
X130948120Y-82320500D01*
X130949905Y-82320735D01*
X130949923Y-82320737D01*
X130973369Y-82323823D01*
X130987999Y-82325750D01*
X130988000Y-82325750D01*
X130988001Y-82325750D01*
X130998472Y-82324371D01*
X131023848Y-82321030D01*
X131031946Y-82320500D01*
X131635207Y-82320500D01*
X131702246Y-82340185D01*
X131712523Y-82347555D01*
X131713222Y-82348113D01*
X131857267Y-82438623D01*
X131867485Y-82445043D01*
X132039453Y-82505217D01*
X132101383Y-82512194D01*
X132165795Y-82539259D01*
X132205351Y-82596853D01*
X132211499Y-82635414D01*
X132211499Y-84847007D01*
X132191814Y-84914046D01*
X132139010Y-84959801D01*
X132073616Y-84970227D01*
X132004004Y-84962384D01*
X132003996Y-84962384D01*
X131822958Y-84982781D01*
X131822953Y-84982782D01*
X131650982Y-85042958D01*
X131496718Y-85139889D01*
X131367889Y-85268718D01*
X131270957Y-85422983D01*
X131210781Y-85594958D01*
X131201200Y-85679992D01*
X131174133Y-85744405D01*
X131165661Y-85753788D01*
X131096801Y-85822649D01*
X131090698Y-85828000D01*
X131062013Y-85850012D01*
X131037520Y-85881931D01*
X130964476Y-85977123D01*
X130964474Y-85977125D01*
X130920673Y-86082874D01*
X130903163Y-86125146D01*
X130903162Y-86125150D01*
X130886968Y-86248150D01*
X130886969Y-86248151D01*
X130882250Y-86284000D01*
X130886969Y-86319843D01*
X130887500Y-86327945D01*
X130887500Y-92541538D01*
X130867815Y-92608577D01*
X130815011Y-92654332D01*
X130745853Y-92664276D01*
X130682297Y-92635251D01*
X130675819Y-92629219D01*
X129092819Y-91046218D01*
X129059334Y-90984895D01*
X129056500Y-90958537D01*
X129056500Y-86079410D01*
X129076185Y-86012371D01*
X129092815Y-85991733D01*
X129994212Y-85090335D01*
X130055533Y-85056852D01*
X130067988Y-85054800D01*
X130153047Y-85045217D01*
X130325015Y-84985043D01*
X130479281Y-84888111D01*
X130608111Y-84759281D01*
X130705043Y-84605015D01*
X130765217Y-84433047D01*
X130765650Y-84429204D01*
X130785616Y-84252003D01*
X130785616Y-84251996D01*
X130765218Y-84070958D01*
X130765217Y-84070953D01*
X130756386Y-84045716D01*
X130705043Y-83898985D01*
X130608111Y-83744719D01*
X130479281Y-83615889D01*
X130370444Y-83547502D01*
X130325017Y-83518958D01*
X130325016Y-83518957D01*
X130325015Y-83518957D01*
X130270693Y-83499949D01*
X130153046Y-83458782D01*
X130153041Y-83458781D01*
X129972004Y-83438384D01*
X129971996Y-83438384D01*
X129790958Y-83458781D01*
X129790953Y-83458782D01*
X129618982Y-83518958D01*
X129464718Y-83615889D01*
X129335889Y-83744718D01*
X129238957Y-83898983D01*
X129178781Y-84070958D01*
X129169200Y-84155992D01*
X129142133Y-84220405D01*
X129133661Y-84229788D01*
X128760181Y-84603269D01*
X128698858Y-84636754D01*
X128629167Y-84631770D01*
X128573233Y-84589899D01*
X128548816Y-84524434D01*
X128548500Y-84515588D01*
X128548500Y-83031410D01*
X128568185Y-82964371D01*
X128584815Y-82943733D01*
X129486212Y-82042335D01*
X129547533Y-82008852D01*
X129559988Y-82006800D01*
X129645047Y-81997217D01*
X129817015Y-81937043D01*
X129971281Y-81840111D01*
X130025743Y-81785648D01*
X130087062Y-81752166D01*
X130156754Y-81757150D01*
G37*
%TD.AperFunction*%
%TA.AperFunction,Conductor*%
G36*
X125822628Y-80216185D02*
G01*
X125868383Y-80268989D01*
X125878327Y-80338147D01*
X125849302Y-80401703D01*
X125843271Y-80408179D01*
X124887051Y-81364399D01*
X123984801Y-82266649D01*
X123978698Y-82272000D01*
X123950013Y-82294012D01*
X123925520Y-82325931D01*
X123852476Y-82421123D01*
X123852475Y-82421125D01*
X123837536Y-82457192D01*
X123798322Y-82551865D01*
X123797943Y-82552781D01*
X123791162Y-82569149D01*
X123791161Y-82569150D01*
X123774968Y-82692150D01*
X123774969Y-82692151D01*
X123770250Y-82728000D01*
X123774409Y-82759595D01*
X123774969Y-82763843D01*
X123775500Y-82771945D01*
X123775500Y-91323786D01*
X123755815Y-91390825D01*
X123703011Y-91436580D01*
X123633853Y-91446524D01*
X123570297Y-91417499D01*
X123539118Y-91376191D01*
X123485600Y-91261422D01*
X123485599Y-91261420D01*
X123350113Y-91067926D01*
X123350108Y-91067920D01*
X123183082Y-90900894D01*
X122989578Y-90765399D01*
X122775492Y-90665570D01*
X122775486Y-90665567D01*
X122562000Y-90608364D01*
X122562000Y-91664392D01*
X122444969Y-91604762D01*
X122345451Y-91589000D01*
X122278549Y-91589000D01*
X122179031Y-91604762D01*
X122062000Y-91664392D01*
X122062000Y-90608364D01*
X122061999Y-90608364D01*
X121848513Y-90665567D01*
X121848507Y-90665570D01*
X121634422Y-90765399D01*
X121634420Y-90765400D01*
X121440926Y-90900886D01*
X121440920Y-90900891D01*
X121273891Y-91067920D01*
X121273890Y-91067922D01*
X121168166Y-91218911D01*
X121113589Y-91262536D01*
X121044090Y-91269728D01*
X120981736Y-91238206D01*
X120963856Y-91217224D01*
X120872790Y-91082486D01*
X120872786Y-91082481D01*
X120872783Y-91082477D01*
X120712772Y-90915524D01*
X120526847Y-90778015D01*
X120526846Y-90778014D01*
X120526844Y-90778013D01*
X120506138Y-90767574D01*
X120488673Y-90758768D01*
X120437675Y-90711011D01*
X120420500Y-90648049D01*
X120420499Y-87851945D01*
X120421031Y-87843843D01*
X120422842Y-87830092D01*
X120425750Y-87808000D01*
X120420766Y-87770148D01*
X120420765Y-87770129D01*
X120420500Y-87768115D01*
X120404838Y-87649150D01*
X120344293Y-87502982D01*
X120343661Y-87501302D01*
X120270477Y-87405929D01*
X120245985Y-87374011D01*
X120232925Y-87363990D01*
X120217289Y-87351992D01*
X120211199Y-87346651D01*
X118424818Y-85560270D01*
X118391333Y-85498947D01*
X118388499Y-85472589D01*
X118388499Y-83377433D01*
X118388499Y-81281289D01*
X118408184Y-81214254D01*
X118415562Y-81203968D01*
X118416101Y-81203290D01*
X118416111Y-81203281D01*
X118513043Y-81049015D01*
X118573217Y-80877047D01*
X118574408Y-80866476D01*
X118593616Y-80696003D01*
X118593616Y-80695996D01*
X118573218Y-80514958D01*
X118573216Y-80514950D01*
X118519506Y-80361454D01*
X118515945Y-80291676D01*
X118550674Y-80231048D01*
X118612667Y-80198821D01*
X118636548Y-80196500D01*
X125755589Y-80196500D01*
X125822628Y-80216185D01*
G37*
%TD.AperFunction*%
%TA.AperFunction,Conductor*%
G36*
X108706071Y-82026185D02*
G01*
X108744622Y-82065486D01*
X108823052Y-82192865D01*
X108832821Y-82208730D01*
X108985602Y-82382324D01*
X108985605Y-82382327D01*
X109165517Y-82527595D01*
X109165523Y-82527600D01*
X109358519Y-82635414D01*
X109367409Y-82640380D01*
X109585450Y-82717419D01*
X109585456Y-82717420D01*
X109813365Y-82756499D01*
X109813373Y-82756499D01*
X109813375Y-82756500D01*
X109813376Y-82756500D01*
X110236713Y-82756500D01*
X110236725Y-82756499D01*
X110256454Y-82754820D01*
X110324922Y-82768747D01*
X110374991Y-82817480D01*
X110390764Y-82885546D01*
X110367235Y-82951334D01*
X110354653Y-82966054D01*
X110061861Y-83258846D01*
X110046120Y-83272163D01*
X110043715Y-83273875D01*
X110043711Y-83273878D01*
X109980317Y-83340365D01*
X109979288Y-83341418D01*
X109951758Y-83368951D01*
X109944754Y-83377433D01*
X109941821Y-83380738D01*
X109897623Y-83427092D01*
X109897619Y-83427097D01*
X109878095Y-83457478D01*
X109873749Y-83463429D01*
X109853424Y-83488048D01*
X109850743Y-83491295D01*
X109820050Y-83547502D01*
X109817793Y-83551307D01*
X109783171Y-83605181D01*
X109783169Y-83605184D01*
X109769742Y-83638721D01*
X109766599Y-83645393D01*
X109749294Y-83677085D01*
X109749289Y-83677096D01*
X109729789Y-83738094D01*
X109728293Y-83742258D01*
X109704489Y-83801719D01*
X109697652Y-83837191D01*
X109695827Y-83844341D01*
X109684832Y-83878736D01*
X109677228Y-83942319D01*
X109676547Y-83946690D01*
X109664425Y-84009590D01*
X109664425Y-84045716D01*
X109663986Y-84053080D01*
X109659700Y-84088939D01*
X109659700Y-84088941D01*
X109664267Y-84152810D01*
X109664425Y-84157233D01*
X109664425Y-89357049D01*
X109644740Y-89424088D01*
X109591936Y-89469843D01*
X109522778Y-89479787D01*
X109459222Y-89450762D01*
X109452744Y-89444730D01*
X107360011Y-87351997D01*
X105208819Y-85200804D01*
X105175334Y-85139481D01*
X105172500Y-85113123D01*
X105172500Y-83208318D01*
X105192185Y-83141279D01*
X105244989Y-83095524D01*
X105314147Y-83085580D01*
X105377703Y-83114605D01*
X105401493Y-83142345D01*
X105459889Y-83235281D01*
X105588719Y-83364111D01*
X105742985Y-83461043D01*
X105878673Y-83508522D01*
X105914953Y-83521217D01*
X105914958Y-83521218D01*
X106095996Y-83541616D01*
X106096000Y-83541616D01*
X106096004Y-83541616D01*
X106277041Y-83521218D01*
X106277044Y-83521217D01*
X106277047Y-83521217D01*
X106449015Y-83461043D01*
X106603281Y-83364111D01*
X106732111Y-83235281D01*
X106829043Y-83081015D01*
X106889217Y-82909047D01*
X106898798Y-82824005D01*
X106925863Y-82759595D01*
X106934327Y-82750220D01*
X107641729Y-82042819D01*
X107703053Y-82009334D01*
X107729411Y-82006500D01*
X108639032Y-82006500D01*
X108706071Y-82026185D01*
G37*
%TD.AperFunction*%
%TA.AperFunction,Conductor*%
G36*
X141803784Y-80184341D02*
G01*
X141824426Y-80200975D01*
X143226655Y-81603204D01*
X143231996Y-81609294D01*
X143254013Y-81637987D01*
X143261718Y-81643899D01*
X143283693Y-81660762D01*
X143285927Y-81662476D01*
X143285928Y-81662477D01*
X143341182Y-81704874D01*
X143341183Y-81704876D01*
X143365067Y-81723202D01*
X143381125Y-81735524D01*
X143381127Y-81735524D01*
X143381129Y-81735526D01*
X143433335Y-81757150D01*
X143529150Y-81796838D01*
X143648115Y-81812500D01*
X143648120Y-81812500D01*
X143649905Y-81812735D01*
X143649923Y-81812737D01*
X143673369Y-81815823D01*
X143687999Y-81817750D01*
X143688000Y-81817750D01*
X143688001Y-81817750D01*
X143698472Y-81816371D01*
X143723848Y-81813030D01*
X143731946Y-81812500D01*
X144118707Y-81812500D01*
X144185746Y-81832185D01*
X144196023Y-81839555D01*
X144196722Y-81840113D01*
X144350984Y-81937043D01*
X144350988Y-81937044D01*
X144516497Y-81994959D01*
X144573273Y-82035680D01*
X144599020Y-82100633D01*
X144585564Y-82169195D01*
X144537176Y-82219597D01*
X144475542Y-82236000D01*
X143740935Y-82236000D01*
X143720372Y-82234283D01*
X143718846Y-82234026D01*
X143717470Y-82233795D01*
X143717469Y-82233795D01*
X143713664Y-82233885D01*
X143625574Y-82235982D01*
X143624099Y-82236000D01*
X143585227Y-82236000D01*
X143583869Y-82236129D01*
X143574267Y-82237045D01*
X143569855Y-82237308D01*
X143505832Y-82238833D01*
X143505824Y-82238834D01*
X143484770Y-82243414D01*
X143470529Y-82246512D01*
X143463254Y-82247646D01*
X143427291Y-82251081D01*
X143415961Y-82254407D01*
X143365825Y-82269127D01*
X143361540Y-82270220D01*
X143298974Y-82283832D01*
X143298960Y-82283836D01*
X143265770Y-82298049D01*
X143258827Y-82300545D01*
X143224167Y-82310723D01*
X143167244Y-82340068D01*
X143163241Y-82341953D01*
X143104369Y-82367164D01*
X143074443Y-82387418D01*
X143068100Y-82391181D01*
X143036005Y-82407728D01*
X142985670Y-82447310D01*
X142982097Y-82449919D01*
X142971355Y-82457191D01*
X142929045Y-82485828D01*
X142903499Y-82511373D01*
X142897985Y-82516266D01*
X142883575Y-82527600D01*
X142869597Y-82538593D01*
X142827654Y-82586995D01*
X142824639Y-82590233D01*
X142784679Y-82630194D01*
X142695776Y-82719096D01*
X142634456Y-82752580D01*
X142564764Y-82747596D01*
X142520416Y-82719095D01*
X142326257Y-82524936D01*
X142312927Y-82509177D01*
X142311223Y-82506784D01*
X142311222Y-82506783D01*
X142244694Y-82443349D01*
X142243639Y-82442318D01*
X142216160Y-82414839D01*
X142216156Y-82414835D01*
X142207665Y-82407824D01*
X142204364Y-82404894D01*
X142158013Y-82360699D01*
X142158011Y-82360697D01*
X142152971Y-82357458D01*
X142127622Y-82341166D01*
X142121663Y-82336815D01*
X142093820Y-82313826D01*
X142093814Y-82313821D01*
X142037601Y-82283126D01*
X142033795Y-82280868D01*
X141979921Y-82246245D01*
X141946389Y-82232820D01*
X141939713Y-82229675D01*
X141908017Y-82212368D01*
X141908015Y-82212367D01*
X141908011Y-82212365D01*
X141888402Y-82206096D01*
X141847012Y-82192865D01*
X141842848Y-82191368D01*
X141783392Y-82167566D01*
X141783386Y-82167564D01*
X141747906Y-82160725D01*
X141740764Y-82158902D01*
X141706365Y-82147905D01*
X141642774Y-82140301D01*
X141638402Y-82139619D01*
X141590219Y-82130334D01*
X141575514Y-82127500D01*
X141575512Y-82127500D01*
X141539389Y-82127500D01*
X141532023Y-82127061D01*
X141496166Y-82122774D01*
X141496165Y-82122774D01*
X141432288Y-82127342D01*
X141427868Y-82127500D01*
X137694905Y-82127500D01*
X137674342Y-82125783D01*
X137672816Y-82125526D01*
X137671440Y-82125295D01*
X137671439Y-82125295D01*
X137667634Y-82125385D01*
X137579544Y-82127482D01*
X137578069Y-82127500D01*
X137539197Y-82127500D01*
X137537839Y-82127629D01*
X137528237Y-82128545D01*
X137523825Y-82128808D01*
X137459801Y-82130333D01*
X137459793Y-82130334D01*
X137438739Y-82134914D01*
X137424498Y-82138012D01*
X137417222Y-82139146D01*
X137394737Y-82141294D01*
X137381258Y-82142581D01*
X137326894Y-82158544D01*
X137321841Y-82160028D01*
X137319811Y-82160624D01*
X137315522Y-82161719D01*
X137252946Y-82175331D01*
X137252933Y-82175335D01*
X137219740Y-82189549D01*
X137212797Y-82192045D01*
X137178137Y-82202223D01*
X137121214Y-82231568D01*
X137117211Y-82233453D01*
X137058339Y-82258664D01*
X137058333Y-82258668D01*
X137028421Y-82278913D01*
X137022078Y-82282677D01*
X136989973Y-82299229D01*
X136989972Y-82299230D01*
X136939626Y-82338821D01*
X136936053Y-82341430D01*
X136883015Y-82377328D01*
X136857472Y-82402871D01*
X136851954Y-82407768D01*
X136823570Y-82430089D01*
X136816163Y-82438637D01*
X136757382Y-82476407D01*
X136687512Y-82476402D01*
X136628737Y-82438623D01*
X136599717Y-82375065D01*
X136605415Y-82316471D01*
X136606343Y-82313821D01*
X136622849Y-82266649D01*
X136636880Y-82226551D01*
X136636882Y-82226541D01*
X136657280Y-82045503D01*
X136657280Y-82045496D01*
X136636882Y-81864458D01*
X136636881Y-81864453D01*
X136626414Y-81834540D01*
X136599207Y-81756789D01*
X136595647Y-81687011D01*
X136628567Y-81628156D01*
X136701538Y-81555185D01*
X136707629Y-81549843D01*
X136736323Y-81527827D01*
X136754603Y-81504004D01*
X136760811Y-81495913D01*
X136760813Y-81495912D01*
X136833860Y-81400716D01*
X136895174Y-81252691D01*
X136899691Y-81218382D01*
X136910836Y-81133725D01*
X136910836Y-81133719D01*
X136916086Y-81093840D01*
X136911366Y-81057991D01*
X136910836Y-81049894D01*
X136910836Y-80288656D01*
X136930521Y-80221617D01*
X136983325Y-80175862D01*
X137034836Y-80164656D01*
X141736745Y-80164656D01*
X141803784Y-80184341D01*
G37*
%TD.AperFunction*%
%TA.AperFunction,Conductor*%
G36*
X105337455Y-74860899D02*
G01*
X105406945Y-74885215D01*
X105406951Y-74885216D01*
X105406953Y-74885217D01*
X105406954Y-74885217D01*
X105406958Y-74885218D01*
X105594919Y-74906396D01*
X105594620Y-74909048D01*
X105649970Y-74925301D01*
X105695725Y-74978105D01*
X105706151Y-75043499D01*
X105698884Y-75107996D01*
X105698884Y-75108003D01*
X105719281Y-75289041D01*
X105719282Y-75289046D01*
X105742560Y-75355569D01*
X105779457Y-75461015D01*
X105876389Y-75615281D01*
X106005219Y-75744111D01*
X106159485Y-75841043D01*
X106307696Y-75892904D01*
X106331453Y-75901217D01*
X106331458Y-75901218D01*
X106512496Y-75921616D01*
X106512500Y-75921616D01*
X106512504Y-75921616D01*
X106693541Y-75901218D01*
X106693544Y-75901217D01*
X106693547Y-75901217D01*
X106865515Y-75841043D01*
X107019781Y-75744111D01*
X107019786Y-75744105D01*
X107020477Y-75743555D01*
X107021015Y-75743335D01*
X107025677Y-75740406D01*
X107026190Y-75741222D01*
X107085163Y-75717145D01*
X107097793Y-75716500D01*
X108562587Y-75716500D01*
X108629626Y-75736185D01*
X108675381Y-75788989D01*
X108685325Y-75858147D01*
X108674970Y-75892904D01*
X108655568Y-75934511D01*
X108655567Y-75934513D01*
X108598364Y-76147999D01*
X108598364Y-76148000D01*
X109650031Y-76148000D01*
X109617481Y-76198649D01*
X109579000Y-76329705D01*
X109579000Y-76466295D01*
X109617481Y-76597351D01*
X109650031Y-76648000D01*
X108598364Y-76648000D01*
X108634646Y-76783406D01*
X108632983Y-76853256D01*
X108593821Y-76911119D01*
X108529592Y-76938623D01*
X108514871Y-76939500D01*
X107672688Y-76939500D01*
X107606716Y-76920494D01*
X107465017Y-76831458D01*
X107465016Y-76831457D01*
X107465015Y-76831457D01*
X107410693Y-76812449D01*
X107293046Y-76771282D01*
X107293041Y-76771281D01*
X107112004Y-76750884D01*
X107111996Y-76750884D01*
X106930958Y-76771281D01*
X106930953Y-76771282D01*
X106758982Y-76831458D01*
X106604718Y-76928389D01*
X106475889Y-77057218D01*
X106378958Y-77211482D01*
X106318782Y-77383453D01*
X106318781Y-77383458D01*
X106298384Y-77564496D01*
X106298384Y-77564503D01*
X106318781Y-77745541D01*
X106318782Y-77745546D01*
X106378958Y-77917517D01*
X106427178Y-77994258D01*
X106475889Y-78071781D01*
X106604719Y-78200611D01*
X106758985Y-78297543D01*
X106930952Y-78357716D01*
X106930953Y-78357717D01*
X106930958Y-78357718D01*
X107111996Y-78378116D01*
X107112000Y-78378116D01*
X107112004Y-78378116D01*
X107293041Y-78357718D01*
X107293044Y-78357717D01*
X107293047Y-78357717D01*
X107465015Y-78297543D01*
X107619281Y-78200611D01*
X107627072Y-78192819D01*
X107688396Y-78159334D01*
X107714754Y-78156500D01*
X108580064Y-78156500D01*
X108647103Y-78176185D01*
X108692858Y-78228989D01*
X108702802Y-78298147D01*
X108690787Y-78336324D01*
X108663907Y-78389637D01*
X108663906Y-78389640D01*
X108596188Y-78610759D01*
X108566816Y-78840135D01*
X108576630Y-79071172D01*
X108576630Y-79071178D01*
X108625351Y-79297240D01*
X108707951Y-79502797D01*
X108711574Y-79511813D01*
X108773781Y-79612844D01*
X108815934Y-79681305D01*
X108832821Y-79708730D01*
X108985602Y-79882324D01*
X108985605Y-79882327D01*
X109165517Y-80027595D01*
X109165521Y-80027598D01*
X109165524Y-80027600D01*
X109189565Y-80041030D01*
X109238491Y-80090908D01*
X109252685Y-80159320D01*
X109227639Y-80224547D01*
X109198530Y-80252019D01*
X109072482Y-80337213D01*
X109072477Y-80337217D01*
X108905528Y-80497223D01*
X108905525Y-80497227D01*
X108905524Y-80497228D01*
X108833320Y-80594855D01*
X108768013Y-80683156D01*
X108768011Y-80683159D01*
X108748768Y-80721326D01*
X108701010Y-80772325D01*
X108638046Y-80789500D01*
X107469946Y-80789500D01*
X107461848Y-80788969D01*
X107436472Y-80785628D01*
X107426001Y-80784250D01*
X107426000Y-80784250D01*
X107415979Y-80785569D01*
X107390151Y-80788969D01*
X107390150Y-80788968D01*
X107311418Y-80799334D01*
X107291715Y-80801928D01*
X107283526Y-80803006D01*
X107267147Y-80805162D01*
X107119128Y-80866473D01*
X107119123Y-80866476D01*
X107025561Y-80938268D01*
X107025562Y-80938269D01*
X106992010Y-80964015D01*
X106969996Y-80992703D01*
X106964645Y-80998805D01*
X106073788Y-81889661D01*
X106012465Y-81923146D01*
X105999992Y-81925200D01*
X105914958Y-81934781D01*
X105742983Y-81994957D01*
X105588718Y-82091889D01*
X105459887Y-82220720D01*
X105401493Y-82313654D01*
X105349158Y-82359944D01*
X105280105Y-82370592D01*
X105216257Y-82342217D01*
X105177885Y-82283827D01*
X105172500Y-82247681D01*
X105172500Y-74977940D01*
X105192185Y-74910901D01*
X105244989Y-74865146D01*
X105314147Y-74855202D01*
X105337455Y-74860899D01*
G37*
%TD.AperFunction*%
%TA.AperFunction,Conductor*%
G36*
X142594565Y-77414704D02*
G01*
X142626280Y-77474222D01*
X142627330Y-77479049D01*
X142627333Y-77479059D01*
X142641548Y-77512254D01*
X142644045Y-77519200D01*
X142654223Y-77553862D01*
X142659709Y-77564503D01*
X142683570Y-77610788D01*
X142685457Y-77614793D01*
X142710663Y-77673656D01*
X142710668Y-77673666D01*
X142730912Y-77703576D01*
X142734678Y-77709924D01*
X142751226Y-77742023D01*
X142790818Y-77792368D01*
X142793428Y-77795943D01*
X142827446Y-77846204D01*
X142829329Y-77848985D01*
X142854860Y-77874515D01*
X142859758Y-77880034D01*
X142882090Y-77908430D01*
X142882093Y-77908433D01*
X142930502Y-77950380D01*
X142933742Y-77953397D01*
X143501046Y-78520701D01*
X143534531Y-78582024D01*
X143536586Y-78622263D01*
X143531884Y-78664001D01*
X143531884Y-78664003D01*
X143552281Y-78845041D01*
X143552282Y-78845046D01*
X143612458Y-79017017D01*
X143678528Y-79122166D01*
X143709389Y-79171281D01*
X143838219Y-79300111D01*
X143992485Y-79397043D01*
X144164453Y-79457216D01*
X144164453Y-79457217D01*
X144164458Y-79457218D01*
X144345497Y-79477616D01*
X144345499Y-79477616D01*
X144345499Y-79477615D01*
X144345500Y-79477616D01*
X144387232Y-79472913D01*
X144456051Y-79484966D01*
X144488797Y-79508452D01*
X145083181Y-80102836D01*
X145116666Y-80164159D01*
X145119500Y-80190517D01*
X145119500Y-80318059D01*
X145099815Y-80385098D01*
X145047011Y-80430853D01*
X144977853Y-80440797D01*
X144954546Y-80435101D01*
X144885049Y-80410783D01*
X144885041Y-80410781D01*
X144704004Y-80390384D01*
X144703996Y-80390384D01*
X144522958Y-80410781D01*
X144522953Y-80410782D01*
X144350982Y-80470958D01*
X144196722Y-80567886D01*
X144196023Y-80568445D01*
X144195484Y-80568664D01*
X144190823Y-80571594D01*
X144190309Y-80570777D01*
X144131337Y-80594855D01*
X144118707Y-80595500D01*
X143991411Y-80595500D01*
X143924372Y-80575815D01*
X143903730Y-80559181D01*
X142501510Y-79156961D01*
X142496157Y-79150858D01*
X142493372Y-79147229D01*
X142474143Y-79122169D01*
X142474141Y-79122167D01*
X142474140Y-79122166D01*
X142442231Y-79097682D01*
X142442230Y-79097681D01*
X142442228Y-79097679D01*
X142396884Y-79062885D01*
X142347033Y-79024632D01*
X142347029Y-79024630D01*
X142199007Y-78963317D01*
X142181867Y-78961061D01*
X142179612Y-78960764D01*
X142179611Y-78960763D01*
X142077860Y-78947368D01*
X142077834Y-78947366D01*
X142040157Y-78942406D01*
X142040155Y-78942406D01*
X142029683Y-78943784D01*
X142004307Y-78947125D01*
X141996210Y-78947656D01*
X137866286Y-78947656D01*
X137799247Y-78927971D01*
X137753492Y-78875167D01*
X137743548Y-78806009D01*
X137772573Y-78742453D01*
X137778605Y-78735975D01*
X139037761Y-77476819D01*
X139099084Y-77443334D01*
X139125442Y-77440500D01*
X142115111Y-77440500D01*
X142122051Y-77440889D01*
X142143747Y-77443334D01*
X142163998Y-77445616D01*
X142164000Y-77445616D01*
X142164004Y-77445616D01*
X142345041Y-77425218D01*
X142345043Y-77425217D01*
X142345047Y-77425217D01*
X142345050Y-77425215D01*
X142345054Y-77425215D01*
X142464159Y-77383538D01*
X142533937Y-77379975D01*
X142594565Y-77414704D01*
G37*
%TD.AperFunction*%
%TA.AperFunction,Conductor*%
G36*
X123565098Y-70648185D02*
G01*
X123610853Y-70700989D01*
X123620797Y-70770147D01*
X123615101Y-70793454D01*
X123590783Y-70862950D01*
X123590781Y-70862958D01*
X123570384Y-71043996D01*
X123570384Y-71044003D01*
X123590781Y-71225041D01*
X123590782Y-71225046D01*
X123605387Y-71266783D01*
X123650957Y-71397015D01*
X123747889Y-71551281D01*
X123876719Y-71680111D01*
X124030985Y-71777043D01*
X124202953Y-71837216D01*
X124202953Y-71837217D01*
X124202958Y-71837218D01*
X124383996Y-71857616D01*
X124384000Y-71857616D01*
X124384004Y-71857616D01*
X124565041Y-71837218D01*
X124565044Y-71837217D01*
X124565047Y-71837217D01*
X124737015Y-71777043D01*
X124891281Y-71680111D01*
X124891286Y-71680105D01*
X124891977Y-71679555D01*
X124892515Y-71679335D01*
X124897177Y-71676406D01*
X124897690Y-71677222D01*
X124956663Y-71653145D01*
X124969293Y-71652500D01*
X126171590Y-71652500D01*
X126238629Y-71672185D01*
X126284384Y-71724989D01*
X126294328Y-71794147D01*
X126265303Y-71857703D01*
X126259271Y-71864181D01*
X124361788Y-73761661D01*
X124300465Y-73795146D01*
X124287992Y-73797200D01*
X124202958Y-73806781D01*
X124030983Y-73866957D01*
X123876718Y-73963889D01*
X123747889Y-74092718D01*
X123650958Y-74246982D01*
X123590782Y-74418953D01*
X123590781Y-74418958D01*
X123570384Y-74599996D01*
X123570384Y-74600003D01*
X123590781Y-74781041D01*
X123590782Y-74781046D01*
X123627234Y-74885218D01*
X123641946Y-74927264D01*
X123650958Y-74953017D01*
X123676630Y-74993873D01*
X123719030Y-75061353D01*
X123725424Y-75071528D01*
X123744424Y-75138764D01*
X123724056Y-75205600D01*
X123670789Y-75250814D01*
X123620430Y-75261500D01*
X114781411Y-75261500D01*
X114714372Y-75241815D01*
X114693730Y-75225181D01*
X114554337Y-75085788D01*
X114520852Y-75024465D01*
X114518798Y-75011989D01*
X114509218Y-74926956D01*
X114473557Y-74825043D01*
X114449043Y-74754985D01*
X114418216Y-74705925D01*
X114409443Y-74691963D01*
X114352111Y-74600719D01*
X114223281Y-74471889D01*
X114180513Y-74445016D01*
X114069016Y-74374957D01*
X113897041Y-74314781D01*
X113812007Y-74305200D01*
X113747593Y-74278133D01*
X113738210Y-74269661D01*
X113161354Y-73692805D01*
X113156001Y-73686702D01*
X113153216Y-73683073D01*
X113133987Y-73658013D01*
X113133985Y-73658011D01*
X113133984Y-73658010D01*
X113102075Y-73633526D01*
X113102074Y-73633525D01*
X113102072Y-73633523D01*
X113038469Y-73584718D01*
X113006877Y-73560476D01*
X113006873Y-73560474D01*
X112858851Y-73499161D01*
X112841711Y-73496905D01*
X112839456Y-73496608D01*
X112839455Y-73496607D01*
X112737704Y-73483212D01*
X112737678Y-73483210D01*
X112700001Y-73478250D01*
X112699999Y-73478250D01*
X112689527Y-73479628D01*
X112664151Y-73482969D01*
X112656054Y-73483500D01*
X111661499Y-73483500D01*
X111594460Y-73463815D01*
X111548705Y-73411011D01*
X111537499Y-73359500D01*
X111537499Y-73247462D01*
X111537498Y-73247446D01*
X111536056Y-73233328D01*
X111526887Y-73143574D01*
X111471115Y-72975262D01*
X111378030Y-72824348D01*
X111252652Y-72698970D01*
X111101738Y-72605885D01*
X111018352Y-72578254D01*
X110933427Y-72550113D01*
X110829545Y-72539500D01*
X109278462Y-72539500D01*
X109278446Y-72539501D01*
X109174572Y-72550113D01*
X109006264Y-72605884D01*
X109006259Y-72605886D01*
X108855346Y-72698971D01*
X108729971Y-72824346D01*
X108636886Y-72975259D01*
X108636884Y-72975264D01*
X108581113Y-73143572D01*
X108570500Y-73247447D01*
X108570500Y-73359500D01*
X108550815Y-73426539D01*
X108498011Y-73472294D01*
X108446500Y-73483500D01*
X106173293Y-73483500D01*
X106106254Y-73463815D01*
X106095977Y-73456445D01*
X106095283Y-73455891D01*
X106095281Y-73455889D01*
X106095277Y-73455886D01*
X106095274Y-73455884D01*
X106020890Y-73409145D01*
X105974599Y-73356810D01*
X105963952Y-73287757D01*
X105992327Y-73223909D01*
X105999169Y-73216484D01*
X107155650Y-72060003D01*
X116458384Y-72060003D01*
X116478781Y-72241041D01*
X116478782Y-72241046D01*
X116538958Y-72413017D01*
X116635886Y-72567277D01*
X116636445Y-72567977D01*
X116636664Y-72568515D01*
X116639594Y-72573177D01*
X116638777Y-72573690D01*
X116662855Y-72632663D01*
X116663500Y-72645293D01*
X116663500Y-73032054D01*
X116662969Y-73040156D01*
X116658250Y-73075998D01*
X116662970Y-73111861D01*
X116674648Y-73200563D01*
X116679161Y-73234849D01*
X116679163Y-73234854D01*
X116740473Y-73382871D01*
X116740473Y-73382872D01*
X116740475Y-73382875D01*
X116740476Y-73382876D01*
X116809089Y-73472294D01*
X116813525Y-73478074D01*
X116813526Y-73478075D01*
X116838012Y-73509986D01*
X116866698Y-73531998D01*
X116872794Y-73537343D01*
X117170658Y-73835207D01*
X117449661Y-74114210D01*
X117483146Y-74175533D01*
X117485200Y-74188007D01*
X117494781Y-74273041D01*
X117554957Y-74445016D01*
X117629818Y-74564156D01*
X117651889Y-74599281D01*
X117780719Y-74728111D01*
X117934985Y-74825043D01*
X118106947Y-74885215D01*
X118106953Y-74885217D01*
X118106958Y-74885218D01*
X118287996Y-74905616D01*
X118288000Y-74905616D01*
X118288004Y-74905616D01*
X118469041Y-74885218D01*
X118469044Y-74885217D01*
X118469047Y-74885217D01*
X118641015Y-74825043D01*
X118795281Y-74728111D01*
X118924111Y-74599281D01*
X119021043Y-74445015D01*
X119081217Y-74273047D01*
X119081599Y-74269661D01*
X119101616Y-74092003D01*
X119101616Y-74091996D01*
X119081218Y-73910958D01*
X119081217Y-73910953D01*
X119062813Y-73858357D01*
X119021043Y-73738985D01*
X118924111Y-73584719D01*
X118795281Y-73455889D01*
X118748571Y-73426539D01*
X118641016Y-73358957D01*
X118507111Y-73312102D01*
X118469047Y-73298783D01*
X118469046Y-73298782D01*
X118469041Y-73298781D01*
X118384007Y-73289200D01*
X118319593Y-73262133D01*
X118310210Y-73253661D01*
X117916819Y-72860270D01*
X117883334Y-72798947D01*
X117880500Y-72772590D01*
X117880500Y-72736187D01*
X117880500Y-72645290D01*
X117900183Y-72578254D01*
X117907562Y-72567968D01*
X117908101Y-72567290D01*
X117908111Y-72567281D01*
X118005043Y-72413015D01*
X118065217Y-72241047D01*
X118066125Y-72232989D01*
X118085616Y-72060003D01*
X118085616Y-72059996D01*
X118065218Y-71878958D01*
X118065217Y-71878953D01*
X118029557Y-71777043D01*
X118005043Y-71706985D01*
X117908111Y-71552719D01*
X117779281Y-71423889D01*
X117625015Y-71326957D01*
X117570693Y-71307949D01*
X117453046Y-71266782D01*
X117453041Y-71266781D01*
X117272004Y-71246384D01*
X117271996Y-71246384D01*
X117090958Y-71266781D01*
X117090953Y-71266782D01*
X116918982Y-71326958D01*
X116764718Y-71423889D01*
X116635889Y-71552718D01*
X116538958Y-71706982D01*
X116478782Y-71878953D01*
X116478781Y-71878958D01*
X116458384Y-72059996D01*
X116458384Y-72060003D01*
X107155650Y-72060003D01*
X108550835Y-70664819D01*
X108612159Y-70631334D01*
X108638517Y-70628500D01*
X123498059Y-70628500D01*
X123565098Y-70648185D01*
G37*
%TD.AperFunction*%
%TA.AperFunction,Conductor*%
G36*
X126985171Y-72961890D02*
G01*
X127041104Y-73003762D01*
X127065521Y-73069226D01*
X127060498Y-73114065D01*
X127056454Y-73127395D01*
X127056453Y-73127398D01*
X127039518Y-73299349D01*
X127036499Y-73330000D01*
X127038679Y-73352134D01*
X127056453Y-73532599D01*
X127115551Y-73727420D01*
X127133854Y-73761661D01*
X127211297Y-73906547D01*
X127225539Y-73974948D01*
X127211297Y-74023452D01*
X127115553Y-74202575D01*
X127115552Y-74202578D01*
X127056453Y-74397400D01*
X127036499Y-74600000D01*
X127056453Y-74802599D01*
X127114475Y-74993873D01*
X127115098Y-75063740D01*
X127101976Y-75090261D01*
X127103359Y-75091017D01*
X127099110Y-75098796D01*
X127068512Y-75180834D01*
X127026640Y-75236767D01*
X126961176Y-75261184D01*
X126952330Y-75261500D01*
X125147570Y-75261500D01*
X125080531Y-75241815D01*
X125034776Y-75189011D01*
X125024832Y-75119853D01*
X125042576Y-75071528D01*
X125047470Y-75063740D01*
X125117043Y-74953015D01*
X125177217Y-74781047D01*
X125186798Y-74696005D01*
X125213863Y-74631595D01*
X125222327Y-74622220D01*
X126854158Y-72990389D01*
X126915479Y-72956906D01*
X126985171Y-72961890D01*
G37*
%TD.AperFunction*%
%TA.AperFunction,Conductor*%
G36*
X152151905Y-49873515D02*
G01*
X152173804Y-49898787D01*
X152264278Y-50037268D01*
X152264283Y-50037273D01*
X152264284Y-50037276D01*
X152390968Y-50174889D01*
X152416760Y-50202906D01*
X152594424Y-50341189D01*
X152594425Y-50341189D01*
X152594427Y-50341191D01*
X152683948Y-50389637D01*
X152792426Y-50448342D01*
X153005365Y-50521444D01*
X153227431Y-50558500D01*
X153452569Y-50558500D01*
X153674635Y-50521444D01*
X153695412Y-50514310D01*
X153765209Y-50511157D01*
X153823360Y-50543909D01*
X156759181Y-53479729D01*
X156792666Y-53541052D01*
X156795500Y-53567410D01*
X156795500Y-61348054D01*
X156794969Y-61356156D01*
X156790250Y-61391999D01*
X156790250Y-61392001D01*
X156795210Y-61429678D01*
X156795212Y-61429699D01*
X156802038Y-61481547D01*
X156811161Y-61550849D01*
X156811163Y-61550854D01*
X156872473Y-61698871D01*
X156872473Y-61698872D01*
X156872475Y-61698875D01*
X156872476Y-61698876D01*
X156945523Y-61794072D01*
X156945525Y-61794074D01*
X156970013Y-61825987D01*
X156977882Y-61832025D01*
X156998698Y-61847998D01*
X157004794Y-61853343D01*
X157319533Y-62168082D01*
X157629397Y-62477946D01*
X157662882Y-62539269D01*
X157657898Y-62608961D01*
X157616026Y-62664894D01*
X157582672Y-62682668D01*
X157558985Y-62690956D01*
X157558984Y-62690956D01*
X157404718Y-62787889D01*
X157275889Y-62916718D01*
X157178958Y-63070982D01*
X157118782Y-63242953D01*
X157118781Y-63242958D01*
X157098384Y-63423996D01*
X157098384Y-63424003D01*
X157118781Y-63605041D01*
X157118782Y-63605046D01*
X157178958Y-63777017D01*
X157275886Y-63931277D01*
X157276445Y-63931977D01*
X157276664Y-63932515D01*
X157279594Y-63937177D01*
X157278777Y-63937690D01*
X157302855Y-63996663D01*
X157303500Y-64009293D01*
X157303500Y-65660588D01*
X157283815Y-65727627D01*
X157267181Y-65748269D01*
X153825788Y-69189661D01*
X153764465Y-69223146D01*
X153751992Y-69225200D01*
X153666958Y-69234781D01*
X153494983Y-69294957D01*
X153340718Y-69391889D01*
X153211889Y-69520718D01*
X153114958Y-69674982D01*
X153054782Y-69846953D01*
X153054781Y-69846958D01*
X153034384Y-70027996D01*
X153034384Y-70028003D01*
X153054781Y-70209041D01*
X153054783Y-70209049D01*
X153076302Y-70270546D01*
X153079863Y-70340324D01*
X153045134Y-70400952D01*
X152983141Y-70433179D01*
X152959260Y-70435500D01*
X152196740Y-70435500D01*
X152129701Y-70415815D01*
X152083946Y-70363011D01*
X152074002Y-70293853D01*
X152079698Y-70270546D01*
X152101216Y-70209049D01*
X152101217Y-70209047D01*
X152101218Y-70209041D01*
X152121616Y-70028003D01*
X152121616Y-70027996D01*
X152101218Y-69846958D01*
X152101217Y-69846953D01*
X152066531Y-69747827D01*
X152041043Y-69674985D01*
X151944111Y-69520719D01*
X151815281Y-69391889D01*
X151815281Y-69391888D01*
X151661016Y-69294957D01*
X151489041Y-69234781D01*
X151404007Y-69225200D01*
X151339593Y-69198133D01*
X151330210Y-69189661D01*
X150936819Y-68796270D01*
X150903334Y-68734947D01*
X150900500Y-68708589D01*
X150900500Y-67482517D01*
X150920185Y-67415478D01*
X150936813Y-67394841D01*
X151013508Y-67318146D01*
X151026867Y-67306572D01*
X151041036Y-67295967D01*
X151093504Y-67238248D01*
X151095530Y-67236125D01*
X151113165Y-67218491D01*
X151113166Y-67218489D01*
X151120226Y-67211429D01*
X151120232Y-67211421D01*
X155575063Y-62756591D01*
X155590824Y-62743262D01*
X155593209Y-62741563D01*
X155593208Y-62741563D01*
X155593215Y-62741559D01*
X155656675Y-62675002D01*
X155657661Y-62673994D01*
X155666761Y-62664894D01*
X155685165Y-62646491D01*
X155692172Y-62638002D01*
X155695112Y-62634691D01*
X155695488Y-62634297D01*
X155739303Y-62588346D01*
X155758835Y-62557950D01*
X155763173Y-62552009D01*
X155786179Y-62524149D01*
X155816873Y-62467933D01*
X155819126Y-62464137D01*
X155824146Y-62456326D01*
X155853756Y-62410254D01*
X155867183Y-62376712D01*
X155870322Y-62370049D01*
X155887635Y-62338346D01*
X155907146Y-62277306D01*
X155908616Y-62273216D01*
X155932436Y-62213721D01*
X155939275Y-62178230D01*
X155941093Y-62171111D01*
X155952094Y-62136701D01*
X155959700Y-62073074D01*
X155960371Y-62068773D01*
X155972500Y-62005849D01*
X155972500Y-61969722D01*
X155972939Y-61962355D01*
X155976017Y-61936610D01*
X155977226Y-61926500D01*
X155972657Y-61862623D01*
X155972500Y-61858201D01*
X155972500Y-61004167D01*
X155984118Y-60951762D01*
X156051120Y-60808076D01*
X156108115Y-60595371D01*
X156127307Y-60376000D01*
X156126347Y-60365030D01*
X156120110Y-60293735D01*
X156108115Y-60156629D01*
X156051120Y-59943924D01*
X155958056Y-59744347D01*
X155958054Y-59744344D01*
X155958053Y-59744342D01*
X155874588Y-59625142D01*
X155831749Y-59563962D01*
X155676038Y-59408251D01*
X155495654Y-59281944D01*
X155495650Y-59281942D01*
X155296081Y-59188882D01*
X155296079Y-59188881D01*
X155296076Y-59188880D01*
X155144777Y-59148339D01*
X155083372Y-59131885D01*
X155083365Y-59131884D01*
X154864002Y-59112693D01*
X154863998Y-59112693D01*
X154644634Y-59131884D01*
X154644627Y-59131885D01*
X154431920Y-59188881D01*
X154232346Y-59281944D01*
X154232342Y-59281946D01*
X154051967Y-59408247D01*
X154051960Y-59408252D01*
X153896252Y-59563960D01*
X153896247Y-59563967D01*
X153769946Y-59744342D01*
X153769944Y-59744346D01*
X153676881Y-59943920D01*
X153619885Y-60156627D01*
X153619884Y-60156634D01*
X153600693Y-60375997D01*
X153600693Y-60376002D01*
X153619884Y-60595365D01*
X153619885Y-60595372D01*
X153635456Y-60653482D01*
X153673356Y-60794926D01*
X153676881Y-60808079D01*
X153743882Y-60951762D01*
X153755500Y-61004167D01*
X153755500Y-61389480D01*
X153735815Y-61456519D01*
X153719181Y-61477161D01*
X152661181Y-62535161D01*
X152599858Y-62568646D01*
X152530166Y-62563662D01*
X152474233Y-62521790D01*
X152449816Y-62456326D01*
X152449500Y-62447480D01*
X152449500Y-61983626D01*
X152451238Y-61967881D01*
X152450967Y-61967856D01*
X152451701Y-61960093D01*
X152449531Y-61891026D01*
X152449500Y-61889078D01*
X152449500Y-61860150D01*
X152449500Y-61860144D01*
X152448615Y-61853140D01*
X152448156Y-61847311D01*
X152446673Y-61800109D01*
X152442413Y-61785449D01*
X152440977Y-61780508D01*
X152437032Y-61761457D01*
X152434474Y-61741203D01*
X152417088Y-61697291D01*
X152415196Y-61691764D01*
X152409775Y-61673107D01*
X152402018Y-61646406D01*
X152391625Y-61628833D01*
X152383063Y-61611355D01*
X152377659Y-61597705D01*
X152375552Y-61592383D01*
X152375550Y-61592380D01*
X152375549Y-61592378D01*
X152347794Y-61554177D01*
X152344586Y-61549293D01*
X152331904Y-61527850D01*
X152320542Y-61508637D01*
X152306108Y-61494202D01*
X152293469Y-61479406D01*
X152281471Y-61462892D01*
X152245084Y-61432790D01*
X152240762Y-61428857D01*
X152141847Y-61329942D01*
X152108362Y-61268619D01*
X152106310Y-61256160D01*
X152101217Y-61210953D01*
X152041043Y-61038985D01*
X152009271Y-60988421D01*
X151944110Y-60884718D01*
X151815281Y-60755889D01*
X151661017Y-60658958D01*
X151661016Y-60658957D01*
X151661015Y-60658957D01*
X151606693Y-60639949D01*
X151489046Y-60598782D01*
X151489042Y-60598781D01*
X151443853Y-60593690D01*
X151379439Y-60566623D01*
X151370056Y-60558151D01*
X148585847Y-57773942D01*
X148552362Y-57712619D01*
X148550310Y-57700160D01*
X148545217Y-57654953D01*
X148485043Y-57482985D01*
X148388111Y-57328719D01*
X148259281Y-57199889D01*
X148105015Y-57102957D01*
X148050693Y-57083949D01*
X147933046Y-57042782D01*
X147933041Y-57042781D01*
X147752004Y-57022384D01*
X147751996Y-57022384D01*
X147570958Y-57042781D01*
X147570953Y-57042782D01*
X147398982Y-57102958D01*
X147244718Y-57199889D01*
X147115889Y-57328718D01*
X147018958Y-57482982D01*
X146958782Y-57654953D01*
X146958781Y-57654958D01*
X146938384Y-57835996D01*
X146938384Y-57836003D01*
X146958781Y-58017041D01*
X146958782Y-58017046D01*
X146979509Y-58076280D01*
X147017604Y-58185149D01*
X147018958Y-58189017D01*
X147091279Y-58304115D01*
X147115889Y-58343281D01*
X147244719Y-58472111D01*
X147398985Y-58569043D01*
X147570953Y-58629217D01*
X147616147Y-58634309D01*
X147680559Y-58661374D01*
X147689944Y-58669848D01*
X150474151Y-61454055D01*
X150507636Y-61515378D01*
X150509690Y-61527850D01*
X150514783Y-61573046D01*
X150574957Y-61745016D01*
X150671889Y-61899281D01*
X150780196Y-62007588D01*
X150813681Y-62068911D01*
X150808697Y-62138603D01*
X150766825Y-62194536D01*
X150706399Y-62218489D01*
X150618957Y-62228341D01*
X150618953Y-62228342D01*
X150446982Y-62288518D01*
X150292722Y-62385446D01*
X150292023Y-62386005D01*
X150291484Y-62386224D01*
X150286823Y-62389154D01*
X150286309Y-62388337D01*
X150227337Y-62412415D01*
X150214707Y-62413060D01*
X150201413Y-62413060D01*
X150134374Y-62393375D01*
X150088619Y-62340571D01*
X150078193Y-62302942D01*
X150071160Y-62240518D01*
X150071159Y-62240513D01*
X150069888Y-62236880D01*
X150010985Y-62068545D01*
X149914053Y-61914279D01*
X149785223Y-61785449D01*
X149762446Y-61771137D01*
X149630958Y-61688517D01*
X149458983Y-61628341D01*
X149387041Y-61620235D01*
X149322627Y-61593168D01*
X149313245Y-61584696D01*
X145567306Y-57838756D01*
X145533821Y-57777433D01*
X145538805Y-57707741D01*
X145580677Y-57651808D01*
X145646141Y-57627391D01*
X145668868Y-57627854D01*
X145700421Y-57631410D01*
X145719999Y-57633616D01*
X145720000Y-57633616D01*
X145720004Y-57633616D01*
X145901041Y-57613218D01*
X145901044Y-57613217D01*
X145901047Y-57613217D01*
X146073015Y-57553043D01*
X146227281Y-57456111D01*
X146356111Y-57327281D01*
X146453043Y-57173015D01*
X146513217Y-57001047D01*
X146533616Y-56820000D01*
X146513217Y-56638953D01*
X146453043Y-56466985D01*
X146356111Y-56312719D01*
X146356110Y-56312718D01*
X146356109Y-56312716D01*
X146355549Y-56312014D01*
X146355328Y-56311474D01*
X146352406Y-56306823D01*
X146353221Y-56306310D01*
X146329144Y-56247326D01*
X146328500Y-56234706D01*
X146328500Y-50682500D01*
X146348185Y-50615461D01*
X146400989Y-50569706D01*
X146452500Y-50558500D01*
X146618638Y-50558500D01*
X146618654Y-50558499D01*
X146645692Y-50555591D01*
X146679201Y-50551989D01*
X146816204Y-50500889D01*
X146933261Y-50413261D01*
X147020889Y-50296204D01*
X147066138Y-50174887D01*
X147108009Y-50118956D01*
X147173474Y-50094539D01*
X147241746Y-50109391D01*
X147273545Y-50134236D01*
X147336760Y-50202906D01*
X147514424Y-50341189D01*
X147514425Y-50341189D01*
X147514427Y-50341191D01*
X147603948Y-50389637D01*
X147712426Y-50448342D01*
X147925365Y-50521444D01*
X148147431Y-50558500D01*
X148372569Y-50558500D01*
X148594635Y-50521444D01*
X148807574Y-50448342D01*
X149005576Y-50341189D01*
X149183240Y-50202906D01*
X149283000Y-50094539D01*
X149335715Y-50037276D01*
X149335715Y-50037275D01*
X149335722Y-50037268D01*
X149426193Y-49898790D01*
X149479338Y-49853437D01*
X149548569Y-49844013D01*
X149611905Y-49873515D01*
X149633804Y-49898787D01*
X149724278Y-50037268D01*
X149724283Y-50037273D01*
X149724284Y-50037276D01*
X149850968Y-50174889D01*
X149876760Y-50202906D01*
X150054424Y-50341189D01*
X150054425Y-50341189D01*
X150054427Y-50341191D01*
X150143948Y-50389637D01*
X150252426Y-50448342D01*
X150465365Y-50521444D01*
X150687431Y-50558500D01*
X150912569Y-50558500D01*
X151134635Y-50521444D01*
X151347574Y-50448342D01*
X151545576Y-50341189D01*
X151723240Y-50202906D01*
X151823000Y-50094539D01*
X151875715Y-50037276D01*
X151875715Y-50037275D01*
X151875722Y-50037268D01*
X151966193Y-49898790D01*
X152019338Y-49853437D01*
X152088569Y-49844013D01*
X152151905Y-49873515D01*
G37*
%TD.AperFunction*%
%TA.AperFunction,Conductor*%
G36*
X135387905Y-49873515D02*
G01*
X135409804Y-49898787D01*
X135500278Y-50037268D01*
X135500283Y-50037273D01*
X135500284Y-50037276D01*
X135626968Y-50174889D01*
X135652760Y-50202906D01*
X135830424Y-50341189D01*
X135830425Y-50341189D01*
X135830427Y-50341191D01*
X135919948Y-50389637D01*
X136028426Y-50448342D01*
X136241365Y-50521444D01*
X136463431Y-50558500D01*
X136688569Y-50558500D01*
X136910635Y-50521444D01*
X136931412Y-50514310D01*
X137001209Y-50511157D01*
X137059360Y-50543909D01*
X138583941Y-52068490D01*
X138617426Y-52129813D01*
X138612442Y-52199505D01*
X138570570Y-52255438D01*
X138505106Y-52279855D01*
X138480510Y-52279167D01*
X138391859Y-52267815D01*
X138160827Y-52277630D01*
X138160821Y-52277630D01*
X137934759Y-52326351D01*
X137720190Y-52412572D01*
X137523270Y-52533820D01*
X137349679Y-52686599D01*
X137349672Y-52686605D01*
X137204404Y-52866517D01*
X137204397Y-52866527D01*
X137190968Y-52890567D01*
X137141089Y-52939493D01*
X137072675Y-52953685D01*
X137007450Y-52928637D01*
X136979980Y-52899529D01*
X136894790Y-52773487D01*
X136894788Y-52773485D01*
X136894783Y-52773477D01*
X136734772Y-52606524D01*
X136548847Y-52469015D01*
X136548846Y-52469014D01*
X136548844Y-52469013D01*
X136342358Y-52364905D01*
X136214888Y-52325867D01*
X136121243Y-52297189D01*
X136121241Y-52297188D01*
X136121242Y-52297188D01*
X135891859Y-52267815D01*
X135660827Y-52277630D01*
X135660821Y-52277630D01*
X135434759Y-52326351D01*
X135220190Y-52412572D01*
X135023270Y-52533820D01*
X134849679Y-52686599D01*
X134849674Y-52686604D01*
X134825757Y-52716224D01*
X134768326Y-52756015D01*
X134698498Y-52758440D01*
X134638444Y-52722728D01*
X134623747Y-52703423D01*
X134533030Y-52556348D01*
X134407652Y-52430970D01*
X134282459Y-52353750D01*
X134256740Y-52337886D01*
X134256735Y-52337884D01*
X134088427Y-52282113D01*
X133984545Y-52271500D01*
X132683462Y-52271500D01*
X132683446Y-52271501D01*
X132579572Y-52282113D01*
X132411264Y-52337884D01*
X132411259Y-52337886D01*
X132260346Y-52430971D01*
X132134971Y-52556346D01*
X132041886Y-52707259D01*
X132041884Y-52707264D01*
X131986113Y-52875572D01*
X131975500Y-52979447D01*
X131975500Y-54530537D01*
X131975501Y-54530553D01*
X131986113Y-54634427D01*
X132041884Y-54802735D01*
X132041886Y-54802740D01*
X132054626Y-54823394D01*
X132134970Y-54953652D01*
X132260348Y-55079030D01*
X132411262Y-55172115D01*
X132579574Y-55227887D01*
X132683455Y-55238500D01*
X133984544Y-55238499D01*
X134088426Y-55227887D01*
X134256738Y-55172115D01*
X134407652Y-55079030D01*
X134533030Y-54953652D01*
X134624417Y-54805489D01*
X134676363Y-54758768D01*
X134745326Y-54747545D01*
X134809408Y-54775389D01*
X134819468Y-54784780D01*
X134933228Y-54903476D01*
X135119153Y-55040985D01*
X135325643Y-55145095D01*
X135491961Y-55196029D01*
X135550297Y-55234482D01*
X135578584Y-55298369D01*
X135567840Y-55367408D01*
X135543331Y-55402275D01*
X133178140Y-57767465D01*
X133178132Y-57767476D01*
X133107888Y-57837720D01*
X133085436Y-57873451D01*
X133081411Y-57879123D01*
X133055092Y-57912128D01*
X133036775Y-57950159D01*
X133033412Y-57956245D01*
X133010959Y-57991981D01*
X133010953Y-57991993D01*
X132997019Y-58031816D01*
X132994357Y-58038242D01*
X132976041Y-58076278D01*
X132966645Y-58117438D01*
X132964720Y-58124119D01*
X132950783Y-58163952D01*
X132950781Y-58163958D01*
X132946057Y-58205894D01*
X132944891Y-58212753D01*
X132935501Y-58253895D01*
X132935500Y-58253904D01*
X132935500Y-62634297D01*
X132915815Y-62701336D01*
X132863011Y-62747091D01*
X132793853Y-62757035D01*
X132779408Y-62754072D01*
X132722402Y-62738798D01*
X132722399Y-62738797D01*
X132722394Y-62738796D01*
X132722391Y-62738795D01*
X132722388Y-62738795D01*
X132512002Y-62720389D01*
X132511998Y-62720389D01*
X132301611Y-62738795D01*
X132301600Y-62738797D01*
X132097612Y-62793455D01*
X132097603Y-62793459D01*
X131906196Y-62882713D01*
X131906194Y-62882714D01*
X131733188Y-63003853D01*
X131583853Y-63153188D01*
X131462714Y-63326194D01*
X131462713Y-63326196D01*
X131373459Y-63517603D01*
X131373455Y-63517612D01*
X131318797Y-63721600D01*
X131318795Y-63721611D01*
X131300389Y-63931998D01*
X131300389Y-63932001D01*
X131318795Y-64142388D01*
X131318797Y-64142399D01*
X131373455Y-64346387D01*
X131373457Y-64346391D01*
X131373458Y-64346395D01*
X131453505Y-64518057D01*
X131462714Y-64537806D01*
X131462716Y-64537810D01*
X131583848Y-64710804D01*
X131583853Y-64710810D01*
X131733189Y-64860146D01*
X131733195Y-64860151D01*
X131906189Y-64981283D01*
X131906191Y-64981284D01*
X131906194Y-64981286D01*
X132097605Y-65070542D01*
X132301606Y-65125204D01*
X132451887Y-65138351D01*
X132511998Y-65143611D01*
X132512000Y-65143611D01*
X132512002Y-65143611D01*
X132564598Y-65139009D01*
X132722394Y-65125204D01*
X132779408Y-65109927D01*
X132849254Y-65111590D01*
X132907117Y-65150752D01*
X132934622Y-65214980D01*
X132935499Y-65229702D01*
X132935499Y-66030064D01*
X132935500Y-66030069D01*
X132935500Y-66187602D01*
X132944891Y-66228744D01*
X132946057Y-66235604D01*
X132950781Y-66277541D01*
X132950783Y-66277547D01*
X132964721Y-66317384D01*
X132966646Y-66324066D01*
X132976038Y-66365211D01*
X132976043Y-66365224D01*
X132994353Y-66403246D01*
X132997015Y-66409674D01*
X133010955Y-66449511D01*
X133010957Y-66449515D01*
X133033411Y-66485251D01*
X133036777Y-66491341D01*
X133055090Y-66529369D01*
X133055091Y-66529371D01*
X133081407Y-66562369D01*
X133085431Y-66568040D01*
X133107889Y-66603781D01*
X133140196Y-66636088D01*
X133140197Y-66636089D01*
X134014993Y-67510885D01*
X134703928Y-68199819D01*
X134737413Y-68261142D01*
X134732429Y-68330834D01*
X134690557Y-68386767D01*
X134625093Y-68411184D01*
X134616247Y-68411500D01*
X111412411Y-68411500D01*
X111345372Y-68391815D01*
X111299617Y-68339011D01*
X111289673Y-68269853D01*
X111318698Y-68206297D01*
X111324730Y-68199819D01*
X112453249Y-67071300D01*
X115845016Y-63679531D01*
X115906337Y-63646048D01*
X115976029Y-63651032D01*
X116031962Y-63692904D01*
X116052468Y-63735117D01*
X116084880Y-63856076D01*
X116084881Y-63856079D01*
X116084882Y-63856081D01*
X116150436Y-63996663D01*
X116177944Y-64055654D01*
X116304251Y-64236038D01*
X116459962Y-64391749D01*
X116640346Y-64518056D01*
X116839924Y-64611120D01*
X117052629Y-64668115D01*
X117209322Y-64681823D01*
X117271998Y-64687307D01*
X117272000Y-64687307D01*
X117272002Y-64687307D01*
X117326842Y-64682509D01*
X117491371Y-64668115D01*
X117704076Y-64611120D01*
X117903654Y-64518056D01*
X118084038Y-64391749D01*
X118239749Y-64236038D01*
X118366056Y-64055654D01*
X118459120Y-63856076D01*
X118516115Y-63643371D01*
X118532931Y-63451155D01*
X118535307Y-63424002D01*
X120888693Y-63424002D01*
X120907884Y-63643365D01*
X120907885Y-63643372D01*
X120922136Y-63696555D01*
X120964880Y-63856076D01*
X120964881Y-63856079D01*
X120964882Y-63856081D01*
X121030436Y-63996663D01*
X121057944Y-64055654D01*
X121184251Y-64236038D01*
X121339962Y-64391749D01*
X121520346Y-64518056D01*
X121719924Y-64611120D01*
X121932629Y-64668115D01*
X122089322Y-64681823D01*
X122151998Y-64687307D01*
X122152000Y-64687307D01*
X122152002Y-64687307D01*
X122206842Y-64682509D01*
X122371371Y-64668115D01*
X122584076Y-64611120D01*
X122783654Y-64518056D01*
X122964038Y-64391749D01*
X123119749Y-64236038D01*
X123246056Y-64055654D01*
X123303716Y-63932001D01*
X126220389Y-63932001D01*
X126238795Y-64142388D01*
X126238797Y-64142399D01*
X126293455Y-64346387D01*
X126293457Y-64346391D01*
X126293458Y-64346395D01*
X126373505Y-64518057D01*
X126382714Y-64537806D01*
X126382716Y-64537810D01*
X126503848Y-64710804D01*
X126503853Y-64710810D01*
X126653189Y-64860146D01*
X126653195Y-64860151D01*
X126826189Y-64981283D01*
X126826191Y-64981284D01*
X126826194Y-64981286D01*
X127017605Y-65070542D01*
X127221606Y-65125204D01*
X127371887Y-65138351D01*
X127431998Y-65143611D01*
X127432000Y-65143611D01*
X127432002Y-65143611D01*
X127484598Y-65139009D01*
X127642394Y-65125204D01*
X127846395Y-65070542D01*
X128037806Y-64981286D01*
X128210809Y-64860148D01*
X128360148Y-64710809D01*
X128481286Y-64537806D01*
X128570542Y-64346395D01*
X128625204Y-64142394D01*
X128643611Y-63932000D01*
X128625204Y-63721606D01*
X128570542Y-63517605D01*
X128481286Y-63326195D01*
X128380217Y-63181853D01*
X128360149Y-63153192D01*
X128304004Y-63097047D01*
X128210809Y-63003852D01*
X128210805Y-63003849D01*
X128210804Y-63003848D01*
X128037810Y-62882716D01*
X128037806Y-62882714D01*
X127960318Y-62846581D01*
X127846395Y-62793458D01*
X127846391Y-62793457D01*
X127846387Y-62793455D01*
X127642399Y-62738797D01*
X127642395Y-62738796D01*
X127642394Y-62738796D01*
X127642393Y-62738795D01*
X127642388Y-62738795D01*
X127432002Y-62720389D01*
X127431998Y-62720389D01*
X127221611Y-62738795D01*
X127221600Y-62738797D01*
X127017612Y-62793455D01*
X127017603Y-62793459D01*
X126826196Y-62882713D01*
X126826194Y-62882714D01*
X126653188Y-63003853D01*
X126503853Y-63153188D01*
X126382714Y-63326194D01*
X126382713Y-63326196D01*
X126293459Y-63517603D01*
X126293455Y-63517612D01*
X126238797Y-63721600D01*
X126238795Y-63721611D01*
X126220389Y-63931998D01*
X126220389Y-63932001D01*
X123303716Y-63932001D01*
X123339120Y-63856076D01*
X123396115Y-63643371D01*
X123412931Y-63451155D01*
X123415307Y-63424002D01*
X123415307Y-63423997D01*
X123401747Y-63269010D01*
X123396115Y-63204629D01*
X123339120Y-62991924D01*
X123246056Y-62792347D01*
X123246054Y-62792344D01*
X123246053Y-62792342D01*
X123163924Y-62675050D01*
X123119749Y-62611962D01*
X122964038Y-62456251D01*
X122783654Y-62329944D01*
X122783650Y-62329942D01*
X122584081Y-62236882D01*
X122584079Y-62236881D01*
X122584076Y-62236880D01*
X122432777Y-62196339D01*
X122371372Y-62179885D01*
X122371365Y-62179884D01*
X122152002Y-62160693D01*
X122151998Y-62160693D01*
X121932634Y-62179884D01*
X121932627Y-62179885D01*
X121719920Y-62236881D01*
X121520346Y-62329944D01*
X121520342Y-62329946D01*
X121339967Y-62456247D01*
X121339960Y-62456252D01*
X121184252Y-62611960D01*
X121184247Y-62611967D01*
X121057946Y-62792342D01*
X121057944Y-62792346D01*
X120964881Y-62991920D01*
X120907885Y-63204627D01*
X120907884Y-63204634D01*
X120888693Y-63423997D01*
X120888693Y-63424002D01*
X118535307Y-63424002D01*
X118535307Y-63423997D01*
X118521747Y-63269010D01*
X118516115Y-63204629D01*
X118459120Y-62991924D01*
X118366056Y-62792347D01*
X118366054Y-62792344D01*
X118366053Y-62792342D01*
X118283924Y-62675050D01*
X118239749Y-62611962D01*
X118084038Y-62456251D01*
X117903654Y-62329944D01*
X117903650Y-62329942D01*
X117704081Y-62236882D01*
X117704079Y-62236881D01*
X117704076Y-62236880D01*
X117583118Y-62204469D01*
X117523460Y-62168104D01*
X117492931Y-62105257D01*
X117501226Y-62035882D01*
X117527530Y-61997017D01*
X118281344Y-61243203D01*
X118342665Y-61209720D01*
X118412357Y-61214704D01*
X118468290Y-61256576D01*
X118492243Y-61317003D01*
X118510781Y-61481541D01*
X118510782Y-61481546D01*
X118536197Y-61554177D01*
X118568469Y-61646406D01*
X118570958Y-61653517D01*
X118633321Y-61752767D01*
X118667889Y-61807781D01*
X118796719Y-61936611D01*
X118950985Y-62033543D01*
X119122953Y-62093716D01*
X119122953Y-62093717D01*
X119122958Y-62093718D01*
X119303996Y-62114116D01*
X119304000Y-62114116D01*
X119304004Y-62114116D01*
X119485041Y-62093718D01*
X119485044Y-62093717D01*
X119485047Y-62093717D01*
X119657015Y-62033543D01*
X119811281Y-61936611D01*
X119811281Y-61936610D01*
X119817177Y-61932906D01*
X119818624Y-61935209D01*
X119871854Y-61913466D01*
X119900689Y-61913879D01*
X119903500Y-61914250D01*
X119903501Y-61914250D01*
X119927709Y-61911063D01*
X119941461Y-61909252D01*
X119941474Y-61909251D01*
X119943381Y-61909000D01*
X119943385Y-61909000D01*
X120042956Y-61895891D01*
X120042956Y-61895892D01*
X120042960Y-61895890D01*
X120062351Y-61893338D01*
X120210376Y-61832024D01*
X120305572Y-61758977D01*
X120305573Y-61758975D01*
X120313664Y-61752767D01*
X120313671Y-61752761D01*
X120328736Y-61741202D01*
X120337487Y-61734487D01*
X120359510Y-61705785D01*
X120364838Y-61699709D01*
X120672546Y-61392001D01*
X128760389Y-61392001D01*
X128778795Y-61602388D01*
X128778797Y-61602399D01*
X128833455Y-61806387D01*
X128833457Y-61806391D01*
X128833458Y-61806395D01*
X128903348Y-61956276D01*
X128922714Y-61997806D01*
X128922716Y-61997810D01*
X129043848Y-62170804D01*
X129043853Y-62170810D01*
X129193189Y-62320146D01*
X129193195Y-62320151D01*
X129366189Y-62441283D01*
X129366191Y-62441284D01*
X129366194Y-62441286D01*
X129557605Y-62530542D01*
X129557611Y-62530543D01*
X129557612Y-62530544D01*
X129606709Y-62543699D01*
X129761606Y-62585204D01*
X129911887Y-62598351D01*
X129971998Y-62603611D01*
X129972000Y-62603611D01*
X129972002Y-62603611D01*
X130024598Y-62599009D01*
X130182394Y-62585204D01*
X130386395Y-62530542D01*
X130577806Y-62441286D01*
X130750809Y-62320148D01*
X130900148Y-62170809D01*
X131021286Y-61997806D01*
X131110542Y-61806395D01*
X131165204Y-61602394D01*
X131183611Y-61392000D01*
X131165204Y-61181606D01*
X131117659Y-61004167D01*
X131110544Y-60977612D01*
X131110543Y-60977611D01*
X131110542Y-60977605D01*
X131021286Y-60786195D01*
X130928360Y-60653482D01*
X130900149Y-60613192D01*
X130830873Y-60543916D01*
X130750809Y-60463852D01*
X130750805Y-60463849D01*
X130750804Y-60463848D01*
X130577810Y-60342716D01*
X130577806Y-60342714D01*
X130559644Y-60334245D01*
X130386395Y-60253458D01*
X130386391Y-60253457D01*
X130386387Y-60253455D01*
X130182399Y-60198797D01*
X130182395Y-60198796D01*
X130182394Y-60198796D01*
X130182393Y-60198795D01*
X130182388Y-60198795D01*
X129972002Y-60180389D01*
X129971998Y-60180389D01*
X129761611Y-60198795D01*
X129761600Y-60198797D01*
X129557612Y-60253455D01*
X129557603Y-60253459D01*
X129366196Y-60342713D01*
X129366194Y-60342714D01*
X129193188Y-60463853D01*
X129043853Y-60613188D01*
X128922714Y-60786194D01*
X128922713Y-60786196D01*
X128833459Y-60977603D01*
X128833455Y-60977612D01*
X128778797Y-61181600D01*
X128778795Y-61181611D01*
X128760389Y-61391998D01*
X128760389Y-61392001D01*
X120672546Y-61392001D01*
X127323202Y-54741345D01*
X127329293Y-54736003D01*
X127357987Y-54713987D01*
X127376267Y-54690164D01*
X127382475Y-54682073D01*
X127382477Y-54682072D01*
X127453726Y-54589217D01*
X127457544Y-54584705D01*
X127461996Y-54579925D01*
X127465462Y-54573922D01*
X127468614Y-54569813D01*
X127468375Y-54568437D01*
X127477020Y-54534978D01*
X127516838Y-54438850D01*
X127532500Y-54319885D01*
X127532500Y-54319884D01*
X127532723Y-54318191D01*
X127532726Y-54318160D01*
X127537750Y-54280000D01*
X127533030Y-54244151D01*
X127532500Y-54236054D01*
X127532500Y-52924793D01*
X127552185Y-52857754D01*
X127559562Y-52847469D01*
X127560105Y-52846786D01*
X127560111Y-52846781D01*
X127657043Y-52692515D01*
X127717217Y-52520547D01*
X127717218Y-52520541D01*
X127737616Y-52339503D01*
X127737616Y-52339496D01*
X127717218Y-52158458D01*
X127717217Y-52158453D01*
X127700711Y-52111281D01*
X127657043Y-51986485D01*
X127560111Y-51832219D01*
X127560110Y-51832218D01*
X127560109Y-51832216D01*
X127559549Y-51831514D01*
X127559328Y-51830974D01*
X127556406Y-51826323D01*
X127557221Y-51825810D01*
X127533144Y-51766826D01*
X127532500Y-51754206D01*
X127532500Y-51535409D01*
X127552185Y-51468370D01*
X127568814Y-51447733D01*
X128472640Y-50543907D01*
X128533961Y-50510424D01*
X128600584Y-50514309D01*
X128621365Y-50521444D01*
X128843431Y-50558500D01*
X129068569Y-50558500D01*
X129290635Y-50521444D01*
X129503574Y-50448342D01*
X129701576Y-50341189D01*
X129879240Y-50202906D01*
X129979000Y-50094539D01*
X130031715Y-50037276D01*
X130031715Y-50037275D01*
X130031722Y-50037268D01*
X130122193Y-49898790D01*
X130175338Y-49853437D01*
X130244569Y-49844013D01*
X130307905Y-49873515D01*
X130329804Y-49898787D01*
X130420278Y-50037268D01*
X130420283Y-50037273D01*
X130420284Y-50037276D01*
X130546968Y-50174889D01*
X130572760Y-50202906D01*
X130750424Y-50341189D01*
X130750425Y-50341189D01*
X130750427Y-50341191D01*
X130839948Y-50389637D01*
X130948426Y-50448342D01*
X131161365Y-50521444D01*
X131383431Y-50558500D01*
X131608569Y-50558500D01*
X131830635Y-50521444D01*
X132043574Y-50448342D01*
X132241576Y-50341189D01*
X132419240Y-50202906D01*
X132519000Y-50094539D01*
X132571715Y-50037276D01*
X132571715Y-50037275D01*
X132571722Y-50037268D01*
X132662193Y-49898790D01*
X132715338Y-49853437D01*
X132784569Y-49844013D01*
X132847905Y-49873515D01*
X132869804Y-49898787D01*
X132960278Y-50037268D01*
X132960283Y-50037273D01*
X132960284Y-50037276D01*
X133086968Y-50174889D01*
X133112760Y-50202906D01*
X133290424Y-50341189D01*
X133290425Y-50341189D01*
X133290427Y-50341191D01*
X133379948Y-50389637D01*
X133488426Y-50448342D01*
X133701365Y-50521444D01*
X133923431Y-50558500D01*
X134148569Y-50558500D01*
X134370635Y-50521444D01*
X134583574Y-50448342D01*
X134781576Y-50341189D01*
X134959240Y-50202906D01*
X135059000Y-50094539D01*
X135111715Y-50037276D01*
X135111715Y-50037275D01*
X135111722Y-50037268D01*
X135202193Y-49898790D01*
X135255338Y-49853437D01*
X135324569Y-49844013D01*
X135387905Y-49873515D01*
G37*
%TD.AperFunction*%
%TA.AperFunction,Conductor*%
G36*
X144018627Y-64560185D02*
G01*
X144064382Y-64612989D01*
X144074326Y-64682147D01*
X144045301Y-64745703D01*
X144039269Y-64752181D01*
X143796801Y-64994649D01*
X143790698Y-65000001D01*
X143762013Y-65022013D01*
X143737520Y-65053931D01*
X143664476Y-65149123D01*
X143664474Y-65149125D01*
X143603369Y-65296650D01*
X143603161Y-65297150D01*
X143586968Y-65420150D01*
X143586969Y-65420151D01*
X143582250Y-65456000D01*
X143584846Y-65475722D01*
X143586969Y-65491843D01*
X143587500Y-65499945D01*
X143587500Y-67427054D01*
X143586969Y-67435151D01*
X143582250Y-67471000D01*
X143583003Y-67476721D01*
X143586970Y-67506861D01*
X143600448Y-67609234D01*
X143603162Y-67629852D01*
X143642179Y-67724048D01*
X143649648Y-67793517D01*
X143618373Y-67855996D01*
X143558283Y-67891648D01*
X143527618Y-67895500D01*
X138911411Y-67895500D01*
X138844372Y-67875815D01*
X138823730Y-67859181D01*
X136906337Y-65941788D01*
X136872852Y-65880465D01*
X136870798Y-65867989D01*
X136861218Y-65782956D01*
X136855015Y-65765228D01*
X136801043Y-65610985D01*
X136791790Y-65596259D01*
X136772791Y-65529024D01*
X136791790Y-65464320D01*
X136858377Y-65358349D01*
X136918551Y-65186381D01*
X136928132Y-65101339D01*
X136955197Y-65036929D01*
X136963661Y-65027554D01*
X137414397Y-64576819D01*
X137475721Y-64543334D01*
X137502079Y-64540500D01*
X143951588Y-64540500D01*
X144018627Y-64560185D01*
G37*
%TD.AperFunction*%
%TA.AperFunction,Conductor*%
G36*
X112542539Y-57448185D02*
G01*
X112588294Y-57500989D01*
X112599500Y-57552500D01*
X112599500Y-62104588D01*
X112579815Y-62171627D01*
X112563181Y-62192269D01*
X111427144Y-63328305D01*
X111365821Y-63361790D01*
X111296129Y-63356806D01*
X111246379Y-63322547D01*
X111122398Y-63181676D01*
X111122396Y-63181674D01*
X111122394Y-63181672D01*
X110942482Y-63036404D01*
X110942471Y-63036397D01*
X110910969Y-63018798D01*
X110862043Y-62968918D01*
X110847851Y-62900505D01*
X110872899Y-62835279D01*
X110900321Y-62808970D01*
X111050073Y-62704113D01*
X111050079Y-62704108D01*
X111217105Y-62537082D01*
X111352600Y-62343578D01*
X111452429Y-62129492D01*
X111452432Y-62129486D01*
X111509636Y-61916000D01*
X110457969Y-61916000D01*
X110490519Y-61865351D01*
X110529000Y-61734295D01*
X110529000Y-61597705D01*
X110490519Y-61466649D01*
X110457969Y-61416000D01*
X111509636Y-61416000D01*
X111509635Y-61415999D01*
X111452432Y-61202513D01*
X111452429Y-61202507D01*
X111352600Y-60988422D01*
X111352599Y-60988420D01*
X111217113Y-60794926D01*
X111075670Y-60653482D01*
X111042186Y-60592159D01*
X111047170Y-60522467D01*
X111089042Y-60466534D01*
X111098255Y-60460262D01*
X111101733Y-60458116D01*
X111101738Y-60458115D01*
X111252652Y-60365030D01*
X111378030Y-60239652D01*
X111471115Y-60088738D01*
X111526887Y-59920426D01*
X111537500Y-59816545D01*
X111537499Y-58515456D01*
X111526887Y-58411574D01*
X111471115Y-58243262D01*
X111378030Y-58092348D01*
X111252652Y-57966970D01*
X111124622Y-57888000D01*
X111101740Y-57873886D01*
X111101735Y-57873884D01*
X110933427Y-57818113D01*
X110829545Y-57807500D01*
X109278462Y-57807500D01*
X109278446Y-57807501D01*
X109174572Y-57818113D01*
X109006264Y-57873884D01*
X109006259Y-57873886D01*
X108855346Y-57966971D01*
X108729971Y-58092346D01*
X108636886Y-58243259D01*
X108636884Y-58243264D01*
X108581113Y-58411572D01*
X108570500Y-58515447D01*
X108570500Y-59816537D01*
X108570501Y-59816553D01*
X108581113Y-59920426D01*
X108636885Y-60088738D01*
X108729970Y-60239652D01*
X108855348Y-60365030D01*
X109006262Y-60458115D01*
X109006266Y-60458116D01*
X109009745Y-60460262D01*
X109056469Y-60512210D01*
X109067692Y-60581173D01*
X109039848Y-60645255D01*
X109032330Y-60653482D01*
X108890891Y-60794921D01*
X108755399Y-60988421D01*
X108655570Y-61202507D01*
X108655567Y-61202513D01*
X108598364Y-61415999D01*
X108598364Y-61416000D01*
X109650031Y-61416000D01*
X109617481Y-61466649D01*
X109579000Y-61597705D01*
X109579000Y-61734295D01*
X109617481Y-61865351D01*
X109650031Y-61916000D01*
X108598364Y-61916000D01*
X108655567Y-62129486D01*
X108655570Y-62129492D01*
X108755399Y-62343577D01*
X108755400Y-62343579D01*
X108890886Y-62537073D01*
X108890891Y-62537079D01*
X109057920Y-62704108D01*
X109057926Y-62704113D01*
X109208910Y-62809833D01*
X109252535Y-62864410D01*
X109259729Y-62933908D01*
X109228206Y-62996263D01*
X109207224Y-63014143D01*
X109072487Y-63105209D01*
X109072477Y-63105217D01*
X108905528Y-63265223D01*
X108768013Y-63451155D01*
X108663905Y-63657641D01*
X108596188Y-63878759D01*
X108566816Y-64108135D01*
X108576630Y-64339172D01*
X108576630Y-64339178D01*
X108625351Y-64565240D01*
X108711572Y-64779809D01*
X108832820Y-64976729D01*
X108848592Y-64994649D01*
X108985602Y-65150324D01*
X108985605Y-65150327D01*
X109165517Y-65295595D01*
X109165521Y-65295598D01*
X109165524Y-65295600D01*
X109189565Y-65309030D01*
X109238491Y-65358908D01*
X109252685Y-65427320D01*
X109227639Y-65492547D01*
X109198530Y-65520019D01*
X109072482Y-65605213D01*
X109072477Y-65605217D01*
X108934063Y-65737875D01*
X108872042Y-65770051D01*
X108802472Y-65763587D01*
X108760582Y-65736033D01*
X108283093Y-65258544D01*
X107756819Y-64732269D01*
X107723334Y-64670946D01*
X107720500Y-64644588D01*
X107720500Y-58647410D01*
X107740185Y-58580371D01*
X107756814Y-58559734D01*
X108851730Y-57464819D01*
X108913053Y-57431334D01*
X108939411Y-57428500D01*
X112475500Y-57428500D01*
X112542539Y-57448185D01*
G37*
%TD.AperFunction*%
%TA.AperFunction,Conductor*%
G36*
X142435628Y-62528185D02*
G01*
X142456270Y-62544819D01*
X143023270Y-63111819D01*
X143056755Y-63173142D01*
X143051771Y-63242834D01*
X143009899Y-63298767D01*
X142944435Y-63323184D01*
X142935589Y-63323500D01*
X137334759Y-63323500D01*
X137267720Y-63303815D01*
X137221965Y-63251011D01*
X137212021Y-63181853D01*
X137241046Y-63118297D01*
X137247078Y-63111819D01*
X137435278Y-62923620D01*
X137814078Y-62544819D01*
X137875402Y-62511334D01*
X137901760Y-62508500D01*
X142368589Y-62508500D01*
X142435628Y-62528185D01*
G37*
%TD.AperFunction*%
%TA.AperFunction,Conductor*%
G36*
X125231461Y-49868072D02*
G01*
X125251130Y-49890048D01*
X125377890Y-50071078D01*
X125544917Y-50238105D01*
X125666673Y-50323360D01*
X125710297Y-50377937D01*
X125717490Y-50447436D01*
X125685968Y-50509790D01*
X125625738Y-50545204D01*
X125623145Y-50545825D01*
X125618961Y-50546779D01*
X125446982Y-50606958D01*
X125292718Y-50703889D01*
X125163889Y-50832718D01*
X125066958Y-50986982D01*
X125006782Y-51158953D01*
X125006781Y-51158958D01*
X124986384Y-51339996D01*
X124986384Y-51344050D01*
X124985642Y-51346573D01*
X124985604Y-51346919D01*
X124985543Y-51346912D01*
X124966699Y-51411089D01*
X124950065Y-51431731D01*
X114315731Y-62066065D01*
X114254408Y-62099550D01*
X114228050Y-62102384D01*
X114223996Y-62102384D01*
X114042958Y-62122781D01*
X114042950Y-62122783D01*
X113981454Y-62144302D01*
X113911676Y-62147863D01*
X113851048Y-62113134D01*
X113818821Y-62051141D01*
X113816500Y-62027260D01*
X113816500Y-57631410D01*
X113836185Y-57564371D01*
X113852819Y-57543729D01*
X117332279Y-54064269D01*
X120852640Y-50543907D01*
X120913961Y-50510424D01*
X120980584Y-50514309D01*
X121001365Y-50521444D01*
X121223431Y-50558500D01*
X121448569Y-50558500D01*
X121670635Y-50521444D01*
X121883574Y-50448342D01*
X122081576Y-50341189D01*
X122259240Y-50202906D01*
X122359000Y-50094539D01*
X122411715Y-50037276D01*
X122411715Y-50037275D01*
X122411722Y-50037268D01*
X122502193Y-49898790D01*
X122555338Y-49853437D01*
X122624569Y-49844013D01*
X122687905Y-49873515D01*
X122709804Y-49898787D01*
X122800278Y-50037268D01*
X122800283Y-50037273D01*
X122800284Y-50037276D01*
X122926968Y-50174889D01*
X122952760Y-50202906D01*
X123130424Y-50341189D01*
X123130425Y-50341189D01*
X123130427Y-50341191D01*
X123219948Y-50389637D01*
X123328426Y-50448342D01*
X123541365Y-50521444D01*
X123763431Y-50558500D01*
X123988569Y-50558500D01*
X124210635Y-50521444D01*
X124423574Y-50448342D01*
X124621576Y-50341189D01*
X124799240Y-50202906D01*
X124899000Y-50094539D01*
X124951715Y-50037276D01*
X124951715Y-50037275D01*
X124951722Y-50037268D01*
X125045749Y-49893347D01*
X125098894Y-49847994D01*
X125168125Y-49838570D01*
X125231461Y-49868072D01*
G37*
%TD.AperFunction*%
%TA.AperFunction,Conductor*%
G36*
X142290949Y-54259485D02*
G01*
X142321103Y-54281652D01*
X143525181Y-55485730D01*
X143558666Y-55547053D01*
X143561500Y-55573411D01*
X143561500Y-58274054D01*
X143560969Y-58282156D01*
X143556250Y-58317998D01*
X143560970Y-58353860D01*
X143569140Y-58415914D01*
X143577160Y-58476842D01*
X143577163Y-58476854D01*
X143638473Y-58624871D01*
X143638473Y-58624872D01*
X143638475Y-58624875D01*
X143638476Y-58624876D01*
X143672984Y-58669848D01*
X143711525Y-58720074D01*
X143711526Y-58720075D01*
X143736012Y-58751986D01*
X143764698Y-58773998D01*
X143770794Y-58779343D01*
X144180331Y-59188880D01*
X144555270Y-59563819D01*
X144588755Y-59625142D01*
X144583771Y-59694834D01*
X144541899Y-59750767D01*
X144476435Y-59775184D01*
X144467589Y-59775500D01*
X137594517Y-59775500D01*
X137527478Y-59755815D01*
X137506836Y-59739181D01*
X137179299Y-59411644D01*
X136814491Y-59046835D01*
X136814485Y-59046830D01*
X136814481Y-59046826D01*
X136692153Y-58945823D01*
X136647984Y-58921705D01*
X136566719Y-58877331D01*
X136517315Y-58827927D01*
X136502463Y-58759654D01*
X136526880Y-58694190D01*
X136582813Y-58652318D01*
X136626147Y-58644500D01*
X136844093Y-58644500D01*
X136844097Y-58644500D01*
X136877081Y-58636970D01*
X136885244Y-58635108D01*
X136892106Y-58633942D01*
X136899928Y-58633060D01*
X136934047Y-58629217D01*
X136973906Y-58615269D01*
X136980542Y-58613357D01*
X137021720Y-58603959D01*
X137059758Y-58585639D01*
X137066173Y-58582983D01*
X137106015Y-58569043D01*
X137141752Y-58546586D01*
X137147830Y-58543226D01*
X137185870Y-58524909D01*
X137218885Y-58498579D01*
X137224535Y-58494570D01*
X137260281Y-58472111D01*
X137389111Y-58343281D01*
X137389111Y-58343280D01*
X140479620Y-55252770D01*
X140540941Y-55219287D01*
X140583041Y-55217457D01*
X140776135Y-55242184D01*
X141007178Y-55232369D01*
X141233238Y-55183649D01*
X141447813Y-55097426D01*
X141644730Y-54976179D01*
X141818324Y-54823398D01*
X141963600Y-54643476D01*
X142076380Y-54441591D01*
X142116506Y-54328021D01*
X142157398Y-54271372D01*
X142222429Y-54245821D01*
X142290949Y-54259485D01*
G37*
%TD.AperFunction*%
%TA.AperFunction,Conductor*%
G36*
X163484404Y-46755185D02*
G01*
X163505046Y-46771819D01*
X165928181Y-49194953D01*
X165961666Y-49256276D01*
X165964500Y-49282634D01*
X165964500Y-59315019D01*
X165961963Y-59334292D01*
X165964264Y-59360591D01*
X165964500Y-59365997D01*
X165964500Y-59373315D01*
X165965769Y-59380516D01*
X165966474Y-59385873D01*
X165967181Y-59393955D01*
X165971651Y-59403541D01*
X165978451Y-59411644D01*
X165978452Y-59411645D01*
X165979500Y-59412250D01*
X166005185Y-59431958D01*
X168468182Y-61894955D01*
X168501666Y-61956276D01*
X168504500Y-61982634D01*
X168504500Y-96107363D01*
X168484815Y-96174402D01*
X168468181Y-96195044D01*
X166018418Y-98644806D01*
X166003002Y-98656636D01*
X165986024Y-98676868D01*
X165982374Y-98680851D01*
X165977197Y-98686027D01*
X165972997Y-98692026D01*
X165969710Y-98696309D01*
X165964501Y-98702517D01*
X165960881Y-98712463D01*
X165959960Y-98722998D01*
X165960274Y-98724169D01*
X165964500Y-98756265D01*
X165964500Y-99234951D01*
X165964201Y-99241033D01*
X165952505Y-99359778D01*
X165947763Y-99383618D01*
X165937337Y-99417990D01*
X165917832Y-99482290D01*
X165915789Y-99489024D01*
X165906486Y-99511482D01*
X165854561Y-99608627D01*
X165841056Y-99628839D01*
X165771176Y-99713988D01*
X165753988Y-99731176D01*
X165668839Y-99801056D01*
X165648627Y-99814561D01*
X165551482Y-99866486D01*
X165529028Y-99875787D01*
X165487028Y-99888528D01*
X165423618Y-99907763D01*
X165399778Y-99912505D01*
X165281033Y-99924201D01*
X165274951Y-99924500D01*
X100765049Y-99924500D01*
X100758968Y-99924201D01*
X100640221Y-99912505D01*
X100616381Y-99907763D01*
X100599445Y-99902625D01*
X100510968Y-99875786D01*
X100488517Y-99866486D01*
X100391372Y-99814561D01*
X100371160Y-99801056D01*
X100286011Y-99731176D01*
X100268823Y-99713988D01*
X100198943Y-99628839D01*
X100185438Y-99608627D01*
X100169810Y-99579389D01*
X100133510Y-99511476D01*
X100124215Y-99489037D01*
X100092234Y-99383612D01*
X100087494Y-99359777D01*
X100075799Y-99241032D01*
X100075500Y-99234951D01*
X100075500Y-93396001D01*
X101926250Y-93396001D01*
X101931210Y-93433678D01*
X101931212Y-93433704D01*
X101944607Y-93535455D01*
X101944608Y-93535455D01*
X101947161Y-93554851D01*
X102008474Y-93702873D01*
X102008476Y-93702876D01*
X102081523Y-93798072D01*
X102081525Y-93798074D01*
X102086688Y-93804802D01*
X102106012Y-93829987D01*
X102134698Y-93851998D01*
X102140794Y-93857343D01*
X103615222Y-95331771D01*
X103620563Y-95337861D01*
X103630494Y-95350803D01*
X103642577Y-95366551D01*
X103642578Y-95366552D01*
X103642580Y-95366554D01*
X103666395Y-95384828D01*
X103672851Y-95389782D01*
X103672875Y-95389802D01*
X103748734Y-95448010D01*
X103769691Y-95464091D01*
X103769693Y-95464091D01*
X103769695Y-95464093D01*
X103843703Y-95494747D01*
X103917716Y-95525405D01*
X103937103Y-95527957D01*
X103937110Y-95527960D01*
X103937110Y-95527958D01*
X104036682Y-95541067D01*
X104036683Y-95541067D01*
X104038696Y-95541332D01*
X104038715Y-95541333D01*
X104076567Y-95546317D01*
X104076568Y-95546317D01*
X104087039Y-95544938D01*
X104112415Y-95541597D01*
X104120513Y-95541067D01*
X106052378Y-95541067D01*
X106119417Y-95560752D01*
X106165172Y-95613556D01*
X106175116Y-95682714D01*
X106146091Y-95746270D01*
X106100982Y-95779144D01*
X106069618Y-95792506D01*
X106069610Y-95792510D01*
X106069610Y-95792511D01*
X105863758Y-95922684D01*
X105681452Y-96084192D01*
X105681450Y-96084193D01*
X105681448Y-96084196D01*
X105527418Y-96272850D01*
X105527413Y-96272856D01*
X105405641Y-96483770D01*
X105405636Y-96483780D01*
X105319271Y-96711505D01*
X105270552Y-96950141D01*
X105270551Y-96950149D01*
X105260744Y-97193499D01*
X105260744Y-97193500D01*
X105290102Y-97435288D01*
X105356521Y-97664589D01*
X105357865Y-97669229D01*
X105371894Y-97698794D01*
X105462277Y-97889274D01*
X105600633Y-98089715D01*
X105600634Y-98089716D01*
X105769348Y-98265367D01*
X105964055Y-98411680D01*
X105964057Y-98411681D01*
X105964061Y-98411684D01*
X106076360Y-98470623D01*
X106179718Y-98524870D01*
X106179720Y-98524870D01*
X106179721Y-98524871D01*
X106273575Y-98556204D01*
X106410743Y-98601998D01*
X106410744Y-98601998D01*
X106651144Y-98641067D01*
X106651147Y-98641067D01*
X109033713Y-98641067D01*
X109033723Y-98641067D01*
X109215694Y-98626377D01*
X109452174Y-98568090D01*
X109676242Y-98472623D01*
X109882094Y-98342450D01*
X110064400Y-98180942D01*
X110218436Y-97992281D01*
X110292961Y-97863198D01*
X110340210Y-97781363D01*
X110340211Y-97781360D01*
X110340215Y-97781354D01*
X110426582Y-97553624D01*
X110475300Y-97314988D01*
X110485107Y-97071628D01*
X110478521Y-97017385D01*
X110455749Y-96829845D01*
X110395758Y-96622734D01*
X110387987Y-96595905D01*
X110283576Y-96375863D01*
X110283575Y-96375862D01*
X110283574Y-96375859D01*
X110170232Y-96211656D01*
X110145219Y-96175419D01*
X110129184Y-96158725D01*
X109976503Y-95999766D01*
X109781796Y-95853453D01*
X109781792Y-95853450D01*
X109781791Y-95853450D01*
X109752133Y-95837884D01*
X109632057Y-95774863D01*
X109581845Y-95726279D01*
X109565870Y-95658260D01*
X109589205Y-95592402D01*
X109644441Y-95549615D01*
X109689683Y-95541067D01*
X122803487Y-95541067D01*
X122811584Y-95541597D01*
X122836960Y-95544938D01*
X122847432Y-95546317D01*
X122847433Y-95546317D01*
X122847434Y-95546317D01*
X122883279Y-95541598D01*
X122885394Y-95541319D01*
X122885407Y-95541318D01*
X122887314Y-95541067D01*
X122887318Y-95541067D01*
X122986889Y-95527958D01*
X122986889Y-95527959D01*
X122986893Y-95527957D01*
X123006284Y-95525405D01*
X123154309Y-95464091D01*
X123249505Y-95391044D01*
X123249506Y-95391042D01*
X123257597Y-95384834D01*
X123257604Y-95384828D01*
X123281416Y-95366557D01*
X123281415Y-95366557D01*
X123281420Y-95366554D01*
X123303443Y-95337852D01*
X123308771Y-95331776D01*
X124783202Y-93857345D01*
X124789293Y-93852003D01*
X124817987Y-93829987D01*
X124837318Y-93804792D01*
X124837324Y-93804787D01*
X124842476Y-93798072D01*
X124842478Y-93798071D01*
X124915524Y-93702876D01*
X124976838Y-93554851D01*
X124979391Y-93535456D01*
X124992500Y-93435885D01*
X124992500Y-93435879D01*
X124994639Y-93419633D01*
X124997750Y-93396001D01*
X124997750Y-93395999D01*
X124993331Y-93362433D01*
X124993030Y-93360151D01*
X124992500Y-93352054D01*
X124992500Y-83031411D01*
X125012185Y-82964372D01*
X125028819Y-82943730D01*
X127139730Y-80832819D01*
X127201053Y-80799334D01*
X127227411Y-80796500D01*
X128575261Y-80796500D01*
X128642300Y-80816185D01*
X128688055Y-80868989D01*
X128697999Y-80938147D01*
X128692304Y-80961447D01*
X128680240Y-80995926D01*
X128670781Y-81022958D01*
X128661200Y-81107992D01*
X128634133Y-81172405D01*
X128625661Y-81181788D01*
X127540801Y-82266649D01*
X127534698Y-82272000D01*
X127506013Y-82294012D01*
X127481520Y-82325931D01*
X127408476Y-82421123D01*
X127408475Y-82421125D01*
X127393536Y-82457192D01*
X127354322Y-82551865D01*
X127353943Y-82552781D01*
X127347162Y-82569149D01*
X127347161Y-82569150D01*
X127330968Y-82692150D01*
X127330969Y-82692151D01*
X127326250Y-82728000D01*
X127330409Y-82759595D01*
X127330969Y-82763843D01*
X127331500Y-82771945D01*
X127331500Y-92584588D01*
X127311815Y-92651627D01*
X127295181Y-92672269D01*
X124492801Y-95474649D01*
X124486698Y-95480000D01*
X124458013Y-95502012D01*
X124433520Y-95533931D01*
X124360476Y-95629123D01*
X124360474Y-95629125D01*
X124316673Y-95734874D01*
X124299163Y-95777146D01*
X124299162Y-95777150D01*
X124282968Y-95900150D01*
X124282969Y-95900151D01*
X124278250Y-95936000D01*
X124282969Y-95971843D01*
X124283500Y-95979945D01*
X124283500Y-98432054D01*
X124282969Y-98440156D01*
X124278250Y-98475998D01*
X124282970Y-98511860D01*
X124294837Y-98601998D01*
X124299161Y-98634849D01*
X124299163Y-98634854D01*
X124360473Y-98782871D01*
X124360473Y-98782872D01*
X124360475Y-98782875D01*
X124360476Y-98782876D01*
X124387811Y-98818500D01*
X124433525Y-98878074D01*
X124433526Y-98878075D01*
X124458012Y-98909986D01*
X124486698Y-98931998D01*
X124492794Y-98937343D01*
X124938655Y-99383204D01*
X124943996Y-99389294D01*
X124952022Y-99399754D01*
X124966012Y-99417987D01*
X124997923Y-99442474D01*
X124997924Y-99442474D01*
X125049814Y-99482290D01*
X125093123Y-99515523D01*
X125093129Y-99515526D01*
X125167137Y-99546181D01*
X125241150Y-99576838D01*
X125360115Y-99592500D01*
X125360120Y-99592500D01*
X125361905Y-99592735D01*
X125361923Y-99592737D01*
X125385369Y-99595823D01*
X125399999Y-99597750D01*
X125400000Y-99597750D01*
X125400001Y-99597750D01*
X125410472Y-99596371D01*
X125435848Y-99593030D01*
X125443946Y-99592500D01*
X136532054Y-99592500D01*
X136540151Y-99593030D01*
X136565527Y-99596371D01*
X136575999Y-99597750D01*
X136576000Y-99597750D01*
X136576001Y-99597750D01*
X136611846Y-99593031D01*
X136613961Y-99592752D01*
X136613974Y-99592751D01*
X136615881Y-99592500D01*
X136615885Y-99592500D01*
X136715456Y-99579391D01*
X136715456Y-99579392D01*
X136715460Y-99579390D01*
X136734851Y-99576838D01*
X136882876Y-99515524D01*
X136978072Y-99442477D01*
X136978073Y-99442475D01*
X136986164Y-99436267D01*
X136986171Y-99436261D01*
X137009983Y-99417990D01*
X137009982Y-99417990D01*
X137009987Y-99417987D01*
X137032010Y-99389285D01*
X137037338Y-99383209D01*
X137616640Y-98803907D01*
X137677961Y-98770424D01*
X137744584Y-98774309D01*
X137765365Y-98781444D01*
X137987431Y-98818500D01*
X138212569Y-98818500D01*
X138434635Y-98781444D01*
X138455412Y-98774310D01*
X138525209Y-98771157D01*
X138583360Y-98803909D01*
X139162655Y-99383204D01*
X139167996Y-99389294D01*
X139176022Y-99399754D01*
X139190012Y-99417987D01*
X139221923Y-99442474D01*
X139221924Y-99442474D01*
X139273814Y-99482290D01*
X139317123Y-99515523D01*
X139317129Y-99515526D01*
X139391137Y-99546181D01*
X139465150Y-99576838D01*
X139584115Y-99592500D01*
X139584120Y-99592500D01*
X139585905Y-99592735D01*
X139585923Y-99592737D01*
X139609369Y-99595823D01*
X139623999Y-99597750D01*
X139624000Y-99597750D01*
X139624001Y-99597750D01*
X139634472Y-99596371D01*
X139659848Y-99593030D01*
X139667946Y-99592500D01*
X147200054Y-99592500D01*
X147208151Y-99593030D01*
X147233527Y-99596371D01*
X147243999Y-99597750D01*
X147244000Y-99597750D01*
X147244001Y-99597750D01*
X147279846Y-99593031D01*
X147281961Y-99592752D01*
X147281974Y-99592751D01*
X147283881Y-99592500D01*
X147283885Y-99592500D01*
X147383456Y-99579391D01*
X147383456Y-99579392D01*
X147383460Y-99579390D01*
X147402851Y-99576838D01*
X147550876Y-99515524D01*
X147646072Y-99442477D01*
X147646073Y-99442475D01*
X147654164Y-99436267D01*
X147654171Y-99436261D01*
X147677983Y-99417990D01*
X147677982Y-99417990D01*
X147677987Y-99417987D01*
X147700010Y-99389285D01*
X147705338Y-99383209D01*
X148659202Y-98429345D01*
X148665293Y-98424003D01*
X148693987Y-98401987D01*
X148714311Y-98375500D01*
X148718475Y-98370073D01*
X148718477Y-98370072D01*
X148791524Y-98274876D01*
X148852838Y-98126851D01*
X148864007Y-98042013D01*
X148868500Y-98007885D01*
X148868500Y-98007879D01*
X148868754Y-98005950D01*
X148873750Y-97968001D01*
X148873750Y-97967999D01*
X148872371Y-97957527D01*
X148869030Y-97932151D01*
X148868500Y-97924054D01*
X148868500Y-96747410D01*
X148888185Y-96680371D01*
X148904819Y-96659729D01*
X149084705Y-96479843D01*
X149273526Y-96291021D01*
X149334847Y-96257538D01*
X149404538Y-96262522D01*
X149460472Y-96304393D01*
X149484889Y-96369858D01*
X149477387Y-96422037D01*
X149448011Y-96500796D01*
X149448011Y-96500797D01*
X149441500Y-96561345D01*
X149441500Y-98358654D01*
X149448011Y-98419202D01*
X149448011Y-98419204D01*
X149487424Y-98524870D01*
X149499111Y-98556204D01*
X149586739Y-98673261D01*
X149703796Y-98760889D01*
X149840799Y-98811989D01*
X149868050Y-98814918D01*
X149901345Y-98818499D01*
X149901362Y-98818500D01*
X151698638Y-98818500D01*
X151698654Y-98818499D01*
X151725692Y-98815591D01*
X151759201Y-98811989D01*
X151896204Y-98760889D01*
X152013261Y-98673261D01*
X152100889Y-98556204D01*
X152146138Y-98434887D01*
X152188009Y-98378956D01*
X152253474Y-98354539D01*
X152321746Y-98369391D01*
X152353545Y-98394236D01*
X152416760Y-98462906D01*
X152594424Y-98601189D01*
X152594425Y-98601189D01*
X152594427Y-98601191D01*
X152668110Y-98641066D01*
X152792426Y-98708342D01*
X153005365Y-98781444D01*
X153227431Y-98818500D01*
X153452569Y-98818500D01*
X153674635Y-98781444D01*
X153887574Y-98708342D01*
X154085576Y-98601189D01*
X154263240Y-98462906D01*
X154374129Y-98342450D01*
X154415715Y-98297276D01*
X154415715Y-98297275D01*
X154415722Y-98297268D01*
X154506193Y-98158790D01*
X154559338Y-98113437D01*
X154628569Y-98104013D01*
X154691905Y-98133515D01*
X154713804Y-98158787D01*
X154804278Y-98297268D01*
X154804283Y-98297273D01*
X154804284Y-98297276D01*
X154956756Y-98462902D01*
X154956760Y-98462906D01*
X155134424Y-98601189D01*
X155134425Y-98601189D01*
X155134427Y-98601191D01*
X155208110Y-98641066D01*
X155332426Y-98708342D01*
X155545365Y-98781444D01*
X155767431Y-98818500D01*
X155992569Y-98818500D01*
X156214635Y-98781444D01*
X156427574Y-98708342D01*
X156625576Y-98601189D01*
X156803240Y-98462906D01*
X156914129Y-98342450D01*
X156955715Y-98297276D01*
X156955715Y-98297275D01*
X156955722Y-98297268D01*
X157046193Y-98158790D01*
X157099338Y-98113437D01*
X157168569Y-98104013D01*
X157231905Y-98133515D01*
X157253804Y-98158787D01*
X157344278Y-98297268D01*
X157344283Y-98297273D01*
X157344284Y-98297276D01*
X157496756Y-98462902D01*
X157496760Y-98462906D01*
X157674424Y-98601189D01*
X157674425Y-98601189D01*
X157674427Y-98601191D01*
X157748110Y-98641066D01*
X157872426Y-98708342D01*
X158085365Y-98781444D01*
X158307431Y-98818500D01*
X158532569Y-98818500D01*
X158754635Y-98781444D01*
X158967574Y-98708342D01*
X159165576Y-98601189D01*
X159343240Y-98462906D01*
X159454129Y-98342450D01*
X159495715Y-98297276D01*
X159495715Y-98297275D01*
X159495722Y-98297268D01*
X159586193Y-98158790D01*
X159639338Y-98113437D01*
X159708569Y-98104013D01*
X159771905Y-98133515D01*
X159793804Y-98158787D01*
X159884278Y-98297268D01*
X159884283Y-98297273D01*
X159884284Y-98297276D01*
X160036756Y-98462902D01*
X160036760Y-98462906D01*
X160214424Y-98601189D01*
X160214425Y-98601189D01*
X160214427Y-98601191D01*
X160288110Y-98641066D01*
X160412426Y-98708342D01*
X160625365Y-98781444D01*
X160847431Y-98818500D01*
X161072569Y-98818500D01*
X161294635Y-98781444D01*
X161507574Y-98708342D01*
X161705576Y-98601189D01*
X161883240Y-98462906D01*
X161994129Y-98342450D01*
X162035715Y-98297276D01*
X162035715Y-98297275D01*
X162035722Y-98297268D01*
X162126193Y-98158790D01*
X162179338Y-98113437D01*
X162248569Y-98104013D01*
X162311905Y-98133515D01*
X162333804Y-98158787D01*
X162424278Y-98297268D01*
X162424283Y-98297273D01*
X162424284Y-98297276D01*
X162576756Y-98462902D01*
X162576760Y-98462906D01*
X162754424Y-98601189D01*
X162754425Y-98601189D01*
X162754427Y-98601191D01*
X162828110Y-98641066D01*
X162952426Y-98708342D01*
X163165365Y-98781444D01*
X163387431Y-98818500D01*
X163612569Y-98818500D01*
X163834635Y-98781444D01*
X164047574Y-98708342D01*
X164245576Y-98601189D01*
X164423240Y-98462906D01*
X164534129Y-98342450D01*
X164575715Y-98297276D01*
X164575717Y-98297273D01*
X164575722Y-98297268D01*
X164698860Y-98108791D01*
X164789296Y-97902616D01*
X164844564Y-97684368D01*
X164845768Y-97669844D01*
X164863156Y-97460005D01*
X164863156Y-97459994D01*
X164844565Y-97235640D01*
X164844563Y-97235628D01*
X164789296Y-97017385D01*
X164759800Y-96950141D01*
X164698860Y-96811209D01*
X164682706Y-96786484D01*
X164575723Y-96622734D01*
X164575715Y-96622723D01*
X164423243Y-96457097D01*
X164423238Y-96457092D01*
X164303371Y-96363795D01*
X164245576Y-96318811D01*
X164245575Y-96318810D01*
X164245572Y-96318808D01*
X164047580Y-96211661D01*
X164047577Y-96211659D01*
X164047574Y-96211658D01*
X164047571Y-96211657D01*
X164047569Y-96211656D01*
X163834637Y-96138556D01*
X163612569Y-96101500D01*
X163387431Y-96101500D01*
X163165362Y-96138556D01*
X162952430Y-96211656D01*
X162952419Y-96211661D01*
X162754427Y-96318808D01*
X162754422Y-96318812D01*
X162576761Y-96457092D01*
X162576756Y-96457097D01*
X162424284Y-96622723D01*
X162424276Y-96622734D01*
X162333808Y-96761206D01*
X162280662Y-96806562D01*
X162211431Y-96815986D01*
X162148095Y-96786484D01*
X162126192Y-96761206D01*
X162035723Y-96622734D01*
X162035715Y-96622723D01*
X161883243Y-96457097D01*
X161883238Y-96457092D01*
X161763371Y-96363795D01*
X161705576Y-96318811D01*
X161705575Y-96318810D01*
X161705572Y-96318808D01*
X161507580Y-96211661D01*
X161507577Y-96211659D01*
X161507574Y-96211658D01*
X161507571Y-96211657D01*
X161507569Y-96211656D01*
X161294637Y-96138556D01*
X161072569Y-96101500D01*
X160847431Y-96101500D01*
X160625362Y-96138556D01*
X160412430Y-96211656D01*
X160412419Y-96211661D01*
X160214427Y-96318808D01*
X160214422Y-96318812D01*
X160036761Y-96457092D01*
X160036756Y-96457097D01*
X159884284Y-96622723D01*
X159884276Y-96622734D01*
X159793808Y-96761206D01*
X159740662Y-96806562D01*
X159671431Y-96815986D01*
X159608095Y-96786484D01*
X159586192Y-96761206D01*
X159495723Y-96622734D01*
X159495715Y-96622723D01*
X159343243Y-96457097D01*
X159343238Y-96457092D01*
X159223371Y-96363795D01*
X159165576Y-96318811D01*
X159165575Y-96318810D01*
X159165572Y-96318808D01*
X158967580Y-96211661D01*
X158967577Y-96211659D01*
X158967574Y-96211658D01*
X158967571Y-96211657D01*
X158967569Y-96211656D01*
X158754637Y-96138556D01*
X158532569Y-96101500D01*
X158307431Y-96101500D01*
X158085362Y-96138556D01*
X157872430Y-96211656D01*
X157872419Y-96211661D01*
X157674427Y-96318808D01*
X157674422Y-96318812D01*
X157496761Y-96457092D01*
X157496756Y-96457097D01*
X157344284Y-96622723D01*
X157344276Y-96622734D01*
X157253808Y-96761206D01*
X157200662Y-96806562D01*
X157131431Y-96815986D01*
X157068095Y-96786484D01*
X157046192Y-96761206D01*
X156955723Y-96622734D01*
X156955715Y-96622723D01*
X156803243Y-96457097D01*
X156803238Y-96457092D01*
X156683371Y-96363795D01*
X156625576Y-96318811D01*
X156625575Y-96318810D01*
X156625572Y-96318808D01*
X156427580Y-96211661D01*
X156427577Y-96211659D01*
X156427574Y-96211658D01*
X156427571Y-96211657D01*
X156427569Y-96211656D01*
X156214637Y-96138556D01*
X155992569Y-96101500D01*
X155767431Y-96101500D01*
X155545362Y-96138556D01*
X155332430Y-96211656D01*
X155332419Y-96211661D01*
X155134427Y-96318808D01*
X155134422Y-96318812D01*
X154956761Y-96457092D01*
X154956756Y-96457097D01*
X154804284Y-96622723D01*
X154804276Y-96622734D01*
X154713808Y-96761206D01*
X154660662Y-96806562D01*
X154591431Y-96815986D01*
X154528095Y-96786484D01*
X154506192Y-96761206D01*
X154415723Y-96622734D01*
X154415715Y-96622723D01*
X154263243Y-96457097D01*
X154263238Y-96457092D01*
X154143371Y-96363795D01*
X154085576Y-96318811D01*
X154085575Y-96318810D01*
X154085572Y-96318808D01*
X153887580Y-96211661D01*
X153887577Y-96211659D01*
X153887574Y-96211658D01*
X153887571Y-96211657D01*
X153887569Y-96211656D01*
X153674637Y-96138556D01*
X153452569Y-96101500D01*
X153227431Y-96101500D01*
X153005362Y-96138556D01*
X152792430Y-96211656D01*
X152792419Y-96211661D01*
X152594427Y-96318808D01*
X152594422Y-96318812D01*
X152416761Y-96457092D01*
X152353548Y-96525760D01*
X152293661Y-96561750D01*
X152223823Y-96559649D01*
X152166207Y-96520124D01*
X152146138Y-96485110D01*
X152100889Y-96363796D01*
X152067214Y-96318812D01*
X152013261Y-96246739D01*
X151896204Y-96159111D01*
X151851323Y-96142371D01*
X151759203Y-96108011D01*
X151698654Y-96101500D01*
X151698638Y-96101500D01*
X149901362Y-96101500D01*
X149901345Y-96101500D01*
X149840797Y-96108011D01*
X149840796Y-96108011D01*
X149762037Y-96137387D01*
X149692346Y-96142371D01*
X149631023Y-96108886D01*
X149597538Y-96047563D01*
X149602522Y-95977871D01*
X149631020Y-95933528D01*
X149999729Y-95564819D01*
X150061053Y-95531334D01*
X150087411Y-95528500D01*
X151264054Y-95528500D01*
X151272151Y-95529030D01*
X151289648Y-95531334D01*
X151307999Y-95533750D01*
X151308000Y-95533750D01*
X151308001Y-95533750D01*
X151343846Y-95529031D01*
X151345961Y-95528752D01*
X151345974Y-95528751D01*
X151347881Y-95528500D01*
X151347885Y-95528500D01*
X151447456Y-95515391D01*
X151447456Y-95515392D01*
X151447460Y-95515390D01*
X151466851Y-95512838D01*
X151614876Y-95451524D01*
X151710072Y-95378477D01*
X151710073Y-95378475D01*
X151718164Y-95372267D01*
X151718166Y-95372264D01*
X151741987Y-95353987D01*
X151764010Y-95325286D01*
X151769340Y-95319208D01*
X152302517Y-94786030D01*
X152363838Y-94752547D01*
X152403450Y-94750424D01*
X152428874Y-94753157D01*
X152441350Y-94754499D01*
X152441362Y-94754500D01*
X154238638Y-94754500D01*
X154238654Y-94754499D01*
X154265692Y-94751591D01*
X154299201Y-94747989D01*
X154436204Y-94696889D01*
X154553261Y-94609261D01*
X154640889Y-94492204D01*
X154686138Y-94370887D01*
X154728009Y-94314956D01*
X154793474Y-94290539D01*
X154861746Y-94305391D01*
X154893545Y-94330236D01*
X154956760Y-94398906D01*
X155134424Y-94537189D01*
X155134425Y-94537189D01*
X155134427Y-94537191D01*
X155194314Y-94569600D01*
X155332426Y-94644342D01*
X155545365Y-94717444D01*
X155767431Y-94754500D01*
X155992569Y-94754500D01*
X156214635Y-94717444D01*
X156427574Y-94644342D01*
X156625576Y-94537189D01*
X156803240Y-94398906D01*
X156905569Y-94287748D01*
X156955715Y-94233276D01*
X156955715Y-94233275D01*
X156955722Y-94233268D01*
X157046193Y-94094790D01*
X157099338Y-94049437D01*
X157168569Y-94040013D01*
X157231905Y-94069515D01*
X157253804Y-94094787D01*
X157344278Y-94233268D01*
X157344283Y-94233273D01*
X157344284Y-94233276D01*
X157496756Y-94398902D01*
X157496760Y-94398906D01*
X157674424Y-94537189D01*
X157674425Y-94537189D01*
X157674427Y-94537191D01*
X157734314Y-94569600D01*
X157872426Y-94644342D01*
X158085365Y-94717444D01*
X158307431Y-94754500D01*
X158532569Y-94754500D01*
X158754635Y-94717444D01*
X158967574Y-94644342D01*
X159165576Y-94537189D01*
X159343240Y-94398906D01*
X159445569Y-94287748D01*
X159495715Y-94233276D01*
X159495715Y-94233275D01*
X159495722Y-94233268D01*
X159589749Y-94089347D01*
X159642894Y-94043994D01*
X159712125Y-94034570D01*
X159775461Y-94064072D01*
X159795130Y-94086048D01*
X159921890Y-94267078D01*
X160088917Y-94434105D01*
X160282421Y-94569600D01*
X160496507Y-94669429D01*
X160496516Y-94669433D01*
X160710000Y-94726634D01*
X160710000Y-93831501D01*
X160817685Y-93880680D01*
X160924237Y-93896000D01*
X160995763Y-93896000D01*
X161102315Y-93880680D01*
X161210000Y-93831501D01*
X161210000Y-94726633D01*
X161423483Y-94669433D01*
X161423492Y-94669429D01*
X161637578Y-94569600D01*
X161831082Y-94434105D01*
X161998105Y-94267082D01*
X162133600Y-94073578D01*
X162233429Y-93859492D01*
X162233432Y-93859486D01*
X162290636Y-93646000D01*
X161393686Y-93646000D01*
X161419493Y-93605844D01*
X161460000Y-93467889D01*
X161460000Y-93324111D01*
X161419493Y-93186156D01*
X161393686Y-93146000D01*
X162290636Y-93146000D01*
X162290635Y-93145999D01*
X162233432Y-92932513D01*
X162233429Y-92932507D01*
X162133600Y-92718422D01*
X162133599Y-92718420D01*
X161998113Y-92524926D01*
X161998108Y-92524920D01*
X161831082Y-92357894D01*
X161637578Y-92222399D01*
X161423492Y-92122570D01*
X161423486Y-92122567D01*
X161210000Y-92065364D01*
X161210000Y-92960498D01*
X161102315Y-92911320D01*
X160995763Y-92896000D01*
X160924237Y-92896000D01*
X160817685Y-92911320D01*
X160710000Y-92960498D01*
X160710000Y-92065364D01*
X160709999Y-92065364D01*
X160496513Y-92122567D01*
X160496507Y-92122570D01*
X160282422Y-92222399D01*
X160282420Y-92222400D01*
X160088926Y-92357886D01*
X160088920Y-92357891D01*
X159921891Y-92524920D01*
X159921890Y-92524922D01*
X159795131Y-92705952D01*
X159740554Y-92749577D01*
X159671055Y-92756769D01*
X159608701Y-92725247D01*
X159589752Y-92702656D01*
X159495722Y-92558732D01*
X159495715Y-92558725D01*
X159495715Y-92558723D01*
X159343243Y-92393097D01*
X159343238Y-92393092D01*
X159165577Y-92254812D01*
X159165572Y-92254808D01*
X158967580Y-92147661D01*
X158967577Y-92147659D01*
X158967574Y-92147658D01*
X158967571Y-92147657D01*
X158967569Y-92147656D01*
X158754637Y-92074556D01*
X158532569Y-92037500D01*
X158307431Y-92037500D01*
X158085362Y-92074556D01*
X157872430Y-92147656D01*
X157872419Y-92147661D01*
X157674427Y-92254808D01*
X157674422Y-92254812D01*
X157496761Y-92393092D01*
X157496756Y-92393097D01*
X157344284Y-92558723D01*
X157344276Y-92558734D01*
X157253808Y-92697206D01*
X157200662Y-92742562D01*
X157131431Y-92751986D01*
X157068095Y-92722484D01*
X157046192Y-92697206D01*
X156982271Y-92599369D01*
X156955722Y-92558732D01*
X156955719Y-92558729D01*
X156955715Y-92558723D01*
X156803243Y-92393097D01*
X156803238Y-92393092D01*
X156625577Y-92254812D01*
X156625578Y-92254812D01*
X156625576Y-92254811D01*
X156615742Y-92249489D01*
X156553481Y-92215794D01*
X156503891Y-92166574D01*
X156488500Y-92106740D01*
X156488500Y-91051258D01*
X156508185Y-90984219D01*
X156553484Y-90942203D01*
X156625566Y-90903195D01*
X156625572Y-90903191D01*
X156625576Y-90903189D01*
X156803240Y-90764906D01*
X156924594Y-90633082D01*
X156955715Y-90599276D01*
X156955715Y-90599275D01*
X156955722Y-90599268D01*
X157046193Y-90460790D01*
X157099338Y-90415437D01*
X157168569Y-90406013D01*
X157231905Y-90435515D01*
X157253804Y-90460787D01*
X157344278Y-90599268D01*
X157344283Y-90599273D01*
X157344284Y-90599276D01*
X157496756Y-90764902D01*
X157496761Y-90764907D01*
X157513602Y-90778015D01*
X157674424Y-90903189D01*
X157674425Y-90903189D01*
X157674427Y-90903191D01*
X157776698Y-90958537D01*
X157872426Y-91010342D01*
X158085365Y-91083444D01*
X158307431Y-91120500D01*
X158532569Y-91120500D01*
X158754635Y-91083444D01*
X158967574Y-91010342D01*
X159165576Y-90903189D01*
X159343240Y-90764906D01*
X159464594Y-90633082D01*
X159495715Y-90599276D01*
X159495715Y-90599275D01*
X159495722Y-90599268D01*
X159589749Y-90455347D01*
X159642894Y-90409994D01*
X159712125Y-90400570D01*
X159775461Y-90430072D01*
X159795130Y-90452048D01*
X159921890Y-90633078D01*
X160088917Y-90800105D01*
X160282421Y-90935600D01*
X160496507Y-91035429D01*
X160496516Y-91035433D01*
X160710000Y-91092634D01*
X160710000Y-90197501D01*
X160817685Y-90246680D01*
X160924237Y-90262000D01*
X160995763Y-90262000D01*
X161102315Y-90246680D01*
X161210000Y-90197501D01*
X161210000Y-91092633D01*
X161423483Y-91035433D01*
X161423492Y-91035429D01*
X161637578Y-90935600D01*
X161831082Y-90800105D01*
X161998105Y-90633082D01*
X162133600Y-90439578D01*
X162233429Y-90225492D01*
X162233432Y-90225486D01*
X162290636Y-90012000D01*
X161393686Y-90012000D01*
X161419493Y-89971844D01*
X161460000Y-89833889D01*
X161460000Y-89690111D01*
X161419493Y-89552156D01*
X161393686Y-89512000D01*
X162290636Y-89512000D01*
X162290635Y-89511999D01*
X162233432Y-89298513D01*
X162233429Y-89298507D01*
X162133600Y-89084422D01*
X162133599Y-89084420D01*
X161998113Y-88890926D01*
X161998108Y-88890920D01*
X161831082Y-88723894D01*
X161637578Y-88588399D01*
X161423492Y-88488570D01*
X161423486Y-88488567D01*
X161210000Y-88431364D01*
X161210000Y-89326498D01*
X161102315Y-89277320D01*
X160995763Y-89262000D01*
X160924237Y-89262000D01*
X160817685Y-89277320D01*
X160710000Y-89326498D01*
X160710000Y-88431364D01*
X160709999Y-88431364D01*
X160496513Y-88488567D01*
X160496507Y-88488570D01*
X160282422Y-88588399D01*
X160282420Y-88588400D01*
X160088926Y-88723886D01*
X160088920Y-88723891D01*
X159921891Y-88890920D01*
X159921890Y-88890922D01*
X159795131Y-89071952D01*
X159740554Y-89115577D01*
X159671055Y-89122769D01*
X159608701Y-89091247D01*
X159589752Y-89068656D01*
X159495722Y-88924732D01*
X159495715Y-88924725D01*
X159495715Y-88924723D01*
X159343243Y-88759097D01*
X159343238Y-88759092D01*
X159165577Y-88620812D01*
X159165572Y-88620808D01*
X158967580Y-88513661D01*
X158967577Y-88513659D01*
X158967574Y-88513658D01*
X158967571Y-88513657D01*
X158967569Y-88513656D01*
X158754637Y-88440556D01*
X158532569Y-88403500D01*
X158307431Y-88403500D01*
X158085362Y-88440556D01*
X157872430Y-88513656D01*
X157872419Y-88513661D01*
X157674427Y-88620808D01*
X157674422Y-88620812D01*
X157496761Y-88759092D01*
X157496756Y-88759097D01*
X157344284Y-88924723D01*
X157344276Y-88924734D01*
X157253808Y-89063206D01*
X157200662Y-89108562D01*
X157131431Y-89117986D01*
X157068095Y-89088484D01*
X157046192Y-89063206D01*
X156955723Y-88924734D01*
X156955715Y-88924723D01*
X156803243Y-88759097D01*
X156803238Y-88759092D01*
X156625577Y-88620812D01*
X156625578Y-88620812D01*
X156625576Y-88620811D01*
X156615742Y-88615489D01*
X156553481Y-88581794D01*
X156503891Y-88532574D01*
X156488500Y-88472740D01*
X156488500Y-83539409D01*
X156508185Y-83472370D01*
X156524814Y-83451733D01*
X157331279Y-82645268D01*
X157392600Y-82611785D01*
X157462292Y-82616769D01*
X157518225Y-82658641D01*
X157540175Y-82706826D01*
X157580351Y-82893240D01*
X157666572Y-83107809D01*
X157666574Y-83107813D01*
X157699931Y-83161988D01*
X157768824Y-83273878D01*
X157787821Y-83304730D01*
X157940602Y-83478324D01*
X157970222Y-83502240D01*
X158010014Y-83559671D01*
X158012440Y-83629499D01*
X157976730Y-83689553D01*
X157957419Y-83704254D01*
X157810351Y-83794967D01*
X157810347Y-83794970D01*
X157684971Y-83920346D01*
X157591886Y-84071259D01*
X157591884Y-84071264D01*
X157536113Y-84239572D01*
X157525500Y-84343447D01*
X157525500Y-85644537D01*
X157525501Y-85644553D01*
X157536113Y-85748427D01*
X157569775Y-85850013D01*
X157591885Y-85916738D01*
X157684970Y-86067652D01*
X157810348Y-86193030D01*
X157961262Y-86286115D01*
X158129574Y-86341887D01*
X158233455Y-86352500D01*
X159834544Y-86352499D01*
X159938426Y-86341887D01*
X160106738Y-86286115D01*
X160257652Y-86193030D01*
X160383030Y-86067652D01*
X160476115Y-85916738D01*
X160531887Y-85748426D01*
X160542500Y-85644545D01*
X160542499Y-84343456D01*
X160531887Y-84239574D01*
X160476115Y-84071262D01*
X160383030Y-83920348D01*
X160257652Y-83794970D01*
X160257648Y-83794967D01*
X160109492Y-83703583D01*
X160062767Y-83651635D01*
X160051546Y-83582673D01*
X160079389Y-83518591D01*
X160088771Y-83508540D01*
X160207476Y-83394772D01*
X160344985Y-83208847D01*
X160449095Y-83002357D01*
X160516811Y-82781243D01*
X160546184Y-82551865D01*
X160545648Y-82539259D01*
X160542162Y-82457188D01*
X160536369Y-82320822D01*
X160534192Y-82310723D01*
X160505014Y-82175335D01*
X160487649Y-82094762D01*
X160466767Y-82042796D01*
X160424273Y-81937044D01*
X160401426Y-81880187D01*
X160280179Y-81683270D01*
X160127398Y-81509676D01*
X160127396Y-81509674D01*
X160127394Y-81509672D01*
X159947482Y-81364404D01*
X159947476Y-81364399D01*
X159745594Y-81251621D01*
X159527553Y-81174582D01*
X159527543Y-81174579D01*
X159299634Y-81135500D01*
X159299625Y-81135500D01*
X159140411Y-81135500D01*
X159073372Y-81115815D01*
X159027617Y-81063011D01*
X159017673Y-80993853D01*
X159046698Y-80930297D01*
X159052730Y-80923819D01*
X160510322Y-79466227D01*
X164915202Y-75061345D01*
X164921293Y-75056003D01*
X164949987Y-75033987D01*
X164968267Y-75010164D01*
X164974475Y-75002073D01*
X164974477Y-75002072D01*
X165031880Y-74927262D01*
X165037528Y-74919901D01*
X165047523Y-74906877D01*
X165047525Y-74906874D01*
X165081421Y-74825041D01*
X165108838Y-74758850D01*
X165124500Y-74639885D01*
X165124500Y-74639884D01*
X165124723Y-74638191D01*
X165124726Y-74638160D01*
X165129655Y-74600718D01*
X165129750Y-74600000D01*
X165129749Y-74599996D01*
X165125031Y-74564156D01*
X165124500Y-74556054D01*
X165124500Y-66515945D01*
X165125031Y-66507843D01*
X165129750Y-66472000D01*
X165124500Y-66432120D01*
X165124500Y-66432115D01*
X165109347Y-66317015D01*
X165108838Y-66313149D01*
X165062413Y-66201068D01*
X165047526Y-66165128D01*
X165047523Y-66165122D01*
X164974477Y-66069929D01*
X164949985Y-66038011D01*
X164930634Y-66023163D01*
X164921289Y-66015992D01*
X164915199Y-66010651D01*
X162306337Y-63401788D01*
X162272852Y-63340465D01*
X162270798Y-63327989D01*
X162261218Y-63242956D01*
X162217598Y-63118297D01*
X162201043Y-63070985D01*
X162104111Y-62916719D01*
X161975281Y-62787889D01*
X161901554Y-62741563D01*
X161821017Y-62690958D01*
X161821016Y-62690957D01*
X161821015Y-62690957D01*
X161746531Y-62664894D01*
X161649046Y-62630782D01*
X161649041Y-62630781D01*
X161468004Y-62610384D01*
X161467996Y-62610384D01*
X161286958Y-62630781D01*
X161286953Y-62630782D01*
X161114982Y-62690958D01*
X160960718Y-62787889D01*
X160831889Y-62916718D01*
X160731252Y-63076881D01*
X160728859Y-63075377D01*
X160690529Y-63117787D01*
X160623092Y-63136064D01*
X160556480Y-63114980D01*
X160538007Y-63099772D01*
X159064819Y-61626584D01*
X159031334Y-61565261D01*
X159028500Y-61538903D01*
X159028500Y-50489258D01*
X159048185Y-50422219D01*
X159093484Y-50380203D01*
X159165566Y-50341195D01*
X159165572Y-50341191D01*
X159165576Y-50341189D01*
X159343240Y-50202906D01*
X159443000Y-50094539D01*
X159495715Y-50037276D01*
X159495715Y-50037275D01*
X159495722Y-50037268D01*
X159586193Y-49898790D01*
X159639338Y-49853437D01*
X159708569Y-49844013D01*
X159771905Y-49873515D01*
X159793804Y-49898787D01*
X159884278Y-50037268D01*
X159884283Y-50037273D01*
X159884284Y-50037276D01*
X160010968Y-50174889D01*
X160036760Y-50202906D01*
X160214424Y-50341189D01*
X160214425Y-50341189D01*
X160214427Y-50341191D01*
X160303948Y-50389637D01*
X160412426Y-50448342D01*
X160625365Y-50521444D01*
X160847431Y-50558500D01*
X161072569Y-50558500D01*
X161294635Y-50521444D01*
X161507574Y-50448342D01*
X161705576Y-50341189D01*
X161883240Y-50202906D01*
X161983000Y-50094539D01*
X162035715Y-50037276D01*
X162035715Y-50037275D01*
X162035722Y-50037268D01*
X162126193Y-49898790D01*
X162179338Y-49853437D01*
X162248569Y-49844013D01*
X162311905Y-49873515D01*
X162333804Y-49898787D01*
X162424278Y-50037268D01*
X162424283Y-50037273D01*
X162424284Y-50037276D01*
X162550968Y-50174889D01*
X162576760Y-50202906D01*
X162754424Y-50341189D01*
X162754425Y-50341189D01*
X162754427Y-50341191D01*
X162843948Y-50389637D01*
X162952426Y-50448342D01*
X163165365Y-50521444D01*
X163387431Y-50558500D01*
X163612569Y-50558500D01*
X163834635Y-50521444D01*
X164047574Y-50448342D01*
X164245576Y-50341189D01*
X164423240Y-50202906D01*
X164523000Y-50094539D01*
X164575715Y-50037276D01*
X164575717Y-50037273D01*
X164575722Y-50037268D01*
X164698860Y-49848791D01*
X164789296Y-49642616D01*
X164844564Y-49424368D01*
X164848768Y-49373632D01*
X164863156Y-49200005D01*
X164863156Y-49199994D01*
X164844565Y-48975640D01*
X164844563Y-48975628D01*
X164789296Y-48757385D01*
X164698859Y-48551207D01*
X164575723Y-48362734D01*
X164575715Y-48362723D01*
X164423243Y-48197097D01*
X164423238Y-48197092D01*
X164245577Y-48058812D01*
X164245572Y-48058808D01*
X164047580Y-47951661D01*
X164047577Y-47951659D01*
X164047574Y-47951658D01*
X164047571Y-47951657D01*
X164047569Y-47951656D01*
X163834637Y-47878556D01*
X163612569Y-47841500D01*
X163387431Y-47841500D01*
X163165362Y-47878556D01*
X162952430Y-47951656D01*
X162952419Y-47951661D01*
X162754427Y-48058808D01*
X162754422Y-48058812D01*
X162576761Y-48197092D01*
X162576756Y-48197097D01*
X162424284Y-48362723D01*
X162424276Y-48362734D01*
X162333808Y-48501206D01*
X162280662Y-48546562D01*
X162211431Y-48555986D01*
X162148095Y-48526484D01*
X162126192Y-48501206D01*
X162035723Y-48362734D01*
X162035715Y-48362723D01*
X161883243Y-48197097D01*
X161883238Y-48197092D01*
X161705577Y-48058812D01*
X161705572Y-48058808D01*
X161507580Y-47951661D01*
X161507577Y-47951659D01*
X161507574Y-47951658D01*
X161507571Y-47951657D01*
X161507569Y-47951656D01*
X161294637Y-47878556D01*
X161072569Y-47841500D01*
X160847431Y-47841500D01*
X160625362Y-47878556D01*
X160412430Y-47951656D01*
X160412419Y-47951661D01*
X160214427Y-48058808D01*
X160214422Y-48058812D01*
X160036761Y-48197092D01*
X160036756Y-48197097D01*
X159884284Y-48362723D01*
X159884276Y-48362734D01*
X159793808Y-48501206D01*
X159740662Y-48546562D01*
X159671431Y-48555986D01*
X159608095Y-48526484D01*
X159586192Y-48501206D01*
X159495723Y-48362734D01*
X159495715Y-48362723D01*
X159343243Y-48197097D01*
X159343238Y-48197092D01*
X159165577Y-48058812D01*
X159165572Y-48058808D01*
X158967580Y-47951661D01*
X158967577Y-47951659D01*
X158967574Y-47951658D01*
X158967571Y-47951657D01*
X158967569Y-47951656D01*
X158754637Y-47878556D01*
X158532569Y-47841500D01*
X158307431Y-47841500D01*
X158085362Y-47878556D01*
X157872430Y-47951656D01*
X157872419Y-47951661D01*
X157674427Y-48058808D01*
X157674422Y-48058812D01*
X157496761Y-48197092D01*
X157496756Y-48197097D01*
X157344284Y-48362723D01*
X157344276Y-48362734D01*
X157253808Y-48501206D01*
X157200662Y-48546562D01*
X157131431Y-48555986D01*
X157068095Y-48526484D01*
X157046192Y-48501206D01*
X156955723Y-48362734D01*
X156955715Y-48362723D01*
X156803243Y-48197097D01*
X156803238Y-48197092D01*
X156625577Y-48058812D01*
X156625572Y-48058808D01*
X156427580Y-47951661D01*
X156427577Y-47951659D01*
X156427574Y-47951658D01*
X156427571Y-47951657D01*
X156427569Y-47951656D01*
X156214637Y-47878556D01*
X155992569Y-47841500D01*
X155767431Y-47841500D01*
X155545362Y-47878556D01*
X155332430Y-47951656D01*
X155332419Y-47951661D01*
X155134427Y-48058808D01*
X155134422Y-48058812D01*
X154956761Y-48197092D01*
X154956756Y-48197097D01*
X154804284Y-48362723D01*
X154804276Y-48362734D01*
X154713808Y-48501206D01*
X154660662Y-48546562D01*
X154591431Y-48555986D01*
X154528095Y-48526484D01*
X154506192Y-48501206D01*
X154415723Y-48362734D01*
X154415715Y-48362723D01*
X154263243Y-48197097D01*
X154263238Y-48197092D01*
X154085577Y-48058812D01*
X154085572Y-48058808D01*
X153887580Y-47951661D01*
X153887577Y-47951659D01*
X153887574Y-47951658D01*
X153887571Y-47951657D01*
X153887569Y-47951656D01*
X153674637Y-47878556D01*
X153452569Y-47841500D01*
X153227431Y-47841500D01*
X153005362Y-47878556D01*
X152792430Y-47951656D01*
X152792419Y-47951661D01*
X152594427Y-48058808D01*
X152594422Y-48058812D01*
X152416761Y-48197092D01*
X152416756Y-48197097D01*
X152264284Y-48362723D01*
X152264276Y-48362734D01*
X152173808Y-48501206D01*
X152120662Y-48546562D01*
X152051431Y-48555986D01*
X151988095Y-48526484D01*
X151966192Y-48501206D01*
X151875723Y-48362734D01*
X151875715Y-48362723D01*
X151723243Y-48197097D01*
X151723238Y-48197092D01*
X151545577Y-48058812D01*
X151545572Y-48058808D01*
X151347580Y-47951661D01*
X151347577Y-47951659D01*
X151347574Y-47951658D01*
X151347571Y-47951657D01*
X151347569Y-47951656D01*
X151134637Y-47878556D01*
X150912569Y-47841500D01*
X150687431Y-47841500D01*
X150465362Y-47878556D01*
X150252430Y-47951656D01*
X150252419Y-47951661D01*
X150054427Y-48058808D01*
X150054422Y-48058812D01*
X149876761Y-48197092D01*
X149876756Y-48197097D01*
X149724284Y-48362723D01*
X149724276Y-48362734D01*
X149633808Y-48501206D01*
X149580662Y-48546562D01*
X149511431Y-48555986D01*
X149448095Y-48526484D01*
X149426192Y-48501206D01*
X149335723Y-48362734D01*
X149335715Y-48362723D01*
X149183243Y-48197097D01*
X149183238Y-48197092D01*
X149005577Y-48058812D01*
X149005572Y-48058808D01*
X148807580Y-47951661D01*
X148807577Y-47951659D01*
X148807574Y-47951658D01*
X148807571Y-47951657D01*
X148807569Y-47951656D01*
X148594637Y-47878556D01*
X148372569Y-47841500D01*
X148147431Y-47841500D01*
X147925362Y-47878556D01*
X147712430Y-47951656D01*
X147712419Y-47951661D01*
X147514427Y-48058808D01*
X147514422Y-48058812D01*
X147336761Y-48197092D01*
X147273548Y-48265760D01*
X147213661Y-48301750D01*
X147143823Y-48299649D01*
X147086207Y-48260124D01*
X147066138Y-48225110D01*
X147020889Y-48103796D01*
X146987214Y-48058812D01*
X146933261Y-47986739D01*
X146816204Y-47899111D01*
X146679203Y-47848011D01*
X146618654Y-47841500D01*
X146618638Y-47841500D01*
X144821362Y-47841500D01*
X144821345Y-47841500D01*
X144760797Y-47848011D01*
X144760795Y-47848011D01*
X144623795Y-47899111D01*
X144506739Y-47986739D01*
X144419111Y-48103795D01*
X144368011Y-48240795D01*
X144368011Y-48240797D01*
X144361500Y-48301345D01*
X144361500Y-50098654D01*
X144368011Y-50159202D01*
X144368011Y-50159204D01*
X144419110Y-50296204D01*
X144419111Y-50296204D01*
X144506739Y-50413261D01*
X144623796Y-50500889D01*
X144738949Y-50543839D01*
X144746830Y-50546779D01*
X144760799Y-50551989D01*
X144788050Y-50554918D01*
X144821345Y-50558499D01*
X144821362Y-50558500D01*
X144987500Y-50558500D01*
X145054539Y-50578185D01*
X145100294Y-50630989D01*
X145111500Y-50682500D01*
X145111500Y-54035589D01*
X145091815Y-54102628D01*
X145039011Y-54148383D01*
X144969853Y-54158327D01*
X144906297Y-54129302D01*
X144899819Y-54123270D01*
X141546730Y-50770181D01*
X141513245Y-50708858D01*
X141518229Y-50639166D01*
X141560101Y-50583233D01*
X141625565Y-50558816D01*
X141634411Y-50558500D01*
X141768569Y-50558500D01*
X141990635Y-50521444D01*
X142203574Y-50448342D01*
X142401576Y-50341189D01*
X142579240Y-50202906D01*
X142679000Y-50094539D01*
X142731715Y-50037276D01*
X142731717Y-50037273D01*
X142731722Y-50037268D01*
X142854860Y-49848791D01*
X142945296Y-49642616D01*
X143000564Y-49424368D01*
X143004768Y-49373632D01*
X143019156Y-49200005D01*
X143019156Y-49199994D01*
X143000565Y-48975640D01*
X143000563Y-48975628D01*
X142945296Y-48757385D01*
X142854859Y-48551207D01*
X142731723Y-48362734D01*
X142731715Y-48362723D01*
X142579243Y-48197097D01*
X142579238Y-48197092D01*
X142401577Y-48058812D01*
X142401572Y-48058808D01*
X142203580Y-47951661D01*
X142203577Y-47951659D01*
X142203574Y-47951658D01*
X142203571Y-47951657D01*
X142203569Y-47951656D01*
X141990637Y-47878556D01*
X141768569Y-47841500D01*
X141543431Y-47841500D01*
X141321362Y-47878556D01*
X141108430Y-47951656D01*
X141108419Y-47951661D01*
X140910427Y-48058808D01*
X140910422Y-48058812D01*
X140732761Y-48197092D01*
X140732756Y-48197097D01*
X140580284Y-48362723D01*
X140580276Y-48362734D01*
X140489808Y-48501206D01*
X140436662Y-48546562D01*
X140367431Y-48555986D01*
X140304095Y-48526484D01*
X140282192Y-48501206D01*
X140191723Y-48362734D01*
X140191715Y-48362723D01*
X140039243Y-48197097D01*
X140039238Y-48197092D01*
X139861577Y-48058812D01*
X139861572Y-48058808D01*
X139663580Y-47951661D01*
X139663577Y-47951659D01*
X139663574Y-47951658D01*
X139663571Y-47951657D01*
X139663569Y-47951656D01*
X139450637Y-47878556D01*
X139228569Y-47841500D01*
X139003431Y-47841500D01*
X138781362Y-47878556D01*
X138568430Y-47951656D01*
X138568419Y-47951661D01*
X138370427Y-48058808D01*
X138370422Y-48058812D01*
X138192761Y-48197092D01*
X138192756Y-48197097D01*
X138040284Y-48362723D01*
X138040276Y-48362734D01*
X137949808Y-48501206D01*
X137896662Y-48546562D01*
X137827431Y-48555986D01*
X137764095Y-48526484D01*
X137742192Y-48501206D01*
X137651723Y-48362734D01*
X137651715Y-48362723D01*
X137499243Y-48197097D01*
X137499238Y-48197092D01*
X137321577Y-48058812D01*
X137321572Y-48058808D01*
X137123580Y-47951661D01*
X137123577Y-47951659D01*
X137123574Y-47951658D01*
X137123571Y-47951657D01*
X137123569Y-47951656D01*
X136910637Y-47878556D01*
X136688569Y-47841500D01*
X136463431Y-47841500D01*
X136241362Y-47878556D01*
X136028430Y-47951656D01*
X136028419Y-47951661D01*
X135830427Y-48058808D01*
X135830422Y-48058812D01*
X135652761Y-48197092D01*
X135652756Y-48197097D01*
X135500284Y-48362723D01*
X135500276Y-48362734D01*
X135409808Y-48501206D01*
X135356662Y-48546562D01*
X135287431Y-48555986D01*
X135224095Y-48526484D01*
X135202192Y-48501206D01*
X135111723Y-48362734D01*
X135111715Y-48362723D01*
X134959243Y-48197097D01*
X134959238Y-48197092D01*
X134781577Y-48058812D01*
X134781572Y-48058808D01*
X134583580Y-47951661D01*
X134583577Y-47951659D01*
X134583574Y-47951658D01*
X134583571Y-47951657D01*
X134583569Y-47951656D01*
X134370637Y-47878556D01*
X134148569Y-47841500D01*
X133923431Y-47841500D01*
X133701362Y-47878556D01*
X133488430Y-47951656D01*
X133488419Y-47951661D01*
X133290427Y-48058808D01*
X133290422Y-48058812D01*
X133112761Y-48197092D01*
X133112756Y-48197097D01*
X132960284Y-48362723D01*
X132960276Y-48362734D01*
X132869808Y-48501206D01*
X132816662Y-48546562D01*
X132747431Y-48555986D01*
X132684095Y-48526484D01*
X132662192Y-48501206D01*
X132571723Y-48362734D01*
X132571715Y-48362723D01*
X132419243Y-48197097D01*
X132419238Y-48197092D01*
X132241577Y-48058812D01*
X132241572Y-48058808D01*
X132043580Y-47951661D01*
X132043577Y-47951659D01*
X132043574Y-47951658D01*
X132043571Y-47951657D01*
X132043569Y-47951656D01*
X131830637Y-47878556D01*
X131608569Y-47841500D01*
X131383431Y-47841500D01*
X131161362Y-47878556D01*
X130948430Y-47951656D01*
X130948419Y-47951661D01*
X130750427Y-48058808D01*
X130750422Y-48058812D01*
X130572761Y-48197092D01*
X130572756Y-48197097D01*
X130420284Y-48362723D01*
X130420276Y-48362734D01*
X130329808Y-48501206D01*
X130276662Y-48546562D01*
X130207431Y-48555986D01*
X130144095Y-48526484D01*
X130122192Y-48501206D01*
X130031723Y-48362734D01*
X130031715Y-48362723D01*
X129879243Y-48197097D01*
X129879238Y-48197092D01*
X129701577Y-48058812D01*
X129701572Y-48058808D01*
X129503580Y-47951661D01*
X129503577Y-47951659D01*
X129503574Y-47951658D01*
X129503571Y-47951657D01*
X129503569Y-47951656D01*
X129290637Y-47878556D01*
X129068569Y-47841500D01*
X128843431Y-47841500D01*
X128621362Y-47878556D01*
X128408430Y-47951656D01*
X128408419Y-47951661D01*
X128210427Y-48058808D01*
X128210422Y-48058812D01*
X128032761Y-48197092D01*
X128032756Y-48197097D01*
X127880284Y-48362723D01*
X127880276Y-48362734D01*
X127786251Y-48506650D01*
X127733105Y-48552007D01*
X127663873Y-48561430D01*
X127600538Y-48531928D01*
X127580868Y-48509951D01*
X127454113Y-48328926D01*
X127454108Y-48328920D01*
X127287082Y-48161894D01*
X127093578Y-48026399D01*
X126879492Y-47926570D01*
X126879486Y-47926567D01*
X126666000Y-47869364D01*
X126666000Y-48764498D01*
X126558315Y-48715320D01*
X126451763Y-48700000D01*
X126380237Y-48700000D01*
X126273685Y-48715320D01*
X126166000Y-48764498D01*
X126166000Y-47869364D01*
X126165999Y-47869364D01*
X125952513Y-47926567D01*
X125952507Y-47926570D01*
X125738422Y-48026399D01*
X125738420Y-48026400D01*
X125544926Y-48161886D01*
X125544920Y-48161891D01*
X125377891Y-48328920D01*
X125377890Y-48328922D01*
X125251131Y-48509952D01*
X125196554Y-48553577D01*
X125127055Y-48560769D01*
X125064701Y-48529247D01*
X125045752Y-48506656D01*
X124951722Y-48362732D01*
X124951715Y-48362725D01*
X124951715Y-48362723D01*
X124799243Y-48197097D01*
X124799238Y-48197092D01*
X124621577Y-48058812D01*
X124621572Y-48058808D01*
X124423580Y-47951661D01*
X124423577Y-47951659D01*
X124423574Y-47951658D01*
X124423571Y-47951657D01*
X124423569Y-47951656D01*
X124210637Y-47878556D01*
X123988569Y-47841500D01*
X123763431Y-47841500D01*
X123541362Y-47878556D01*
X123328430Y-47951656D01*
X123328419Y-47951661D01*
X123130427Y-48058808D01*
X123130422Y-48058812D01*
X122952761Y-48197092D01*
X122952756Y-48197097D01*
X122800284Y-48362723D01*
X122800276Y-48362734D01*
X122709808Y-48501206D01*
X122656662Y-48546562D01*
X122587431Y-48555986D01*
X122524095Y-48526484D01*
X122502192Y-48501206D01*
X122411723Y-48362734D01*
X122411715Y-48362723D01*
X122259243Y-48197097D01*
X122259238Y-48197092D01*
X122081577Y-48058812D01*
X122081572Y-48058808D01*
X121883580Y-47951661D01*
X121883577Y-47951659D01*
X121883574Y-47951658D01*
X121883571Y-47951657D01*
X121883569Y-47951656D01*
X121670637Y-47878556D01*
X121448569Y-47841500D01*
X121223431Y-47841500D01*
X121001362Y-47878556D01*
X120788430Y-47951656D01*
X120788419Y-47951661D01*
X120590427Y-48058808D01*
X120590422Y-48058812D01*
X120412761Y-48197092D01*
X120349548Y-48265760D01*
X120289661Y-48301750D01*
X120219823Y-48299649D01*
X120162207Y-48260124D01*
X120142138Y-48225110D01*
X120096889Y-48103796D01*
X120063214Y-48058812D01*
X120009261Y-47986739D01*
X119892204Y-47899111D01*
X119755203Y-47848011D01*
X119694654Y-47841500D01*
X119694638Y-47841500D01*
X117897362Y-47841500D01*
X117897345Y-47841500D01*
X117836797Y-47848011D01*
X117836795Y-47848011D01*
X117699795Y-47899111D01*
X117582739Y-47986739D01*
X117495111Y-48103795D01*
X117444011Y-48240795D01*
X117444011Y-48240797D01*
X117437500Y-48301345D01*
X117437500Y-50098654D01*
X117444011Y-50159202D01*
X117444011Y-50159204D01*
X117495110Y-50296204D01*
X117495111Y-50296204D01*
X117582739Y-50413261D01*
X117699796Y-50500889D01*
X117754903Y-50521443D01*
X117836789Y-50551986D01*
X117836794Y-50551987D01*
X117836799Y-50551989D01*
X117836803Y-50551989D01*
X117839325Y-50552585D01*
X117841092Y-50553591D01*
X117844068Y-50554701D01*
X117843888Y-50555182D01*
X117900045Y-50587152D01*
X117932437Y-50649059D01*
X117926218Y-50718651D01*
X117898504Y-50760946D01*
X112484270Y-56175181D01*
X112422947Y-56208666D01*
X112396589Y-56211500D01*
X108679945Y-56211500D01*
X108671846Y-56210969D01*
X108636000Y-56206250D01*
X108635996Y-56206250D01*
X108599307Y-56211080D01*
X108599282Y-56211082D01*
X108477150Y-56227162D01*
X108477149Y-56227162D01*
X108329121Y-56288477D01*
X108285083Y-56310497D01*
X108266061Y-56336863D01*
X108265503Y-56337294D01*
X108235900Y-56360009D01*
X108235885Y-56360021D01*
X108233928Y-56361523D01*
X108233925Y-56361525D01*
X108214906Y-56376119D01*
X108202010Y-56386015D01*
X108179996Y-56414703D01*
X108174645Y-56420805D01*
X106712801Y-57882649D01*
X106706698Y-57888000D01*
X106678013Y-57910012D01*
X106653520Y-57941931D01*
X106580476Y-58037123D01*
X106580474Y-58037126D01*
X106519162Y-58185148D01*
X106519162Y-58185149D01*
X106516608Y-58204543D01*
X106516608Y-58204545D01*
X106516607Y-58204544D01*
X106503191Y-58306460D01*
X106503188Y-58306489D01*
X106498250Y-58343998D01*
X106498250Y-58343999D01*
X106502969Y-58379843D01*
X106503500Y-58387945D01*
X106503500Y-64904054D01*
X106502969Y-64912156D01*
X106498250Y-64947998D01*
X106502970Y-64983860D01*
X106511454Y-65048302D01*
X106519161Y-65106849D01*
X106519163Y-65106854D01*
X106580473Y-65254871D01*
X106580473Y-65254872D01*
X106580475Y-65254875D01*
X106580476Y-65254876D01*
X106653523Y-65350072D01*
X106653525Y-65350074D01*
X106659876Y-65358351D01*
X106678012Y-65381986D01*
X106706698Y-65403998D01*
X106712794Y-65409343D01*
X108368655Y-67065204D01*
X108373996Y-67071294D01*
X108383927Y-67084236D01*
X108396010Y-67099984D01*
X108396011Y-67099985D01*
X108396013Y-67099987D01*
X108419894Y-67118311D01*
X108426284Y-67123215D01*
X108426308Y-67123235D01*
X108502167Y-67181443D01*
X108523124Y-67197524D01*
X108523126Y-67197524D01*
X108523128Y-67197526D01*
X108670987Y-67258771D01*
X108725391Y-67302612D01*
X108729124Y-67308318D01*
X108832814Y-67476721D01*
X108832820Y-67476729D01*
X108832821Y-67476730D01*
X108985602Y-67650324D01*
X109016193Y-67675024D01*
X109055985Y-67732455D01*
X109058411Y-67802283D01*
X109022701Y-67862337D01*
X108960191Y-67893551D01*
X108938293Y-67895500D01*
X107915161Y-67895500D01*
X107907062Y-67894969D01*
X107881835Y-67891648D01*
X107871209Y-67890249D01*
X107871207Y-67890249D01*
X107712358Y-67911161D01*
X107712353Y-67911163D01*
X107564336Y-67972473D01*
X107564331Y-67972476D01*
X107469675Y-68045107D01*
X107469676Y-68045108D01*
X107437219Y-68070014D01*
X107415204Y-68098703D01*
X107409853Y-68104805D01*
X102140801Y-73373857D01*
X102134698Y-73379208D01*
X102106013Y-73401220D01*
X102081520Y-73433139D01*
X102008476Y-73528331D01*
X102008474Y-73528333D01*
X101949519Y-73670668D01*
X101947162Y-73676358D01*
X101930968Y-73799358D01*
X101930969Y-73799359D01*
X101926250Y-73835207D01*
X101930968Y-73871053D01*
X101931499Y-73879153D01*
X101931499Y-93352054D01*
X101930968Y-93360153D01*
X101926250Y-93396000D01*
X101926250Y-93396001D01*
X100075500Y-93396001D01*
X100075500Y-51399537D01*
X101971500Y-51399537D01*
X101971501Y-51399553D01*
X101979790Y-51480690D01*
X101982113Y-51503426D01*
X102037885Y-51671738D01*
X102130970Y-51822652D01*
X102256348Y-51948030D01*
X102407262Y-52041115D01*
X102575574Y-52096887D01*
X102679455Y-52107500D01*
X103480544Y-52107499D01*
X103584426Y-52096887D01*
X103752738Y-52041115D01*
X103903652Y-51948030D01*
X104029030Y-51822652D01*
X104062610Y-51768209D01*
X104114555Y-51721487D01*
X104183517Y-51710264D01*
X104247600Y-51738107D01*
X104265616Y-51756655D01*
X104274088Y-51767427D01*
X104274093Y-51767433D01*
X104434077Y-51906061D01*
X104434088Y-51906069D01*
X104506768Y-51948030D01*
X104617418Y-52011913D01*
X104817473Y-52081153D01*
X105027016Y-52111281D01*
X105238474Y-52101208D01*
X105444204Y-52051298D01*
X105636771Y-51963356D01*
X105726999Y-51899105D01*
X105809210Y-51840563D01*
X105809211Y-51840561D01*
X105809215Y-51840559D01*
X105955303Y-51687346D01*
X105976198Y-51654831D01*
X106029000Y-51609078D01*
X106098158Y-51599134D01*
X106161714Y-51628158D01*
X106177981Y-51645217D01*
X106274088Y-51767427D01*
X106274094Y-51767434D01*
X106434077Y-51906061D01*
X106434088Y-51906069D01*
X106506768Y-51948030D01*
X106617418Y-52011913D01*
X106817473Y-52081153D01*
X107027016Y-52111281D01*
X107238474Y-52101208D01*
X107444204Y-52051298D01*
X107636771Y-51963356D01*
X107726999Y-51899105D01*
X107809210Y-51840563D01*
X107809211Y-51840561D01*
X107809215Y-51840559D01*
X107955303Y-51687346D01*
X107981060Y-51647267D01*
X108033861Y-51601513D01*
X108103020Y-51591568D01*
X108166576Y-51620591D01*
X108182845Y-51637654D01*
X108280268Y-51761537D01*
X108280271Y-51761540D01*
X108439030Y-51899105D01*
X108439041Y-51899114D01*
X108620960Y-52004144D01*
X108620967Y-52004147D01*
X108819487Y-52072856D01*
X108830000Y-52074367D01*
X108830000Y-51004617D01*
X108899052Y-51058363D01*
X109017424Y-51099000D01*
X109111073Y-51099000D01*
X109203446Y-51083586D01*
X109313514Y-51024019D01*
X109330000Y-51006110D01*
X109330000Y-52070257D01*
X109441409Y-52043229D01*
X109632507Y-51955959D01*
X109803619Y-51834110D01*
X109803625Y-51834104D01*
X109948592Y-51682067D01*
X110062166Y-51505342D01*
X110140244Y-51310314D01*
X110180000Y-51104037D01*
X110180000Y-50974000D01*
X109359560Y-50974000D01*
X109398278Y-50931941D01*
X109448551Y-50817330D01*
X109458886Y-50692605D01*
X109428163Y-50571281D01*
X109364606Y-50474000D01*
X110180000Y-50474000D01*
X110180000Y-50396601D01*
X110165034Y-50239877D01*
X110165033Y-50239873D01*
X110105850Y-50038313D01*
X110009586Y-49851585D01*
X109879731Y-49686462D01*
X109879728Y-49686459D01*
X109720969Y-49548894D01*
X109720958Y-49548885D01*
X109539039Y-49443855D01*
X109539032Y-49443852D01*
X109340516Y-49375144D01*
X109330000Y-49373632D01*
X109330000Y-50443382D01*
X109260948Y-50389637D01*
X109142576Y-50349000D01*
X109048927Y-50349000D01*
X108956554Y-50364414D01*
X108846486Y-50423981D01*
X108830000Y-50441889D01*
X108830000Y-49377740D01*
X108829999Y-49377740D01*
X108718594Y-49404768D01*
X108718582Y-49404772D01*
X108527497Y-49492037D01*
X108527496Y-49492038D01*
X108356380Y-49613889D01*
X108356374Y-49613895D01*
X108211408Y-49765932D01*
X108189361Y-49800237D01*
X108136556Y-49845991D01*
X108067397Y-49855934D01*
X108003842Y-49826908D01*
X107987576Y-49809848D01*
X107885910Y-49680570D01*
X107885906Y-49680566D01*
X107725922Y-49541938D01*
X107725911Y-49541930D01*
X107542584Y-49436088D01*
X107542583Y-49436087D01*
X107542582Y-49436087D01*
X107428784Y-49396701D01*
X107342528Y-49366847D01*
X107290141Y-49359315D01*
X107132984Y-49336719D01*
X107132981Y-49336719D01*
X107102761Y-49338158D01*
X106921526Y-49346792D01*
X106838859Y-49366847D01*
X106715799Y-49396701D01*
X106715797Y-49396701D01*
X106523229Y-49484643D01*
X106523223Y-49484647D01*
X106350789Y-49607436D01*
X106350783Y-49607442D01*
X106204694Y-49760657D01*
X106183800Y-49793168D01*
X106130996Y-49838922D01*
X106061837Y-49848865D01*
X105998282Y-49819839D01*
X105982018Y-49802783D01*
X105885908Y-49680568D01*
X105885905Y-49680565D01*
X105725922Y-49541938D01*
X105725911Y-49541930D01*
X105542584Y-49436088D01*
X105542583Y-49436087D01*
X105542582Y-49436087D01*
X105428784Y-49396701D01*
X105342528Y-49366847D01*
X105290141Y-49359315D01*
X105132984Y-49336719D01*
X105132981Y-49336719D01*
X105102762Y-49338158D01*
X104921526Y-49346792D01*
X104838859Y-49366847D01*
X104715799Y-49396701D01*
X104715797Y-49396701D01*
X104523229Y-49484643D01*
X104523223Y-49484647D01*
X104350789Y-49607436D01*
X104350783Y-49607442D01*
X104259615Y-49703057D01*
X104199106Y-49737992D01*
X104129315Y-49734667D01*
X104072401Y-49694139D01*
X104064338Y-49682591D01*
X104029030Y-49625348D01*
X103903652Y-49499970D01*
X103781068Y-49424359D01*
X103752740Y-49406886D01*
X103752735Y-49406884D01*
X103584427Y-49351113D01*
X103480546Y-49340500D01*
X102679462Y-49340500D01*
X102679446Y-49340501D01*
X102575572Y-49351113D01*
X102407264Y-49406884D01*
X102407259Y-49406886D01*
X102256346Y-49499971D01*
X102130971Y-49625346D01*
X102037886Y-49776259D01*
X102037884Y-49776264D01*
X101982113Y-49944572D01*
X101971500Y-50048447D01*
X101971500Y-51399537D01*
X100075500Y-51399537D01*
X100075500Y-47425048D01*
X100075799Y-47418967D01*
X100087494Y-47300222D01*
X100092234Y-47276389D01*
X100124216Y-47170959D01*
X100133508Y-47148526D01*
X100185442Y-47051365D01*
X100198938Y-47031166D01*
X100268827Y-46946006D01*
X100286006Y-46928827D01*
X100371166Y-46858938D01*
X100391365Y-46845442D01*
X100488526Y-46793508D01*
X100510959Y-46784216D01*
X100616389Y-46752234D01*
X100640220Y-46747494D01*
X100670605Y-46744501D01*
X100758968Y-46735799D01*
X100765049Y-46735500D01*
X100786531Y-46735500D01*
X163417365Y-46735500D01*
X163484404Y-46755185D01*
G37*
%TD.AperFunction*%
%TD*%
M02*
