%TF.GenerationSoftware,KiCad,Pcbnew,7.0.5*%
%TF.CreationDate,2024-08-01T11:48:32+09:00*%
%TF.ProjectId,Arduini-Sheild_L6470-rs485-canfd,41726475-696e-4692-9d53-6865696c645f,rev?*%
%TF.SameCoordinates,Original*%
%TF.FileFunction,Legend,Bot*%
%TF.FilePolarity,Positive*%
%FSLAX46Y46*%
G04 Gerber Fmt 4.6, Leading zero omitted, Abs format (unit mm)*
G04 Created by KiCad (PCBNEW 7.0.5) date 2024-08-01 11:48:32*
%MOMM*%
%LPD*%
G01*
G04 APERTURE LIST*
G04 Aperture macros list*
%AMRoundRect*
0 Rectangle with rounded corners*
0 $1 Rounding radius*
0 $2 $3 $4 $5 $6 $7 $8 $9 X,Y pos of 4 corners*
0 Add a 4 corners polygon primitive as box body*
4,1,4,$2,$3,$4,$5,$6,$7,$8,$9,$2,$3,0*
0 Add four circle primitives for the rounded corners*
1,1,$1+$1,$2,$3*
1,1,$1+$1,$4,$5*
1,1,$1+$1,$6,$7*
1,1,$1+$1,$8,$9*
0 Add four rect primitives between the rounded corners*
20,1,$1+$1,$2,$3,$4,$5,0*
20,1,$1+$1,$4,$5,$6,$7,0*
20,1,$1+$1,$6,$7,$8,$9,0*
20,1,$1+$1,$8,$9,$2,$3,0*%
G04 Aperture macros list end*
%ADD10R,1.700000X1.700000*%
%ADD11O,1.700000X1.700000*%
%ADD12RoundRect,0.250000X0.600000X0.725000X-0.600000X0.725000X-0.600000X-0.725000X0.600000X-0.725000X0*%
%ADD13O,1.700000X1.950000*%
%ADD14RoundRect,0.250000X-0.725000X0.600000X-0.725000X-0.600000X0.725000X-0.600000X0.725000X0.600000X0*%
%ADD15O,1.950000X1.700000*%
%ADD16RoundRect,0.250000X0.750000X-0.600000X0.750000X0.600000X-0.750000X0.600000X-0.750000X-0.600000X0*%
%ADD17O,2.000000X1.700000*%
%ADD18RoundRect,0.250000X-0.600000X-0.725000X0.600000X-0.725000X0.600000X0.725000X-0.600000X0.725000X0*%
%ADD19R,2.000000X4.600000*%
%ADD20O,2.000000X4.200000*%
%ADD21O,4.200000X2.000000*%
%ADD22C,1.397000*%
%ADD23C,3.200000*%
%ADD24RoundRect,0.250000X-0.350000X-0.625000X0.350000X-0.625000X0.350000X0.625000X-0.350000X0.625000X0*%
%ADD25O,1.200000X1.750000*%
%ADD26C,1.500000*%
%ADD27RoundRect,0.250000X-0.600000X-0.675000X0.600000X-0.675000X0.600000X0.675000X-0.600000X0.675000X0*%
%ADD28O,1.700000X1.850000*%
%ADD29R,1.500000X1.050000*%
%ADD30O,1.500000X1.050000*%
G04 APERTURE END LIST*
%LPC*%
D10*
%TO.C,J1*%
X127940000Y-97460000D03*
D11*
X130480000Y-97460000D03*
X133020000Y-97460000D03*
X135560000Y-97460000D03*
X138100000Y-97460000D03*
X140640000Y-97460000D03*
X143180000Y-97460000D03*
X145720000Y-97460000D03*
%TD*%
D10*
%TO.C,J2*%
X150800000Y-97460000D03*
D11*
X153340000Y-97460000D03*
X155880000Y-97460000D03*
X158420000Y-97460000D03*
X160960000Y-97460000D03*
X163500000Y-97460000D03*
%TD*%
D10*
%TO.C,J3*%
X118796000Y-49200000D03*
D11*
X121336000Y-49200000D03*
X123876000Y-49200000D03*
X126416000Y-49200000D03*
X128956000Y-49200000D03*
X131496000Y-49200000D03*
X134036000Y-49200000D03*
X136576000Y-49200000D03*
X139116000Y-49200000D03*
X141656000Y-49200000D03*
%TD*%
D10*
%TO.C,J4*%
X145720000Y-49200000D03*
D11*
X148260000Y-49200000D03*
X150800000Y-49200000D03*
X153340000Y-49200000D03*
X155880000Y-49200000D03*
X158420000Y-49200000D03*
X160960000Y-49200000D03*
X163500000Y-49200000D03*
%TD*%
D12*
%TO.C,J11*%
X141148000Y-92888000D03*
D13*
X138648000Y-92888000D03*
X136148000Y-92888000D03*
X133648000Y-92888000D03*
%TD*%
D14*
%TO.C,J12*%
X110054000Y-59166000D03*
D15*
X110054000Y-61666000D03*
X110054000Y-64166000D03*
X110054000Y-66666000D03*
%TD*%
D16*
%TO.C,J9*%
X159034000Y-84994000D03*
D17*
X159034000Y-82494000D03*
%TD*%
D10*
%TO.C,J17*%
X153340000Y-89762000D03*
D11*
X155880000Y-89762000D03*
X158420000Y-89762000D03*
X160960000Y-89762000D03*
%TD*%
D18*
%TO.C,J7*%
X133334000Y-53755000D03*
D13*
X135834000Y-53755000D03*
X138334000Y-53755000D03*
X140834000Y-53755000D03*
%TD*%
D19*
%TO.C,J6*%
X110772926Y-92332567D03*
D20*
X104472926Y-92332567D03*
D21*
X107872926Y-97132567D03*
%TD*%
D22*
%TO.C,RV2*%
X153848000Y-80696000D03*
X151308000Y-83236000D03*
X148768000Y-80696000D03*
%TD*%
D23*
%TO.C,MH1*%
X115240000Y-49200000D03*
%TD*%
D16*
%TO.C,J10*%
X159034000Y-75850000D03*
D17*
X159034000Y-73350000D03*
%TD*%
D24*
%TO.C,J8*%
X103080000Y-50724000D03*
D25*
X105080000Y-50724000D03*
X107080000Y-50724000D03*
X109080000Y-50724000D03*
%TD*%
D22*
%TO.C,RV1*%
X127432000Y-63932000D03*
X129972000Y-61392000D03*
X132512000Y-63932000D03*
%TD*%
D26*
%TO.C,Y1*%
X122152000Y-63424000D03*
X117272000Y-63424000D03*
%TD*%
D27*
%TO.C,J5*%
X117312000Y-92014000D03*
D28*
X119812000Y-92014000D03*
X122312000Y-92014000D03*
%TD*%
D29*
%TO.C,Q1*%
X128300000Y-75870000D03*
D30*
X128300000Y-74600000D03*
X128300000Y-73330000D03*
%TD*%
D23*
%TO.C,MH2*%
X113970000Y-97460000D03*
%TD*%
D10*
%TO.C,J16*%
X153340000Y-93396000D03*
D11*
X155880000Y-93396000D03*
X158420000Y-93396000D03*
X160960000Y-93396000D03*
%TD*%
D23*
%TO.C,MH3*%
X166040000Y-64440000D03*
%TD*%
D14*
%TO.C,J13*%
X110054000Y-73898000D03*
D15*
X110054000Y-76398000D03*
X110054000Y-78898000D03*
X110054000Y-81398000D03*
%TD*%
D23*
%TO.C,MH4*%
X166040000Y-92380000D03*
%TD*%
%LPD*%
M02*
