M48
; DRILL file {KiCad 7.0.5} date Thu Aug  1 11:48:49 2024
; FORMAT={-:-/ absolute / metric / decimal}
; #@! TF.CreationDate,2024-08-01T11:48:49+09:00
; #@! TF.GenerationSoftware,Kicad,Pcbnew,7.0.5
; #@! TF.FileFunction,Plated,1,2,PTH
FMAT,2
METRIC
; #@! TA.AperFunction,Plated,PTH,ViaDrill
T1C0.400
; #@! TA.AperFunction,Plated,PTH,ComponentDrill
T2C0.750
; #@! TA.AperFunction,Plated,PTH,ComponentDrill
T3C0.800
; #@! TA.AperFunction,Plated,PTH,ComponentDrill
T4C0.813
; #@! TA.AperFunction,Plated,PTH,ComponentDrill
T5C0.850
; #@! TA.AperFunction,Plated,PTH,ComponentDrill
T6C0.950
; #@! TA.AperFunction,Plated,PTH,ComponentDrill
T7C1.000
%
G90
G05
T1
X101.016Y-47.676
X101.016Y-53.772
X101.016Y-59.868
X101.016Y-66.98
X101.016Y-74.092
X101.016Y-80.696
X101.016Y-86.792
X101.016Y-92.38
X101.016Y-98.476
X104.572Y-88.316
X104.572Y-96.444
X104.572Y-97.968
X105.588Y-74.092
X105.588Y-76.632
X105.588Y-80.696
X105.588Y-84.76
X106.096Y-82.728
X106.512Y-75.108
X107.112Y-77.564
X107.62Y-52.756
X108.128Y-84.76
X109.144Y-54.28
X111.176Y-52.756
X112.7Y-54.28
X113.716Y-67.488
X113.716Y-75.108
X114.224Y-62.916
X114.732Y-86.792
X114.732Y-92.888
X115.24Y-65.456
X116.256Y-57.419
X117.272Y-72.06
X117.78Y-80.696
X117.833Y-75.128
X118.288Y-74.092
X119.304Y-61.3
X119.304Y-96.444
X119.359Y-75.108
X120.32Y-52.248
X120.32Y-55.296
X121.336Y-81.204
X121.336Y-83.236
X121.336Y-85.268
X121.336Y-97.46
X123.368Y-81.204
X123.368Y-83.236
X123.368Y-85.268
X123.368Y-96.444
X124.384Y-65.964
X124.384Y-71.044
X124.384Y-74.6
X124.892Y-69.52
X125.4Y-75.108
X125.4Y-83.236
X125.4Y-85.268
X125.8Y-51.34
X125.908Y-52.248
X125.908Y-65.964
X126.924Y-52.34
X127.94Y-61.9
X129.464Y-80.188
X129.464Y-81.204
X129.464Y-89.332
X129.972Y-66.472
X129.972Y-82.728
X129.972Y-84.252
X130.48Y-74.092
X130.988Y-76.724
X130.988Y-77.923
X131.496Y-55.804
X131.496Y-59.868
X131.606Y-77.23
X132.004Y-85.776
X132.22Y-81.712
X133.528Y-73.076
X134.266Y-77.587
X135.342Y-69.316
X135.56Y-64.44
X135.56Y-74.585
X135.56Y-85.268
X135.56Y-88.824
X135.578Y-61.918
X135.844Y-82.045
X136.068Y-59.868
X136.068Y-65.964
X136.068Y-68.42
X136.125Y-65.005
X136.178Y-63.32
X136.302Y-79.556
X136.432Y-67.498
X137.084Y-77.156
X137.592Y-72.151
X139.116Y-59.36
X139.116Y-62.916
X139.116Y-67.488
X139.116Y-78.156
X139.116Y-81.712
X139.116Y-86.284
X139.116Y-89.332
X140.64Y-56.312
X141.656Y-59.36
X141.656Y-62.916
X141.656Y-67.488
X141.656Y-74.092
X141.656Y-78.156
X141.656Y-81.712
X141.656Y-86.284
X141.656Y-89.332
X142.164Y-76.632
X143.18Y-56.312
X143.688Y-51.232
X143.688Y-69.52
X144.094Y-84.444
X144.196Y-91.364
X144.196Y-95.936
X144.201Y-61.046
X144.345Y-78.664
X144.63Y-67.904
X144.704Y-63.932
X144.704Y-81.204
X144.704Y-87.3
X145.197Y-62.931
X145.212Y-65.364
X145.212Y-67.212
X145.705Y-64.455
X145.72Y-56.82
X146.104Y-67.78
X146.186Y-66.072
X147.244Y-76.632
X147.244Y-92.38
X147.244Y-93.904
X147.244Y-95.936
X147.618Y-67.082
X147.752Y-57.836
X148.006Y-65.202
X148.26Y-85.268
X148.292Y-63.9
X148.768Y-76.632
X149.278Y-62.422
X150.8Y-63.022
X151.308Y-61.392
X151.308Y-70.028
X151.816Y-51.74
X151.816Y-54.28
X151.816Y-76.632
X152.324Y-87.808
X152.832Y-61.9
X152.832Y-67.488
X152.832Y-69.012
X153.848Y-70.028
X154.356Y-51.74
X154.356Y-54.28
X154.864Y-60.376
X154.864Y-85.268
X154.864Y-87.808
X155.88Y-76.632
X157.912Y-63.424
X157.912Y-87.808
X160.96Y-87.808
X161.468Y-63.424
X162.576Y-68.495
X162.7Y-69.904
X165.024Y-51.232
X165.024Y-55.296
X165.024Y-59.868
X167.564Y-68.504
X167.564Y-75.616
X167.564Y-82.22
X167.564Y-88.824
T2
X103.08Y-50.724
X105.08Y-50.724
X107.08Y-50.724
X109.08Y-50.724
X128.3Y-73.33
X128.3Y-74.6
X128.3Y-75.87
T3
X117.272Y-63.424
X122.152Y-63.424
T4
X127.432Y-63.932
X129.972Y-61.392
X132.512Y-63.932
X148.768Y-80.696
X151.308Y-83.236
X153.848Y-80.696
T5
X117.312Y-92.014
X119.812Y-92.014
X122.312Y-92.014
T6
X110.054Y-59.166
X110.054Y-61.666
X110.054Y-64.166
X110.054Y-66.666
X110.054Y-73.898
X110.054Y-76.398
X110.054Y-78.898
X110.054Y-81.398
X133.334Y-53.755
X133.648Y-92.888
X135.834Y-53.755
X136.148Y-92.888
X138.334Y-53.755
X138.648Y-92.888
X140.834Y-53.755
X141.148Y-92.888
T7
X118.796Y-49.2
X121.336Y-49.2
X123.876Y-49.2
X126.416Y-49.2
X127.94Y-97.46
X128.956Y-49.2
X130.48Y-97.46
X131.496Y-49.2
X133.02Y-97.46
X134.036Y-49.2
X135.56Y-97.46
X136.576Y-49.2
X138.1Y-97.46
X139.116Y-49.2
X140.64Y-97.46
X141.656Y-49.2
X143.18Y-97.46
X145.72Y-49.2
X145.72Y-97.46
X148.26Y-49.2
X150.8Y-49.2
X150.8Y-97.46
X153.34Y-49.2
X153.34Y-89.762
X153.34Y-93.396
X153.34Y-97.46
X155.88Y-49.2
X155.88Y-89.762
X155.88Y-93.396
X155.88Y-97.46
X158.42Y-49.2
X158.42Y-89.762
X158.42Y-93.396
X158.42Y-97.46
X159.034Y-73.35
X159.034Y-75.85
X159.034Y-82.494
X159.034Y-84.994
X160.96Y-49.2
X160.96Y-89.762
X160.96Y-93.396
X160.96Y-97.46
X163.5Y-49.2
X163.5Y-97.46
T7
G00X104.473Y-91.233
M15
G01X104.473Y-93.433
M16
G05
G00X108.973Y-97.133
M15
G01X106.773Y-97.133
M16
G05
G00X110.773Y-91.033
M15
G01X110.773Y-93.633
M16
G05
T0
M30
